<mxfile host="app.diagrams.net" modified="2023-09-27T14:14:53.362Z" agent="Mozilla/5.0 (Macintosh; Intel Mac OS X 10_15_7) AppleWebKit/537.36 (KHTML, like Gecko) Chrome/116.0.0.0 Safari/537.36" etag="eacXRQPz8QQ945I_aP44" version="21.8.2" type="github">
  <diagram name="Page-1" id="Exf_7g5KkWLRWvrKvaVe">
    <mxGraphModel dx="1984" dy="1827" grid="1" gridSize="10" guides="1" tooltips="1" connect="1" arrows="1" fold="1" page="1" pageScale="1" pageWidth="850" pageHeight="1100" math="0" shadow="0">
      <root>
        <mxCell id="0" />
        <mxCell id="1" parent="0" />
        <mxCell id="-ansJqmjGRNbWr8opuUd-1" value="" style="rounded=0;whiteSpace=wrap;html=1;" vertex="1" parent="1">
          <mxGeometry x="479" y="-7" width="200" height="160" as="geometry" />
        </mxCell>
        <mxCell id="-ansJqmjGRNbWr8opuUd-2" value="AI/ML Model" style="text;html=1;strokeColor=none;fillColor=none;align=center;verticalAlign=middle;whiteSpace=wrap;rounded=0;" vertex="1" parent="1">
          <mxGeometry x="549" y="-7" width="60" height="30" as="geometry" />
        </mxCell>
        <mxCell id="-ansJqmjGRNbWr8opuUd-3" value="" style="rounded=0;whiteSpace=wrap;html=1;" vertex="1" parent="1">
          <mxGeometry x="479" y="745" width="200" height="160" as="geometry" />
        </mxCell>
        <mxCell id="-ansJqmjGRNbWr8opuUd-5" value="Question answer based forum" style="text;html=1;strokeColor=none;fillColor=none;align=center;verticalAlign=middle;whiteSpace=wrap;rounded=0;" vertex="1" parent="1">
          <mxGeometry x="519" y="745" width="120" height="30" as="geometry" />
        </mxCell>
        <mxCell id="-ansJqmjGRNbWr8opuUd-11" value="" style="shape=image;verticalLabelPosition=bottom;labelBackgroundColor=default;verticalAlign=top;aspect=fixed;imageAspect=0;image=data:image/jpeg,/9j/4AAQSkZJRgABAQEBLAEsAAD/4QDoRXhpZgAASUkqAAgAAAABAA4BAgDGAAAAGgAAAAAAAABBcnRpZmljaWFsIG5ldXJhbCBuZXR3b3JrcywgQU5OLCBjb25uZWN0aW9uaXN0IHN5c3RlbXMuIEFic3RyYWN0IHNpbXBsZSBncmFwaGljcyBzY2hlbWUgb2YgbmV1cmFsIG1hY2hpbmUgbWluZCB3aXRoIEFJLiBBcnRpZmljaWFsIGludGVsbGlnZW5jZSwgY3liZXJuZXRpYyBuZXQgaW4gY29tcHV0ZXIgbGVhcm5pbmcuIFNjaWVuY2UgY29uY2VwdC7/4QXraHR0cDovL25zLmFkb2JlLmNvbS94YXAvMS4wLwA8P3hwYWNrZXQgYmVnaW49Iu+7vyIgaWQ9Ilc1TTBNcENlaGlIenJlU3pOVGN6a2M5ZCI/Pgo8eDp4bXBtZXRhIHhtbG5zOng9ImFkb2JlOm5zOm1ldGEvIj4KCTxyZGY6UkRGIHhtbG5zOnJkZj0iaHR0cDovL3d3dy53My5vcmcvMTk5OS8wMi8yMi1yZGYtc3ludGF4LW5zIyI+CgkJPHJkZjpEZXNjcmlwdGlvbiByZGY6YWJvdXQ9IiIgeG1sbnM6cGhvdG9zaG9wPSJodHRwOi8vbnMuYWRvYmUuY29tL3Bob3Rvc2hvcC8xLjAvIiB4bWxuczpJcHRjNHhtcENvcmU9Imh0dHA6Ly9pcHRjLm9yZy9zdGQvSXB0YzR4bXBDb3JlLzEuMC94bWxucy8iICAgeG1sbnM6R2V0dHlJbWFnZXNHSUZUPSJodHRwOi8veG1wLmdldHR5aW1hZ2VzLmNvbS9naWZ0LzEuMC8iIHhtbG5zOmRjPSJodHRwOi8vcHVybC5vcmcvZGMvZWxlbWVudHMvMS4xLyIgeG1sbnM6cGx1cz0iaHR0cDovL25zLnVzZXBsdXMub3JnL2xkZi94bXAvMS4wLyIgIHhtbG5zOmlwdGNFeHQ9Imh0dHA6Ly9pcHRjLm9yZy9zdGQvSXB0YzR4bXBFeHQvMjAwOC0wMi0yOS8iIHhtbG5zOnhtcFJpZ2h0cz0iaHR0cDovL25zLmFkb2JlLmNvbS94YXAvMS4wL3JpZ2h0cy8iIHBob3Rvc2hvcDpDcmVkaXQ9IkdldHR5IEltYWdlcy9pU3RvY2twaG90byIgR2V0dHlJbWFnZXNHSUZUOkFzc2V0SUQ9IjExNTUzNzI3MzIiIHhtcFJpZ2h0czpXZWJTdGF0ZW1lbnQ9Imh0dHBzOi8vd3d3LmlzdG9ja3Bob3RvLmNvbS9sZWdhbC9saWNlbnNlLWFncmVlbWVudD91dG1fbWVkaXVtPW9yZ2FuaWMmYW1wO3V0bV9zb3VyY2U9Z29vZ2xlJmFtcDt1dG1fY2FtcGFpZ249aXB0Y3VybCIgPgo8ZGM6Y3JlYXRvcj48cmRmOlNlcT48cmRmOmxpPkFuZHJleSBTdXNsb3Y8L3JkZjpsaT48L3JkZjpTZXE+PC9kYzpjcmVhdG9yPjxkYzpkZXNjcmlwdGlvbj48cmRmOkFsdD48cmRmOmxpIHhtbDpsYW5nPSJ4LWRlZmF1bHQiPkFydGlmaWNpYWwgbmV1cmFsIG5ldHdvcmtzLCBBTk4sIGNvbm5lY3Rpb25pc3Qgc3lzdGVtcy4gQWJzdHJhY3Qgc2ltcGxlIGdyYXBoaWNzIHNjaGVtZSBvZiBuZXVyYWwgbWFjaGluZSBtaW5kIHdpdGggQUkuIEFydGlmaWNpYWwgaW50ZWxsaWdlbmNlLCBjeWJlcm5ldGljIG5ldCBpbiBjb21wdXRlciBsZWFybmluZy4gU2NpZW5jZSBjb25jZXB0LjwvcmRmOmxpPjwvcmRmOkFsdD48L2RjOmRlc2NyaXB0aW9uPgo8cGx1czpMaWNlbnNvcj48cmRmOlNlcT48cmRmOmxpIHJkZjpwYXJzZVR5cGU9J1Jlc291cmNlJz48cGx1czpMaWNlbnNvclVSTD5odHRwczovL3d3dy5pc3RvY2twaG90by5jb20vcGhvdG8vbGljZW5zZS1nbTExNTUzNzI3MzItP3V0bV9tZWRpdW09b3JnYW5pYyZhbXA7dXRtX3NvdXJjZT1nb29nbGUmYW1wO3V0bV9jYW1wYWlnbj1pcHRjdXJsPC9wbHVzOkxpY2Vuc29yVVJMPjwvcmRmOmxpPjwvcmRmOlNlcT48L3BsdXM6TGljZW5zb3I+CgkJPC9yZGY6RGVzY3JpcHRpb24+Cgk8L3JkZjpSREY+CjwveDp4bXBtZXRhPgo8P3hwYWNrZXQgZW5kPSJ3Ij8+Cv/tARZQaG90b3Nob3AgMy4wADhCSU0EBAAAAAAA+hwCUAANQW5kcmV5IFN1c2xvdhwCeADGQXJ0aWZpY2lhbCBuZXVyYWwgbmV0d29ya3MsIEFOTiwgY29ubmVjdGlvbmlzdCBzeXN0ZW1zLiBBYnN0cmFjdCBzaW1wbGUgZ3JhcGhpY3Mgc2NoZW1lIG9mIG5ldXJhbCBtYWNoaW5lIG1pbmQgd2l0aCBBSS4gQXJ0aWZpY2lhbCBpbnRlbGxpZ2VuY2UsIGN5YmVybmV0aWMgbmV0IGluIGNvbXB1dGVyIGxlYXJuaW5nLiBTY2llbmNlIGNvbmNlcHQuHAJuABhHZXR0eSBJbWFnZXMvaVN0b2NrcGhvdG//2wBDAAoHBwgHBgoICAgLCgoLDhgQDg0NDh0VFhEYIx8lJCIfIiEmKzcvJik0KSEiMEExNDk7Pj4+JS5ESUM8SDc9Pjv/2wBDAQoLCw4NDhwQEBw7KCIoOzs7Ozs7Ozs7Ozs7Ozs7Ozs7Ozs7Ozs7Ozs7Ozs7Ozs7Ozs7Ozs7Ozs7Ozs7Ozs7Ozv/wgARCAFYAmQDAREAAhEBAxEB/8QAGgABAAMBAQEAAAAAAAAAAAAAAAECAwQFBv/EABoBAQEBAQEBAQAAAAAAAAAAAAABAgMEBQb/2gAMAwEAAhADEAAAAfB+j8+QkwAAgQoEBYAWARBYCwAQtkpKAIVElV2c8XQIgvc3TGdALM3ZxnQFAQIAAAAAAAAAAO70eUTIJLXNc6EALAIUQb3lzzsIVEBYCwARKIACxAGtxlNwovrFc6rKW1lrmubSaABQgQAAAAAAAAAAeh6PIkkvN2nSl51YAg1uKTVGoUQujNJupFQqIUBVZQJSs1NlZRC2k0byZqt7mdzPnuIkt0zMZ43EAAFCAIAAAAAAABfea5sSj0u/iFprfPqlIML5IIpCoWFgKltMQtWqaohUQogLBNlZpCogTLpOl5159eaC/TOfPaFX9ObSY+boIEAAoCBAAAAAAABp0xaymdVxqD1O3hlLTe+fSBz68q4rNQWsq1WW2s0m4lvMwUu62wTZWaRIspNQvVvhy49EQILzr2z12m+HXizctOvPHl0KL+jO3fny+DslAiAAChAgAAAAAAA03m/TEZuXPcS+v1+fKTLrO9p0zvLK8YFsELBCwsC2yUmoWKhYEQumsZ53bWc89CtBGb0t9OfdjLm5Vsz15J1yw59Q06/dw5vJ1px0CiIAtqRETQQIAAAAAAABbUiIlHtdPmyWutN9C545wxnLBCxbCwQttSk1BCwpRVb3Oc1EsKFs+qd/Tyc7rryc/m9V8emjV7jOb06+Pi5IUadsadcc/k7RAKIEW1JstZlz2UIEAAAAAHQ5UXJ0mSLQB7m/lyu/TpnJCX11x58qpBCzqUm6rBC2so1Cws9k9ZOJpMZc9xu1xZiu9dnp83P5uut509G+Tw+rbHrKibI7ePl40sHT6OPNw7TmVUFECL6zOpJlz2UIEAAAAAsmjnZOd2tmV1QB9Br5Erp07Vkql99cOfKskVCzpTO4sharCztNmnTOvbnXjejpx87HtjjbXOTcZ1p1x1dvP5/j9d9Z6PZz4fF7Lc+mrtJPXzc+eWWNiF6e/Hn4dYEqolAiJJ1IzYChAgAAAAAkJCgAD6V8Uq6v07RbjnFJIqqwdHL6Ezrx9vn1sVNkmM66erHVnz8XD09HTlv1xly9PPO2OFbnTtnXrz0c+rPLgx7cPL6756RdxefR38XnefvAS+s79OXJx9CBACiIAAKECAAAAAAAAAD6rPwYtq1W6rdVtrVbYWF35e+068fb59amyk1Ft95nq6OnDPhvp6cfOvtp5+vdvNr1583FxvvlS73mOTh7tp6fXb7+XPi7cvAx1wnCtxCb9eVM6yx0QIAUQIABQgCAAAAAAAAAfX8/z1LqmrW6rdUuq21arbCwTVWo1dt89bjmnXfXLlz6J7Sm9UxrfHPn5d9/Rx0s0nXn5+inPy0666HOnL3d73ev4u3kzr6nbn8z14cePLO/PnL09+HH5/QUIgBRAgAFAQIAAAAAAAAB9ly/N0u6a1S6prTVzbpdVIWFhY6XX08+rPDC9eXj6Ot5/P5+rTUaRlO7PSelw8ufl739vn4OnqrnpjheW+fV7s9OPj93i74/WYvzfq4+Znz11whOnvw5PP6CwIgBQIgAFAQIAAAAAAAAB9px/NU3rO7prVLttTWq2543W2Fkt6Zec+Xh6Ortww6ddOWeXHayZzVJrXU19XP0vm8vNz6PQ7+fxvT7MfP0378dMTn4e/s6er6Dn1vx3Xp4/lt6ynjyRc9fbz8HD1AIgBQIgAAoQIAAAAAAAAB9py/NZ63TWqXVLqN6rtDWedUahVa98aOfFx9XX2886Y46cnHupVJqJvp9PL0Mb048+X1efnz34uHoizp3y5+XqnHp6em7Z3jcc/PlHTi756b58ufTm4doAgQAoiAAChAgAAAAAAAAH2WPzdLqmt0uqXVbqt1Va21UTpG9X7Z0vKs1ycfRMl94pN1XLO5z17HWM+jn7+HDFrjV98labylyx3jO2dXvOia+zjs47Y58HX18/h7UxQgQBXo+vx+f5PZrOa29mc1NtJZqstZa5AAAAAAAAfXz89XVpdVuqLW6rdVWqrZknrpx9U6nPvjEsVTGp3a5309eNNKZ6Rx1g3ZjNqCFgtZv05c3H0adM1xZKa13+zx8Hh9Vc3v+h5OTy+nHh0gQIBNel7PF5vj9vc8q3N0o1OlJottKrz8KAAAAAAAB9Xv4NVi2ttWqrW2Gq2pdpvqevjznDfljUpNKpOt+m+zd0Y4Jrfp5ebj0xzuFRRpFM6L0dOOOekS0mui8qXp2erd/NOXXnn2Tj8PqjkgQIBNel7PF5vj9vU4LatYzfT0xjneedWqC+rNtYRC3thcOWIkAAAA+m7fEELC1Wqw1CmtZ07Z24t+fmK2VWFiW2t9fbv63y/pxnfJ9T4/BvzcvDeM3MRLRbFra71bOVlczLPTRi2fR0a9F/X8vl6bw8/WvnsQAiATXpezxeb4/btOe2ueM6ws6Wtzlzzb6Fphp0qIVBc8ZrIAAAB9H6PjCFiIWGjU56aTr13XJFvR5MtTLpqsVlrz3fN9Hfo0+X9ykzb6XyvL6eNjlyO7mzmyzrW/qz1bxnLz8rnyuPLWxfPbK8W85Z6RCJuazQRAC2uazUQAChAgAAAAAAAAH0Hq+QEQskTVpvXPp676/U455d8/O78ODOcrmIgVdb9e/q8u/Ryz4nr5444bPPxT0s3LGzWvonpdsZc/RteXPrlw+Xq1lhlz3BpvO85cWPTCgX1mmNQAogQAChAEAAAAAAAAHvev5REJSpb57+hn1etw9/mS+pM+d6/n+Vvz5Xjkuc3FTmruN9B1Xy4TVs45Xe+848ul627Z9PXPiz7t9csNceDy9q4jSZMsdL6xnndrKZ0AEQAogQAChAEAAAAAAAAHt+z5d0rKgqa7suzH0O3z+/wAHt5Pa4+3g9fl8y+LJwzNOuMcdGUW1ztbFnb283Pz64Z6X65mJyhvT03qsyOPh0rwlUsznnaLXOU6IhQAiAFECAAUIEAAAAAAAAA9n2/NRJKRLfLXO+qer0+fuvz7xvh5fo8Pm3nhnGnTnjjagWl1p6Ma3Ay47pnV+ucefTPhsum5XW0lOdrJ1duGPHpm1E1e5zmkQoARACiBAAKECAAAAAAAAAev7vnpJgI0mby3z30d9G+a3GcXTz11NNcuXl3qsZttL+jG2OXJz9Hf38nFn1Y+fpp6OdtsPP0jFtqVxqzMS5unX282PHpTOs2tLnKbRNlZoBEAKIgAAoQIAAAAAAAAB6vu8CJEmjFZrTMNaLnOuTUaxHWa75VzcuXTozwpx1XpqPbY87n59vQ7+PHfXHh1xm+r1ceby9a89W3lFM7dHR6ePW8/Lz9HJ5/ROc2TOaiWFACIAURAABQgQAAAAAAAAD0/d4ZJktmWmboqt1SbrLVqe06t+aOJ3uXHppwxWWJeX1d+zr5ozdrz83h7aZ1XLs9XDk8/e7MVXnqV09nPo5ceTl37fV5vO4+1yZ89BEKAgQAoiAAChAgAAAAAAAAHpe7xdLlpjCKXVGmphnqJDfR23pw5eevb081e2nhsWNXlvobKYXuKrWXfpzyxvHn0mzPG1vT7uM+XPJx9Hq+vwcV9WPk6Z50EQoCBACiIAAKECAAAAAAAAAfQe75HI9FJqREUiYqtzunpvWfbx4c8dHXjk6cfn9MZkdLTnuFskpSWGtdTTWZxOe7yxq9zJ19/PPeRi5dOnN4+9sZxxsJYAEQAoEQACgIEAAAAAAAAA9H3eOZItiUEmJQdNc2Okalu2K71XlerPDnz1DSssYtkqqU6dXbXfM4TPFmcnLpUtJNa9eee958txzsSDa88c9YBayubACiBAAKAgQAAAAAAAADv93lCQBFrLSW1nLHSq9Ljzu0LEvXrzcuPRbWc5pVkrixbLXZ1nq8foZeH6fZ6Pm/Oe3zV4ebHNrNC1lZqsogSzaIiECIAUQIABQECAAAAAAAAAd3u8qAAjS4nUyx0RawlM7Berrw5p23vLLHSErmlrLM1r37e/4focfHfobnkfS+Rz8+GMuGOtkrLTO0CFm2+9FrnNMQiIAURAABQgQAAAAAAAAAdvt8wJIL56bW45ud5AQWkE9HV34a55xXJy9WXHay9xpc5Y66a139O/b5vo8Pp83mc/LhykSCUqqUQSW3qFjMtvdOWIkEAKIgAAoQIAAAAAAAAAO32+ZLKybzVp2zzSxrhjeUpWaAt6Z1583H5/T19fPPVz8O0ZRUKjPHa+7359XE5xPLz52ASFtZTOgWbb70WmM1zEkAKBEAAFCBAAAAAAAAAB6Hs8d506Ofurc0KIERZjvyykpWahdPRjrebi8/q7e3l5OnpjzVZKZToiZNOfXXHo49+etgRd00nbFwa50zoBKtCIREAKIEAAoCBAAAAAAAAAB2ezzFmWEvOmme6IK3GW/PaSqykTV956e/BtjOuHm6ziEpnQvc5ze/LnjvpW0ItqWx6buuTzxrjTOgUkSgXuaZ1ACiIAAKEAQAAAAAAAAAdfs84CJL562nR0xnvja4pjcZRLKaMxbndsoygQL6zWaRWWFARNlZqZqrIAiW+s0zoBEAKBEAAFCBAAAAAAUgAAA6/X5wL6zpcQtbWrOoqJYwjFri1lLdmk1BozbWcMdQEF2vKFxz0gBUQACJQAEQAogQACgIEAAAAAlrS9as0nIAADr9fnmzp3xyzvLPSJQAAi1zSbCNNYyzsFiAJsjOoAIgAs3MS2Sk1EtrIlgCBACiIAAKAgQAAAACzd71hnOcQAAPQ9fk6OnHj5+iJYUACBBRZms1AAUgiURBRKQsQConUrmgRKAAiAFAiAAChAgAAAAALZqrJAAAPd9fyvMnuAAgCCgCIAKIgAC1zTOxa5pnQBYgARKAAgQAogQACgIEAAAAAAAAAAHV6uEAAQUACBABREACIKAIgAsQABEoACIAUCIAAKEAQAAAAAAAAAAdPp4gAAAQIABYgACIKAIgAqIABEoACBACiBAABQgQAAAAAAAAAAD//EACwQAAIBAwIFBAMAAwEBAAAAAAECAAMREhAhBBMgIjEwQEFQFCMyMzRCBXD/2gAIAQEAAQUC94bW6viWtT6MTLhOgLeXCH6EGw9LktyvaHo8Qm+tpsIWy+hCzGEW6adM1GdcG6Mmxt6BFjre2lttfMQX1CmbDoC5Qn3luoDfrFx13h9IC/Va5CypiBBDt0BbxrX92vWPOp8nzoNifMU2PQdb7aAZFlKNoLCh0BbxaF4cVRtB2rqouXIt7xdT0g6E+niceskWJuVbHqSiSVZKcLa491Q3Oq3pKfRt7XIy/TaYy0Im1usWt020bHrp0DZqLrMBRhqFmJ3jEHS1hqi5M5GXugojLpY26kAh0PjoIFugEqeg7xULliqlmN2IihSwuIFJlP8AUg/YaFZqZrDGr46ahsutPZYPcjzeX2mRt0W0EIlofHQBfqtMRBSvOVywawmQNI4iZWa632lpzWnf+OAYoDPxBHMg2mWUFrpuzm51bakTf0b+zv121vLw6EW1UWBEIsZa8vaZDlwsWNYEg2LUhjVfhhf8aNSddLy2MWoVqVBSvR5ZlS/NIm9sDAtzXsg1Q2euw5n0dvSU3Bh3M/50C3gNoCtUGlUCogRiJexR8SuLipTa7XVqKcxqpPMpEc6xyVSZS4XKfhLGoLQVtzrT3qObt9Hb0wbHS2VR6SK/67NtT2MfyTab3qWIAgXKcipZbqhVWHDj97mzUQvMZHDcPcni6h4VfzqmdU/kcNVHcYWyaUPqipt1qhaKaQest5jvxC4iNs+U2IW0wMAxgaldkNWNhTnNu9e+fDf5RUZDwnENP/QV+aqm/CqfxeKtzjpfcdvD/VkdFpical1Eo/1cCMxNO+5AM/kwbAG1Qi8Wk5dju2h7qfDf5fmk+MWspRU4UGvxQVGbcA1HnxX7U+rbpzYrU76cojGGkpgVlGmWx0/6ostSOyz8gLGVKkZWWKZw5/admBnMInOMdrwz4lJebXrtlV+vW1/EUlWNUXapkfBFQiFp2GFTBMTGp7F1VA/dfQVGEzBiMM6lhU2hMyhKkDEzAsTy6YpVkyq0zTYgj0FA/HMp0jUCoCgojLCcsZBdsNwt1t2+78G1lVLljjD5h0+JhgoN5vlUMvFNmPnVfNTuWGxgUmAaUdiYNi3+vUdqjda/6xiulNMlpi/70IwzvW/tFAVgyrCvb7G/pBLvWVUNSpkdxGtPjQSnQLNxNJswjTHGGwGZgY5Me7aEa3xZlxI8SnkTm0oseZX4YqVoO5rOD6K/6xnKBoJTUzEF1F0amJgOWwsEUGY7OAp7IqbBRYYsQox5extf2SLdlYKal2q9J/qgmbmoEArZjiWONMdviGL/AEfMBtMdo8Hgdpif2gEaoMOdU5TVHb0l/wBYzmdvOQtkquSgU1Ax5oyJUqDYZ9jkNCbg1O4uMwVWZ2mdgbX9iBKalKV+91bmYhZ23BAO02hInDm7VULpw9JlPGYiE406+1SJ/WtMXb8a0q0SoKDEnaUxduZisa9tR56rm3v76AXgWJSvPxgaVTheWKjGx6NySYrm4rJEq0y1dm5jf4q/8GeBoqExBhSZ1UowErq4fBoVmfbYzcRllWhy6XRj2/TCcOmbMw4en+U96b89K1MLCqRrQja14Yxg83mULCurA8rifIMK7WM8RKVR4yYU2pZFFvK3EOzF2MU7ttA3bG0FvptrdFEJOHIDcSLryyW4QYis0Y2j3yjbCN5HRTPMla+Y0zac9oarmUnYPzqRj19jAt1Ckk9w+byoLH6nxoIIGCvTri1uHh4lFWqt42iCE3I8+ZawioWPIqRe0DITtMVYdR4v0Ie1PJJvCNvqx4gaK1o1RmmUyscyTkpjKAhBGoOws5qvhA5ByWojm8AvL4l+1ptNrdsNrMljMf0D+mOlu3S2307BQAdRGa8vDsYFyqVTeoCZjpaUzjUrLjUlDEU25cZ9D3UfOhtdWx1x5kq0X5eIXQWvU/q+31FoEJgTtFoXEJvL69tJfyWBKioq02yN7neCfIYMmNCOFq0zdSdKPcJjefItAAYtJiazimBUIjtzqM8fUpSLQctYKthzDMoxB18n5p0mduKUrWnDkgh2MzMyhNhcQteA2J2fnGXQztlEjnVRjUHk760TjV4j/JKX6aZqm9mb6g4UIXJl4Ze2otot74KkbizGYcQPx3i8pAadkswmRnxoNyxu2nmUh+3iB+8aXBipkUpUzQ5q1BjQWVKmUNoNx9P8n+ibnov2gEzMIt7zzCLLfSp20+Y05hmREJ08TaY3lpSUk0uFYO3DvVr1lCS2hFiTeKwEbz0LTyTXa3043Kxmm1pRpGqTsdK29MixUaCWsL6qQEppgmdLJLkVPK3DMrLBa/yTYEk/YraeBoNzex1NzQteEKECbM0G8to39KZcENw9R6idsrLSLU/1O5ao1pls1r9Z+pxlrAjpItFUsxUq1NGIHJptylAds5YZXNt4bY2BgIvSr4QPQMrVxizXGoBPSBc/J0P01oBvhdmO+m1z5AJ6apxXa3Dt3Hh3WMj2M8Q2lsRe5Xc8PbmOd815Wu40It9X2wYw8qM6Q1Cx1PiDypAOn/LqalILeUBywWaCowgdozLfaWgEFM2LqtO/Qoh3hFpufrb6DoOlu2A2My7eYyDnx6jPoTeBras2RiVMQegC8XRvIYj0GbM/T36FsJbW02WO2R6u3AeTYHpvbS56stvqVUmWVZmJnMzMyYXMLXha8uTCSdcWx0Rc32pnppOKdSq4ep9OND6IBJxVYahPohiBqSwXq2t6BBEHliC2gNj70ekiGozEU559O23T5PUQR1Ek/SX9Goy0aftmxvozFv8A6b//xAAuEQABAwMDAgYCAwADAQAAAAABAAIRAxIhECAxIkETMDJQUWEEQCMzQhRxkXD/2gAIAQMBAT8B/cE750mXbbgoLudhcoLufYiJ8vxm32fqj52gRrKyUGxx7C1hK8MJzSNtSpYJTXXCdtrZuU+QDOwjSe20MkalwWTsLoQH7k7m5Ow4OwiefIHlExva3uVVawZGhQzsLkPv9x29h6tjjlD71OQho4SNo1jOpMCSmuDhI1MmpG1jC5U6EhXC0sT2RoeoxsJhMnk/uuGo2tqfKuCdU+PLuEx5ABzKAhObO6la4wqfQVfCJnSr0qmIGw9RhDyZ/VtCjaFaoCIWZ8gz5Dbu+6U+uOGptZh7ptUvPTwh6pCGjQRzpXMxGxxgSmAxP7ZcU13zpI43jjCLkHI8bQTtIBEHYUMJzw3lNBdygwd0AU4uAwjBwU5wHKqfyODEegYCrUQ9UTcwaDOpRNz52VMkN0P7J4UKM6WiZ2ypTSiEAjxtndKuPwjVjleLfhiFE9yVaQ8OdkIFxRbIyoPCkqV4beIXT4v/AGiQnEhplfjg2SUE10JsRhOMBV6sCAmCBGxuXkoCPJj9ON8qUCg9XInQGdaTAAiAeU4QY0mFE8q03TONIDQqRALkJA+1UMsMqlXJ7IVOsBQCVYRwrVM4TqYLbQqZqR8qreI8ThUwCz6TAhTk3ItTxAVNhPUdjxLVRabPv2SVKlTvpPBEIuDRJTjJnTvqXIicFEGmZahVYTMp7y4fSB+EPlB5ByMoOF1s8poBbIQAIEqq6wKkBaFUB8PKZBCaIUHujIVQPeY7IshEa1MNKYIEeyT5ZyhpMMxymVXubxldablxCyMAJnGUBPKgcKnI6SiUX290PyWzyvGyiQGr8n+spmQCqpdblUS0hMYPUqNrpc5MNM4KsDH2otjCcg2BnSt8e1AiY8hz4ThULYAVF3+VdiVQddMKU3LVb3WQU6eUXhMb4puKsYV/Q5NL3p7ZaqMWqv6ExjXchNos+UxodSwqdAh0r8lwDsIEkSU5H7UI5qj69pGoOwFXCYVOCbtK3FwQBPKa0B5ChAkcr1DQ5REtX4+WwsnCrGXgBN0HS5V/QmFNPdNd/pidWqQjkp3Ce4ME6RlUepzn+2N22NBuVPpcQdKpu6GoVHD1hFwdkHWO6Gg4hM/Gl0hVvFHSv+OXZJymuez1oOB4RCrjolMdhNcmnup+1cBhEonKJVR3h0yVQbawe4GYwuUW3DIQpGMlNpxwhlFgKDfgrr7oOCPyoMSqdLouT7LRCqZUaGm0qwjunA2wqUloQcUHFSVLpyUS5Xhoz2QvqGeFVpPiZlUqgeJQM8eQ4nxQgn1AwgJzyHQAvExMK5XGJUqf3uUBcYTKcmCnNsJQUIaRpdeYai2FdDYVN5iFcnZCGwqn0mNBI4RfHKLtK2bQflAI8Jn9rgqbAwQPId/aEE5j3ud/4g1zznGFHREI8qOlcH9WPKaIbcU2mGMDgqlW7KJu5TZ76hWyjAbnlUWi2O6fA5UzhAEmJVqLRCaMLKB1tkfaaZR50qWgKwL/AIzXCOE97AbTynVmN4VFhy53J8l39oQXikVCDwnPOVdjmUTkIOKnO+FgoBWo/pQm0y5PfFIgheJDM7Qm8LgYVL8ZjBLk78ak8LwA1xB5VXDsI5ghBO4Q40tlA5g6N7ojMo50fwgx3ITyyJ7p7Gl5PKbTaPSPKd/aEFZl090KTgCoJCAJMlBsK3dKlYClTCP1+iGqw9la6YT2dMIQGZU3LKIlZQlMBTSG2knunC9mFSZ4TcouueXI9TyFRMtjR/Gx3HMIVCeGlMeDhXGVHfS27CbUcyQi6ZEpsSTsO+B7BGgTQE2mSrCHSEQTwvBCcM7BhNHKbCpVqjB05C/I/Jqlqa5pb0oesqj6nIL60CLgFhz88BBp/wBGFUZPSeexVNzLZlXtQd8IN6pUhYQcqde95bG27MezBNCCY27JXismIVRo9QT/AFSAnlyE8qcqUE1FSplQaRxwg4Xr8fuUR3QdnKkLnlOqsaqTw9xngq8f75VR8S7/AMTKDQMhBjQnDCbnKLc6N0M9vZs7S5/+UzlMy0tRokOlPwy1VuU6CmxGEU3OdG8bXts4VKLYRX0gwIUWoUmDsngEZQFQf6QZmXGToXQYRKGCpxIUd0wyM+1DOhTSqZJH2mOnIV71VnmUa2etF2jz2QEI8LhTo54byvHZ8om4owV1BFyGp52uGcJ/CAHbQHJ9sKBQKvHCa+JKc9PMotCtcO6BJdKBB1IRloVNl3W5FoKhzHWt4KYIRMKJ5TchBZQmVJQJTXTzpd/KjwSUB30Byc6zn2hpcZkIjSVcU0xEKVdKKc+1kqkIaiArvnSVUEtIVJ0tGlaS4BvKbf3QZ3Ogw+NQnNuQRV1mDwqVZl5yri6Ro6eyZxhR39plFyLsrKDT3QEbJdUMDhH8dqa4sNrkajYQiEEdC0td0K6r8Jl1N3X3QgjGtXph2l0aGUSR2TqgAJKpMLze9GmDymN8Opb2059pdUARvK8MlWK1NBHOpMIZViZSsbGlcAgIsAwFaFagJKgoNhESEBLcrwgOFDgocqrTYSqWWgooY1rCWEL8f06VP5HBqFIKQ0R7QLq3/SDAFCCjUz20gHBVtoFqfYXXJ73NP0v+QxOFRxuATakul2FLSrQu+pMBNwNRjCq+gqh/WEdII4RfAJKfUf4loC8JzDcxXVT2VOnbk8oSnYPHtHbCHGUBG2MokBCHNgq4olTJhQoTMvdK8NqsCtCA05wsoGOUMosxKqQW4RcKVIKnLuoo6NMoBOaTgpvG1z7XBsc7Mz7QcJya3uszpVqinyhnWl6nIZEp09tCp7KO2rW3O6SqFMVXS7gIlowvzaDB1hEJ8EG4IOaeEZjC4QzlAAce4unsuTqcBRPOwQKhUoElyLuwTW9yjjKlSmekJvK/CPqajQAdcSvzD/GUX1ByFV/kbaUwNYIClW5lNmM+4tZPK8MFGl8bQZRIaJKDg4SFUeAftHxXjjC8VxNgEJjbUSYwoErHKEzhXEISMoScjlU69YiSFUkuucUeZ2Egc7ZgIIoI+zWqwqlTMw5WxrVbIwgiQOdtIXEuWZX5DcXfCFdjuCg5nKH0ueUJ7oG7EIYV0CU2HNgp5Vrr7pxswdAZ9rz8pkgqo5v+QqjxILVffnY7jQpwJGNTymOseWlF0Ksbz4YQaEabSiwJrSsqUSjgSnWEAonYxk8qxqc2CsD22dKZ2PONJzGhEiEFbmUabXn6XgfZTKYbxoBCLZ1a2Bo5t20mFTOI0qHKLQefIa20R7Q2p2KvajVCJlOk8KdZWXJrY39V30jwhxndGl53W5n2pzgFJPCtKtVgVqtVqDVACAA1uE26vda2Vl4BG6qwvbAVJhY2D7Q0aOHkkgZKuc70oMA8ktBM7AGk3b8z5IIPCKaCBnUiRH7zdD5D3hgkpoL+py48ucxuJjeDO4AD2S5T5FNrqrr3/rtujq1a0N4/+m//xAAsEQACAgEDAwQDAQABBQAAAAAAAQIRIQMQEiAxQRMiUFEwMkAEFFJhYnBx/9oACAECAQE/Af7Mfmrpr4NSr8dYv+mku43e/FvBhDd/A2X1JX1X+Fqui9q6b3SbHUe3RGHIk/C/s4lf3pX19+wm+27fHC6NPT+zVdYX9kN3+Rbp1+C8V1p1HpsY1nG69qvo09OycklQ3/ZB+N3/ABVi/wADa2TrajicduLqx14Hb77xV4JvO8VYlxiakrf4KK/l5Mcm+qihoxX4E11Vs68dKRDTsqKHCL7HFJWSbe7e2ni30aUbZqz8f3X1xGxMfS10p10Riemx6Y6h2ObG0VFlEETdKjlZF2sklcbJdMvbGujSxFyG7/Av5qV31xY0JD6Ur2XQos4r7FA5JLB6pF8pZJxLoZ7bKogalPttBZHiBLZvbTjbJO3fRLEEvxX/AGJnI5DfS3sui9tPLNTyd2RJS5HA4vbkKK42iMrVHpWOPHuTkN7UJZNRqKpdEe5q/t8c0JWLpjFWRmSjawcBR8mpLJeSzuOBLvgUkyUmmRnbJ3YkN0c2Qfkl3vo0lcibuXx6dHcUTicD2GOJj7I2j1B6hJ3GyKFAqP2caHFMinY2k8ka8ElOzwSbk7Y4mhLPFkls3ZRo+X8VRXVFFJdxyxQkmSiPsls2c/A3ZCuxBGvrcT1NZZNHVUo2OlkUrwav7Gn+xzdko8hOhyI4dmeKvoWNK/hrx0Isa6dNGpLaMvo1EP8AWxP7KKrZYI9z/QqakPUjVn+OLSyam37RyQVSH3Isnpcso9KQtMbFvqYil8UiiTFujTZOJRGLJW+4ouq2QnQ9ryatNWQ/yx70cUkNchxaIsg80TjT2k6dFk352USOkShRqK38hEuhTXkSRaRJ5FNjkvJ7fA4sX0VklL3EZOzmOWy1JI5p90JpuybSeSo+CdJvBj6O6EkQiu7JatHqciUVJWiS/AkuIyijicTirqxR8s4CjasrF/22lEYmcix5W3dFEVSsUrK9w1nrRP3K9nTyzjZREf6EnkRp9manWhfqPa6PIuwpe4/ZEUosUoxoccUv4q3rrZKVsS2ey2ih0iNSRxydsmEc2c2cjA1vGVMlGt0xMUvbSOLZHTzk/SJN9aF+oysCRQlhjivo4+0awiEU7s44dk0ovsVDGO5GGHYoKhcZYFBUsHp4HXj8VfirOBrO1FFb3xjZqakpSpEZSg8mnlWJCw6Gq6aOA4ifhjVd9kWQbTItd6PUS7E9Sx9aF+o9rLplqsDlZ6mRuLQnSZz9tE2nkbuiWpbTQ5rl/wBhOMco51RzrsOrx/GhFZFFC4ntLiYET/UT4TdmpNSwj/NfDI3SJfsd10RRGGMikvoSjIlplprjshpPa2kXuu+eu38K9R+CGovI3QpMsvZI7EWT0OR/x+JaSwS/Uvwx4Y1W+mSavPZGfLoy/ax+6I4SHHyxtVjdxHGlfTxxfxEnSJNyZwF7WRdoqJUTiJWN+Fsjkche7A17Sfci7wOGCmduxDHcvm3fkf8A5i/6hxUESkxOiWMF42eyr4yaFiRywPLoWDs928UNfQxbUURd9yad2L7O2RyaR6rFNikmqYov7MLLJzKsjG2Sd7v4+WnZ6cxaVGWOONoLyPIu+8Yigl3Kh9nGjKLUiEcGorzunSPUHMb2i3x6H8gtkKTstMrFDVC7XtEgvJOZzZB3g1BKyDrBJ0N0WvofEwUUUV7Cuqvja2SFAcKVkkXRJWsbQZDKon97QT8Dz3HPwiI8oecbS7idbRiLT+xcXiyUKGqMD+KsseB9MIkpV2OSFK8MnEldjzkRpyHFS7HpCtYJNpkl52g8Eu+DjZJZ77JGmku5PUdnqM03eCayVx7/ABLTGMqyuqM1HLLtbRVkhyZzZRYpnMcj1PsuLLiQkiU34F3JZd7IhmLRqbaUbNSR3fxCHn8P/wBIRvuPTrscTjJZHlDiziL9a63kj3GRxna/vaE6HBSWBaJagicrIq/kErO3bZClR6hKY3g5s5scqG/JyGYGhI44HKPgdcbJdq6ExTHqNDn0V0Yr4mrG6wut/rtFFi+hrjtg7kMn+jVovVebNHU5dzUXS+uvi0dt0PoSuJwGqwKH2SdYF9MoraB/qgxasaNFN2/s7r3HDOGcGzj9stEqvHSjsWNfE2XxL64oxE52XydIms7eN6E6JRUx/wCfzRCKgSf4kSEP4ayxv6LreL6oLJN52iyVS7DhIr73eCxMlM5F9TjXQjuYG/hWK/IkVXWt9NmpHJTIQ8Go/o5M5yOSPayhIsV9V7ZfVfxL6F1JiafcqI5JdiUhuxOt272lC+lK+hNr8EpX8RRTPTZ6dHChxGujkci+nFCH1X+Dlivikmyl5LRzPUPUPUQ9REpobv8AAsdSwP5NKylHuOV/hvoeOvFfhaa77PvunXxCL4rH8Xfrrqbb+Nv+d143bv8A9m//xAA0EAABAwIEBAUDBAICAwAAAAABABEhAjEQEkFRICJQYQMwMnGBE0CRI0JSoTNiwfBwcrH/2gAIAQEABj8C+8DeTa5u/D/yokg/HA+iiSDfoTeX9TT7XKw+DwX4fdT0hgjSdOHK8eS3AYwfgYCVcRvwf88LdKj7KPIak4twx0iMbPjZ/IbFgstV8SXDk24vYJgL64vrpw5Q0dSzaeQGDEJyjD8XNyjuoDnvwDhzyHt1kZePNUPgwvTdPVNWgU2J0XbAMGwc6cACbQfeOMH458gTwuOKFHMd1BfCU4UBVeJrYIvVPdO8bIyeIU8Br+/bT7b1KCFm8X4G6iij8Kqmhqa3lbwuUIlnjZWZGbJ8yItlNkWVIAPdEDSMXJUllCfgpG/U41TZZ3xo1hbBUsXlN9Sm6LEVSmZS+DrMTe6tVSdQj9Ic3+y0zCzYZWxyANvwCHW9I06l749k4LMstRY6FZcpZ7oyM+gRe4wzU1kgLNWGAW6ICHZFNSNN8e6sUaiH24adETq/UhmfLZ16uVXKBcvVKc1SmAIGx0UFOhXThFMdl6Cjtqo9WyEKoHdDKX7I3I3TXeEKfDh9U4qK+r+cRlDHsiiXsOlP5Gw3TmslZ3cFADVUP/HC3xUsqMIjdf0sgLN6imFdQO6yn10q7nshou2i+FFakBgrxphz2NgqstsIwP8Aseo5mhCnDIbFBgqarsrJx/0rfD/sYeJTrVbumYuqzoKWxHZfGOTxRmGhTsSoM7YNqcGVHh7DqOTRCofOH1KrBfp1g+6INOLaYvLIUeJG1SY+OSEwp5V+mWOxUhe6ZHgfgAaEeoSMOUqKKVNm/GF1zUqCy3TKyBOurrlvqrtjdTShUxRUKysoB7q7ShlHqMJmztc6JsgpJ1CYqfIqjXCo7LNVW0tZZTXPsoqeWWUVy7WTksFBd0Tsn+9ffDKCo4nq1sFshshgC7cLIVaiDhKhENphWRDUxhZUHUEp6vIq9xhRd3zQmGWoZ/6ROZ3Bn4Q/90LNmQDyEJCpTAiDv94wQkfChOoVlfEMDl3ROWFARJjdkDlGAlHXhn0nQHA2w0galX0ZDNIsfZP4fPTuFNtyhRT6afJq9xgKh65jdUQ70kpjQaYJVR2VQyEN+5P+66p7hF1U9wvQVTF+6L30Qf3TANsqeQl0+gMlR9mGDoURe6IHHNlsNFBshlgHZF9UaS2Av8I4uPnAWtomNkdIw0+VKFIFrndUjMae65qiffyqvcYUZb0qksaeUgsnc1DV0RS5fdVP6SvTFkJMdke6bVEuUOypI0VosnDkqntdRuo+ylHxPwn7o5VJU42Xwiw0QbROhSFSe6FW4w1+OD05uynxKFmgjelCUz4afKyiN+6ByhkBPzwTxs/RQC6e/bDvwjWNUJXM9NSYVSjmuqV4T/xwJxsg3qrTM6zftMEIjKWBhWUogQNkIvh7DVU15nfhfpEruV6ip9SYm6ElAWZBsRJtrwTFY/tM1iqKdqUyjRWUX3VvyqWIJounBQo/KLVQpK990zumYe+GuE9LOfCmobYGs2bE5r4Nhr8o8DVflOnT7q60U1Lluv8AF+CstIy04EvZWWsJqo3TPCi2+/ToMJjI2Tz7LK0J/DLg4voOJgHXpWjlHZbK/BpwzYJuadlN8KY6e+yAzOnMq60+VNKbeeAqzElfTosP7V0a6hzU/wB4wokcN0WkDDQOqRSSfZNoMBy4gv0gNU/CXM4NgyKZRgVSdijhWa/SYTUuQmpDDAGXHA7Pi4BzaqjlsNEKmdpM4BypEpulnDlwti9Qeo6LT8LPQJ1CsrcH6gLC1QXrJ+EPplsv7VMY1U7jCy0lXQ5lSBc6L6Xh6X7qL7o1sBUPV3wc9J291MogAIsYKBXKDHCwDqoHAn/Uokl2V8CrYOizrmGZWZWKAy6qod0/BSToUYbCuprgXwdukfyrxjgnAELN4hvoF+mMg7KS1ffVWRoNUnUJqeZzxkufnF57oRqqvdPhzflAAiUa6q52Qp8SO4X+R/alAANSLBQmzdIlFuJm+cOUT/JScAcfDZX4XN9JwgvgzGdAuYM3dVD0+6yAu10+F3QhOOUge7qzcNVWYDLwd+lNiWLMmx8P2TKcX2T4gVUvqgKfVUHJ2CYv7rK8EcpXdU5Kp7KQQpsoWWe6kv1GRwljwDtgzpzZMAybEw3bCg6VUsoBakQqKX9M1Ll8T8rMCCs1RV1l01XL1K08bC5THRXGXdEZqn3R8Q1Zwg8KSroUsykB+y1umsx/cgCXpOg0TfUqFPssnhhqf/qbggPwt0yAw4HIfCNOGijRnXdZDaqEXpf5TEWRc2s65SbKFmFWqdMuarK2qhZcvM9+o+nRaqHsuWlk/FJZSHxt8qmsaBjh9U2VyrrdQMLqzugYYpqXc+rrr4PgyGlXtovRR+FzHis2B8ksb+Q56ZIfh3O2is3H/spUF/ObpVlJ/CtiHWkQrBWCMcGZo3xFO6qpIB4hUQ6NQDP1NguaTsthsPJI34Mjxx9/JnBwGGLjpDAe6yUX/kr+W7+bPFPTfp+GZ1P2/LbGf/Jv/8QAKxABAAICAgICAAYCAwEBAAAAAQARITFBURBhIHEwQFCBkaGx0cHw8eFw/9oACAEBAAE/IfjX5fYG+fnTlWDnwixLo/1fEszgGngQcJtMuUfXmtc3EHAIL1AxPKNJ9foSsOfwx9P+f5UgmUG9jNZvwZZQKbHFRV16PN1AyvEvJtGTVRkv7PX56pUqIyvcX4rHBi8xdo+I3/1/AVbURFs+BQKN98eLKpg5+AYIbfzLCo1uuXqLv/B4RxjviZinP9PIK0FrHtXBcYUY/r82FsxiealSyKlSriU18EtpHsja25fjohaD8JHQvzbVXjyUDV9y5otbxUoWJts5jXEAuY9HwbLjmKweDVm/zgxcYkfFSvFUqVMoB2HlgrR1KKQrwFyPRj42Sg+DpeVErVojwKHkW3odj4rFBbNjUwApfYgd3cMN1c2ti/Z8FoIQ7jfL+dfESVFb4qVKnZMdzjJUr8HgNq/Ad2wYlgq8sLIbFZ814qZj90A1ikaS9xdS89+DEw26h4eCq6+FJkbjrmNvP4FRp+VAi3zUqFpQ3KupTE+2V80FZKvUtqrx5C2iKGnwORrNynr4hLQRjC5RotdKyMwR5eCXdmwRfQWmD6jOPYz7g03MwM8H4Vbyxyy1Afgn5ELag95gh4OIx8alS51jzBgu0fgRCy7OvjzgjlvyWNksrZTBrfqOjd3nCLeuYmte4AEgsKBjdgbm/GCwBD357jcb7KCFfSGqsvPp/wDkyrIZJXg7vJqat7fhxrGCMpyXj5njR+QdeBy+OT+nyVOvjJxpH4pKgWxM+b/UE2CLW8vEDQY4GBNVv3SlWkauAjdvpTDRKcZNxKhWw4XE0s3X1DdU4e4YQ71VYlZRVD6MRkqjOaxOOV/d6js0Vt9FeEy2ZDL9N3MRSVtqXbwvFfDjnKIrdwLvIV4d4+V4t/kbin8BUMT2iDUVypYp8/aMBKZcHgSo3CtMqZs1M52bfiAXZ1B/ZIF5mLDPi+IHSmWYL23LoVKAjLVSm8zxMcViaqN1ZCuf1Xf7TbfYgQ5NXnpKaGSAF/8AsS8iPP3KFw3eswbRtqVoFvMWQrqfC4Iy0xBP6L9FVKlRjH4DRzEG4rHw0cF/kSlaIlNMuN3TmZhOjuC6ds/slpbCmpbwUouJQjDZfMMLi+JaZA0mpb6os5Yq90MWcS/pgprmB3lb7motaztI3UtfaUKrwyhLe5z7elXFxKv7grE4vLou2J531A5qFcWlx+iMJEjGMfilkctyoG0SdFS/NOhuJmydSrZbHcp1Cs6nEBAmCpX1B2G73LYYKH7gP3FV8AqELQZP7Fbl6taGMqs/4lkLyxyS/HhtjiUFwAckF4WoLNTCc25QWhHS3BClJgyheDIpiOKGPcTb1Ky+P0VIkYxgAjDqJE+V42BtSw29nPcZYuYRswLSCS7ph5la5+pltt/+komAXysvbE5MARvNRpZBl006cscNILeI9hhiFL1seyWGnV9JnUxTBglFH2E+vbcOt3NdSmW2y1qZBSiBo7gqJdo8THig14l2Ab9TCwEzdpg/bwtuf0NjqMYy1KXBFnNHyoBTepWFk0zqUnNR28+FI4hs3fMV2WKsS6Q4IQWBVZYMalPvcvi0jqRG+IyG83LYup/ulJep1Aot5fvFeDEMavDcFLW+4OUVbwwvWtHEpT0mPMWoOJdbmZAv+9lN0b9S88vUvntiP6KxjGPhJwLuXXncqbXBcko0dMpgPT/cywbA1Fr6yy41ByjWcW8Qpbm1wZu7vw5ssNsuJTXRCWS8Zmr+47Ytdp+1NoEoadYSgqtJnUP7jwWa6nv/ALYuS8xSjK89QKbmmxzXQS7mjB+irFjGMYsfNYudgl2x/M0Q4viXP7uYSqsAcKOQZglI4h5BeLOIll3oyt6Ys1MiDG2q6mpg5Nv2ggvYq/8AxOZU8pcYuds4zHSdcQIMHfEruy79TtZqAKf5RGfaXDG5OvqWtvdkqLQHFTucs19iBde1fqKc3InJEaCPv5m5aKXTNfc2gEQr/L1/TMMn2JYAAWbWVdyrmom1TDsKC+v1fczAItmPc/7RqO6n5JYsWMYx8v3DJYWcMuXKKIUB5dRRcTTKitZ3BAbLsx6mtckOu5v6Sph3jlAca2vELhnlFvALOG78OJB3V1NnPwywXfFzvnAa8KhoW5T/AFFQo3FtA5VbUxMTNl9P+3HlHPXqci3pjVeiP6lqrar5m5/2HubQtVm3H+H/ALzF8ctSDpKCiKX7lQAKaMLJqNgCUAAtwtXLGZpuuMQINtZa1mWDJPD1+TXLmWMfiJZBqZCMa4S4pRLYDXsZmKVju5jsb3LzWjzUqFGyJyrFomXXVNRTbTNoMDhGQQzzl+50ATcBTs4nKbOUlrisRTOzVmvOYABFsRPRMyUc534baUKOIqH+g8S8NpgRtbopdAg3oJsqND28sfmbn/Ye5tB6uz0EQy2QHaX/AKnUFivUFLYK/mFaGLE4h/BH1AUdj/MDvqjDMKmQigwDu9yrC5XfDMB+s/ZFNhhX1BerdruO9hI6zKNTknonE0e/wrly5fxqOS11C4WpalNLb4jlbjXF7lXHEXJWJmm1vlINGjLCK+gT9ziMPhG1FhWp1crWK7MwUz+U+0dta27d+Lg0Pp1G2ehtWmVBjH/s37ivI9qhbiK2y78av/nHXR9N4IWnNqGLg0mgYGYiq7RfwDc/7D3No0NI63GhAdQW9fzAgViUU0xX23RVEIrcPplBoVOGagRQhP5Qh9P+ZRbOGfUWDO3SQwnCv7lwXZ++ZYJpw9RK/gWahUDgg7lCL4W+Sd7Xv8K5cuX8Ag2ZVzUBWG6UtR7yiG5cmoJxXuzKS7GzZx3L1TpNwdU/vmXllruPrC4meJVab4zclFJ+8sAapC+Yx+7KBPtDWautI5su65ml457nwUQyfyiHRn92BKavBLAZczIOG/D1CcPrMneOcNg6D+/uIY0q60/b4MAizqO/lzmur/O3L8FL9+E04iYxvUXcc6qBn/lA6PSJlCs8dSlcwxnFXFtLKTN0en1BpazUU1UboxLcFmFN+CW9XO4hzMxcy21hgYJ6EfKZW2SM7Zq/UpQ+zzKEGS3DuGoI37k2OwW53FXdr/7lyLXp7iBnBeojksoUUEcrj8ez+g3L+QKbVCFZ1XxH/ZpjKUNxhDXALqaBF6luV0UzTBeyFlairBNCyv2J6rri/Gw2OZSag3AgqNEVZPulmeSK4DtmJOUQb8w6Rwp1e8CZGvgcZgVKvbVQaTZdvqI+zQeozliYlcOk4NBKVl/y8GnQwYfG2yYxX6LcH7JcuX4Xkzx4g2VGE0sfRFJk+oiocXcS/eIfcWbt3E6yR28qsdppp+/m0bJpgo223A0zDr6mEaoNekQMpubdL9S3sz1AS/8AaLVURtq02G37ZeBTzp3CGWY+VLwVxAAg5cMkvqs4J5YYX9v0e5cuIqmXO8WS5kkjTHV7Nw3zVITWvUX6wXmFDJUZkWQSxmtzjqWbYe+5ZLrV+LMl6iZd36bgKE9niYq/38x7bX+0tERXHuFc043529sZdeF+6uPhVpXHjEu8TCt2ISlW134qa5Zu9/o9y5cvw44u5gp1GWKmTUAN+nTMMFPuDssfUqrVWkR4T9QCEHkm9IaXMp6jAXQmfcFHBArRNorY9pZBDC3bfXCPTOOuojohUFrc5rpsqLTVDL6RwfXHcO16/uDRxts56m4aWfGJXIW136gM46Uwb9RH3Gh2R3FqlMLd78tKBvjr9GvxmGJn1KvKCrxfTz7gJo2w9+BbG4bleERcs4hRjEF2HiUrDO68IpFDUNHQMQL34FpgadxWs6D3MD4ETIlp6qaV/GJWc4n2Jdw/aLavcFNQV0LXQx6lWGmTb+YbNHT/AGjC7ILzRLGhS1vfuW2Yu6/SRpdTgGjcsV4O5gfXRMCifcMG75gC7tZ/HmgAJYtBC0/hSOFU9/7korZCLWJyc9RbzWI7Q+ax/gQJt9InFkG0FAKJ24fBKFXBTM3iCqnp9xOSNIMLOd+ppAvd8ShB02zMtC2faGmRe8oADAwP5Sm7C5VsF9fpOyodwbLuHHcCoScyqtH9kK0NJv3C7ocl8mA7lUjqEn/ScRD4NzVf4IxTBywQxFoLOzE2fwzqIlwXwajiFKdkeYwcLhlhRZXncs+zmXubp3k0uNoKVESANSuZRRn35HThWFATRrHgWLQQcljeB9S6hN3+kUQO30R+1m2ZS8scXB2rkp8DTZM+9Vx34rJtvExiqbIAccAiscXHPmh2uI2ojTqI6KaCTopEeZavO/JRC2+tzNhbvaV/iG8xDlfSVC8Eq4SBhtrWJdNwTtltG5kJ92qlQE3gwwagH+6Zlo9ZP7leNRqqS+UA4v8ASBvNtyxnALxLBwX18LxUpoXdxrSNRZDdAtYi2BnjwuJvKxeNwOus06/iNDGPcwXR/EsT9uCXrItjIZTvfpm70PbFDSVWH7gG4YnJBSHAIz/cpNteER/3xLVhg58FUD2JSFCiscyo7irJFT/gl/D6/B2/D0uW/wBIGCw+5yrkpxFCrrFkcFOeSteQEyOnnI444juqs6YSroEvLZc6Vcum3YilvRcErP8AjcF4jC7NLxcadDK86Xm//EtRf2cYOj2uG4FZoaZ2mVkiBRdslzdOTiYgjpeLitovfxqV+l51uPub6G+5fggi0RRGD0/AWZVse4JUR0jZwbudDgsYD+4bD1f1Gvv6lf8AkFFTLR1Ktm9XKlUs3pqpUesHH/MozeF/BzF7seGpccbSrjIGdEpzBSrePrviTBLGD9JE8wPMj2/FKWbLIC9ZGG7aXhBmU6gUIeAUQHa3FbuOgLGIYVZ2FzKFU5b5haiw2/7jpb7S875heo6D1/uZv0FaOoZEyXBf7gHfKiwsW13CjQxzWY+UaRevihDbKqjx4n6OtMCUv+54lFLtP4irvxgKA2RCkKJa0ulv15FGxpm21v3OIQFXbOW3LVcS7eypilbB0ZRYOGCWct0o4lnZUePuPHIxm+4oiXw5+4tE2ssYQvuMpUBwLgbMTh+z4cvI+FGfgMsZgi/ogrljg89xtL0P7jw/mdy50CJm5esfDZ4q0odyx0eo78CFHNcQQGan/DFSWFF5ivXTQ8sU5/mgaG3c5WF3FcDcbdky4T1NBmPShKu9QApKuj1H4LMwGxLEx8ofK/0hcea+Dx47puqvPhjFWN5Jdty+kq91mDy6ig5LmX2s9yjdlaODw7tr9o1/JWBw48KQDJWYrfgusWK8K4PFBg/CmrrHnUekD6/SBVkx3BGLizMb5iVdKWq6x5E5rHcLc0TSswAJgKl/IzXeWIRIqO4UlDh+QtHx7vkI/Speyx71HEu7IaQL12y1FUV6mMzoqJgroo+pgF4NCYXRWCX1qs4IgQarNEUVd+bs+rXkoCDyZk06v5VlZxKHrh+kC/A/BrRbCmvHgRHP8B+CNXG3w5U80P5BVtKuIApZGXpHli2Ect/n7r8AwpjJo7MZzbfcavD+Fpo+vkCAcxKaePkhQr5Utrr9EvFv8DeoLHvr8sbzqd39vKVu39Ttz7//ABr/2gAMAwEAAgADAAAAEOK3rW9BRSIeupTF6TOssFyAI3yAEtpJCSSSSSSS46MlyIYL6Y+uoTl6Ru0xL6E92SAltJJSSSSSSSRwdJDZjDCGY8kIS2aY2o4Oqh+yQElNJISSSScKS5Ia1HJKFR6Y8uJYpSllmEIkL+yAEtpJCSSSTWEcY24V2NRhZJY1HCMvB+vQBOAP2SAltJJSSSSVGSimvuCP9w6iK03xsBjGcZJb6B/hwEtNJISSSSZyUQ0lv5PsObHWXm5OI04/p2PQLzXwEppJCSYKaST9seIXRPmT4TeG2j4jWZ1Fn6Be6qAltJISSLTiSeYmB7Zu/wAXTR6QRnmKkXuC1kAdFEBLaSQkkikkkpdOtC+8kiaUQGVDrByH76ZP0D/kgJbaSUkkkkkkn/Y0nPisMQJQ5D4AH5LckJ+gX9kBJTSSEkkkkkjWmHTdtwVguNHJuUmqY7WgL0C/sgBKaSQkkkkkmoIDTtPQZDhODVcSFdOQntBfgD9kAJbSSEkkkkk5ohiuRgpGRbtnBwbSACsmQL8AfskBLaSQkkkkklSNm5yU8Sd6/TZDf6HT1+OBP0D9kgJbSSEkkkkk3zbZjOAPf9eoGefFrhadBwJ+2jgfc+aSQkkkkklGDsLh6inItMMukWcghaZkhP0nPJ0pzSSEkkkkkiCBEUg92uIVgeOH/uVLLWEN+k6QU2IoUxikkkkmEJfex8NnSWQuxX440ObKWAv0nO7VG2emPMkkkksz/DK9ubiG2OyYLTTJbPVHF+oj9kBLTSSkkkkkn1wEkye9AZ9N2pSI38R/N6BP0C/sgJKaSUkkkkk61AuBGd9WOWOYQ3y+oFGDQB+gX9kBJTSSkkkkknqMQkqKvqa9fT8aFcJOb16Av0C/sgJaaSUkkkkknAHNX+Fj03tGxhVqGvVKvQF+gX9kBLSSSkkkkkkVl0g+fynBYh3+VTXK18V+Av0D/kgJbSSEkkkkkvB26QKsTN1AfgJok2+T6vQF+gf8kBLaSQkkkkknk7oAG+sYo5jOWN3K7v8Ahewb9A/ZICW0khJJJJJLCSR/MruKiwS2sG54xMlL0DfoH7JAS2kkJJJJJJbyTae2GLN6yD5Ke18AApWBf4A/ZACW0khJJJJJIcUrPOfHswuRiDa0zbkliwT/AAJ+yAEtpJCSSSSSQH7yno6Zw7d4HQ1bnhxcmKX6Bf2QAlNJISSSSSSfpN/GKiQzv1JElrWSEJWjC/QP+yAlppJSSSSSSdqSFOhX7B0NY3JHMiUp7RC36B+yQEtpJKSSSSSSNb/wcUvuzCpKmH+ly8ZWvH+AP2SAltJISSSSSSf6ZIwFlLdTZ4e24EWjyXaS/QL+yAEtpJCSSSSSS6+y+qmU7Fi+3G4ENGSRdYn6B/2QElNJISSSSSSZJl9X05T4/e6E5AjPuTlgX+AP2SAltpJSSYSSST/5zda7LYHVNK0AvwvSdsC/QL+yAEtpJCSb6SSSTdTtti/ApaNpVAPyLWckC36B/wBkAJTSSEk/UkkkqX7Em/RrWimH4M/hCk7YF/gD9kgJaaSQkkCkkkkokm3pIb8Dck0A/kbk7YFv0C/sgBLaSSkkkkkkky235JCfkDcn5A/kbknbAv8AAH/ZASU0khJJJJJJJ2SSQE/5GzJ+QH5C/J2wLfoF/ZICWmkkJJJJJJJP/8QAKxEBAAICAQIEBgMBAQEAAAAAAQARITFBEFEgYXHwUIGRobHBQNHhMPFw/9oACAEDAQE/ELly5cuXLly5fS/4ORvXHjpdc9BUjo1Xfzl+BAxvYcsSpgIeSfPre4A1zxEyOhNcj6/zbly5cuCheJfS+t+FDufxWpVd6Sbx0WoKthT5wR1SWsrBoH1uEa/nLly5keJ50yvEuXLlwL5cMzz4COqz3gPGtFsAWeCxG9dEDlnwLVq4gMXUqugPWYFfp3h0UC2FW4SW/wAtal2D1uXDSdLjSUwWEuX0AULIUFHgI5YlR2f8gFvWi76uC4uMBzFBc1C+YkMQ7PgIxzC1/MLNQgwb6XLlQ63LEkTXdLlwqA1LBT0SoahCIjctYKOvJ1FtBDet6oNGg3x4VaCXjWR5haDPuvf+RMjUSypoNG4dTFsCe9/N5IMuCjpcuXASo8yEldFy5fjt78Kl+IzZYwBQURq01UOly5VxVTcaw697g7EboomLk/8AerHjaISsf8Lhb+KpAnW+guANy7Uol+hLly5fgCSpYblF30JgLYImOmybPC0jm71QuvpCWtN8S46NyqAzA1bvn1l3Ly1xLKgILcOt9Au8/wDC4/wVouL1FWujN3eG5cuW2jRrmdo9L6MUTxaDGIdKJTECiDWocOB2lTCuN8QlxCjMQPBT2+8w6ioHG300HzhCMHlCkDPeFgY/Z/sCIFkKeltS7GjHg9UQKgXT43HQLf4BvoGDp6h4zijXGuOqS/A0aqImyLRiDjrWUagL0YpX+r2/2Iza9f6gqWjHl9PzPIM/Um1+fv0g4WrPfPv9Q2DZHUq7+3rFxWH3i1uwWPmQFX8sRcRzXp5ww2Nv1bgjKuJTTCZQzLUNzAPB6cxAFEWqx0LrPipAD+CkAf8AARTAdypqWy5Qs6k3lgtCW/Z0QLY43hKidGoagwEeNAueIbLmkatrH9ypt/qA6N3MSOSKKGOZtfM32xqVN1r/ANicEHDN4+Tv8/8AyXRu1rf39PlLTGuPSFQ7fKAblosZvsNROqIDUInS5+CiCCBly4dTfIlwJb90IC+j7xwWwRLIgAbYWFd/aLis5Pw/3KDF1Ve8wPR53+vLzmpyH7ecTpuHKBe37d4FXWF9POVwrmKQ3nMdzvqO73lD2ebvWvzAC+YOVeUSOB9D+/eoAsfyfuAC+bUI0SqOOmqzcYaYo+CEDBgwYMIQ6itMFFS4tqnKtykH6JbaoqNECjEsjAnIhXk57QchmNEB3za9IpKFOWd+z0mKnIg7xvvnJ37eUFtyh8j8w1hWJahrz+cPXQ9pfeBf++/KAslOOJgYftLsacnv394Qez8QwGHY947LYSgF25+CjBgwYRStkgwh1JcPHa8SgUPeIAXKTvCiRVRE+77TlKED8z9RQ53MDNX87cu/KEhS67QR2xc7KceR39WJqz6oV7+stWzDx2f6YYWUecZrzipdY3z8o6+Yg9f7fSGsFbqYNzzLqgLVNvnOQnt/fSyr0jYpmO7IQAMfAyG7hDooMkCXNdDoDYcS9FySy5f1MVcFHeZlpbDBXi8wYbzGE9iOgaZXMN0Sq++8RqYmj2+5xKwTMDNMn2Mv2hxHUKoacx2PUmIlKVjLfV7J2Iga3P7/AM97iCk7RH4ilWxwJCdwfgpCEIRLgsPMS+t1UueURjXaCRhyMpBSu0WNDcLiNWRK13VRcQyQaNsexq9jLCCz1xD/ACAQWhZ3Jt0uL7Sxjy1LhKYLg58vefnG219v6gBEvitKxLCZwz+2UJ25+ChAgQhCFQh0supzFSqZh7SvrKi2U7wR33lBZNcZj7kIqly52mEHlcYW52hubEKdX9oUmJkKhoQ9N3E1qAwyoNzzoFQM6x+Yc1ePRuXA6pb/AO95tFXRzFEsGaeftKCx5doQtX42Ui8U/qaRwG/t5/VJkExe4qgw/d1X1gzCZq4ZAjlRPNL/AIYQIECBCEOgxK457R/LQwSoRis8yyWlMUpTN7NSuYUYEVwhtm85xUWtpb2cPuvKWdyqlX5RYPBiX2iF4uSbmQcPe4AXhAQR5isNUXdH7v5ItDr37ZlgwADSD+ScP4+Jn2z+ppEQCqpd/NPn+IAbLDkzctUUpMfMv+7hV+jMXvU2PeLZKWH8MECYIEIQIECIo1VxgLXMZiAa41DsZRoYbvcrF10GhjUIKa/EKb/tK9OLIM9riRLj0+UrzLjEGvHpKEFxp7QJTFXGnKSnEgS3j/elBY5eC2yXuub+cNFS2PnG70PeO8NpZeDbA/4A4IR8TPtn9TSPZ1L7L38mD3qkPk1/csXBkH3iAd/6jAbu+JbDiDaxehMQICBggoYuUS/OUvH/ACqVKlQIECBCAEMek27QAKxLwVC+YtQbgvDDgVUL7hwTfR5X39ouo9/r1ubWh57MdDsRbL9fOKybfTnXzhoHRA7SnQePM6PO2+f15TUblSUXnh6bd/LcZWo3jjyiQDh7+7EoHk2/eZsD0IH/AAdT7Z/U0hdsyn4gVd5EvsVv6RfEB4rOvkQJSVEBWyCreYCPSs9dptByEK1CqiUv/kqVKlSoECXQo7pijXMsRMVUBO2K0GtQKVEFMraC24JeM/WI6D8r/Exy3/VSwvEa9PzCIdpZvhhjM2mM99QgdK3X1ILbD5H7jDmO6d/LylDE9Jvcz0sw9+MeyXY2OvKA7Av+a9uYFgX5fuV1KlDTDXiubrP8ypUqVKKQIAq5neUMtwRYg1Xt6TI/mL6JUqc3AGiJfDPH7lAiYZTEcFua/cyQo9fZBPCOyuWx8Mq4MXFtOpbW6/cynVv57+xEAongrH2bft5RipgXo9vfvGBC0zPMmSopDy9/1HMrrcFOIRh5XUZWleHsvgNSpUqBB0hSV77QrFglWBBlGJaAG7AqU3S7hmuIC4LyzG8G+IkMMGRopmVyf2iLDhIbO+yjCCeZBNMKHZ2m3fpBMoNH0qYACDsKPmUP03KSlYoc+3GIHMnPrNQQm3btucgqIltrtx0Vmx3rohVPgtRLSpUCEAkZZeX7/uDvkuuCjkwDX1hyMAPGaQWpB7wVofKK2S5caSmbrw4qIAbPzMsSry4iXBLObmpii6w+i/qf7F9EPL0IJHCm4YOYeIz58xTs9u0psZjo7du3l8HqVKiMiBFxEDEGqVAZFJ7zBsUevv8AqWZZfuZFaftAXDGVUdsAUQ5EB0gFKiwK3RBWv6RrDR95jNZlcN/mZhjDHQZ6mOjnHTcMJuypbFmc/eAA06XBd19vg9SpUrptKGZrNyws0syxT+iWYHMIpVwwpee04EOUax/s0kdhBISjWo7S2A+s86uvIg1JEtv0QrHMIWxrWCedBZcruis94jwy1k5r5d5SNVvHp0zQW1R/sSkhV1ecef8AUM87UIIT2fL/AN6lkVr4JUqVKjAqrUshCk7Wa94igCiZwAsivEsEalT5xWZa8sdBiDHM5GE46PXrPv6w1uozmbYxDd003LxiBqVKuoKIB3E5h2d/O5YXZxf6jkNDgw+r9TTiDxKRpbxKuTH4rFSl93wapUYkagkWgRyPOKhk9oi1TXRYorQ55YsrP1Za3HD+maliVFmGILqVZHiy3KP58oqUE+caa33R2lZB46MScTFZiLC/5BxgcRZUa+8tNq+804HM78tHYjnZWqiElVdeXl9JZVLFpR9YfB2YwzFpKli1gcKZi2xyMZpmehKCwpEhxcMQVvoYPc/MKAq4lslOIwEMGYAqGglyoofqLLdSlluC4WXI8RHfCARGXweYdFO2jEJRu+jrnSuOAxClbmcPb4Q2Vx+cLoI4YgazuJaviYiCUzF0IOCDbpCDlGbVr6n+TsOYGxDQ7gBoEo7gkoBRC5cJFgRKD01FlWQOGjtBaDxLvpQ5ANyrxEHpwcQiDR7xDi+Yz77RSybafPtMeq+r/UdKWtv69IRuUsMn4QlYIUHKUA61KzctleO02swBTEgCUFsClNdBBPOIrx0xLzMlSkZWpxzjFeUEV79Jwlfj6zmOZd5HL5RLM75p/qNO+MRYKr16RA1z0QWlSlW7v7SwyC+lH7zBe1wJrrlQ93aV1r0PhCpdTLfGYK2NwyWY6EFLuIAnU0fnGEOYwBsymd0qp3QAUiN4gGLiq0VjvXyj3aUHd/flMHC+3+3DQOcnl70yvWuItHHfmb2MCQqZdLYbXry9IDQqX1CVK+F4qVM1XA6NsCAInwIId78ogLYcQx9v/YN7GNlLuMFNwv5TSK0u/OVpTBLdjZ825zGOc8/PUEJMuDv2gla+0ogJqEz1LcEbW7NT1XwECUG5YxKj8ITLCLqvEoIRGnwBauI51EI6mVwFtrv/AJENALjP9SguPPt5Qyo3cyIz21MJDUaW271/nrDaJo7+nHthSFNff+oipmzjv3jTQMW8nmSgC+9/5Nonjsen9wZ23F6gWq8KEWMSzptfwYFy8eCZhyRuo1ADB0dVUwIUyktvHWhKZoxO49oehicFY/cor3lKzBWdcRyhyyhVN5a7wHSb/wDPnDn7VBS8K+XpCCiNpcTJW+HHnGvMfIjU31oO/QVR1IMsdzBFv4Ih+btx2guY39oCuDfpXsi9QRzo8G3o0LC2UBUwMdAtxx2gagtnz2QQNX6QS2O/I5hzASgU1OHiDMufeYUmHE7TVZiz8x1TJryir4Cz0lBQTFTP2vwXLl9Lv4INS8VZS0+Cunfp239dCZcwUVEzWFWt55OJTRV6+2B0YEAUQupqlvo9M6hYV4B2hdAGhxGxGvBZddXMOp8H1Bhgu4XBLVsAAqlNdUGGYKMCb5jFFuVK8KUVDRIWxqEU+JDuCjZFSr8SH+cU/wDQKlhnj6wuVd9pV3PIlTUAlsIoxcsAuYJQda82e3UWZdTIVc+JG1LALWnwixlEFL/4m2YjgYHeC4y92V/wEIyeDC2THj+h/wAd6gUohEVvUmUCiv5rzXR0f8HK+kwbjtMYBBUz/wAjgeIBbBss8QCx8WkPggop3/wpNg0fv+M3WJ6x1AoV8Tox/wDGv//EACsRAQACAgEDAQgDAQEBAAAAAAEAESExQRAgUWEwUHGBobHB8ECR4dHxcP/aAAgBAgEBPxD+Y4FexrErsE5mDXWoJL4mDXuJAhz7O/8AFGjEGtdAtqUL5ePzE6hADLMGc39Iit9wvQG+2xUSmu21VL7wtqIqewoJXS1X2lEZvppCJK38xz0qPaoJen6/ywVolDcadq9l9g13bYlQ9kio621XZlVtKFugW1CHN5Pt1C5c2MQ6cP8AMGFiRIK6XLjqXL6EavHVA2xRbOhK06uGKsDuAW1ERp62Ha0iYIHSGul+OuupGz6bXP8AM5ESJFb0uX0SUwPZ3hXegKJuHazoJgooiVHOYJgwmD4QOio8oTQ462ITXmLd7CkafxQu4AuBNyrqUSviewANkBdS2q6grRFDT01RT2WdIooz8MwFVNYtmAZiJUJqjoKLx2gwwt94QgR/h0uu25cpuZuhkXHsABHtRWRb6Bce7Itli3TFiGY3xdXnzBFH74lLEN/eX5gH8z/yGW2qmKcIqQU9hmADm9ggOrfYZSotF/xPjHbcucHUFRUe3XALTHD1VvEOaDM3P2uIq9v9zOKyVLczYIrus/KAvDUUo7wwh6j7RKiOEsF85/uPPRFthV5mYdEv+x8eZ7Grx2jUvFXf8m5cogOZQ1LIZYlNdWWCmorL6ArRLAxGxncNxZGIwDmYgaUNRRaRwu5QVwyq3BGyzxAC6BblHakwcK9JjlzKZaMii55RdjxxHp4mK9fcdy5cGX3MNxFRBRXTiHRCvUK6rEywuF2rlQUxzLY5CKqruKcMzJiJzFVKlvPMziJtisJaDcoYiOkmWm4lSh1oZcPuQYMIQh3XbI2riMPOVq1qIHmXivEDhCK5c3LpnjFcyopYaaRstliwlo4vY8S9FVX9y9W/8gVl0ME5qZHyJzQl8QqCRSCreD3KQhCEtVwXdbAsX0BAaOJQyih6ZL1B1A7ESXgwrzMdC3g/f7jmKfTP5/yUxpgOxmCwYYab0kUXiEbvLGUJKiabqCm2hKxVQaZneT+/mNXiKrb7jIaIQ6Z7m8xX2BLGXOJzKF8NShmAEC8MSlX+3FKmcy6GUUS79G/Tj6QlziCEVbf1uPM5ih8tRqftN0w1DepjzMOq4l0FymZqU/Z/d+5QgQIQjqUczgirrTmUJLFqXlOuX7Ra0sVGbVNB1C3d3cGpjaBYLfEA4x+Ud9mCcOY/klTTpi1ea1EX4w3EwKqViNZZgXGYnJNtI1kSvcgQIECB0z2gXJAKiIKyjzKwBRGwYDC4hGhcp7VFHl/EzL/rBNKllLmwhhFYrOQuMQMz8fDiJwPmo50rr5QAfdqKrqGkQ0+fpGOIy8FTh4+8ygt1w9I1T3m5xnD+JvC0AlrALSzLTzUuAyuWFlELIDYx3HEanyv6V/3+EECVAlSu7ZbiSX0y0VKWPw9fj0vD4hAXH5Tg4YtDmnMJTKhfa815hp58zTHSFX4/5BUrmWFEhLmAPX/Yirm0sg+D8wU9+0+2/ibwQCUHnMHNXz9owHxlhuquACDkgG3z9vMADxnHr/kuKGF5PT+GqVBSpXWhqt9ELRAYYhZxAqEvHR01e5Vx7sgNtzKQvMUYSgcIuQLlGoeX0l+fFRXxUQ+HUKHTLvpBwnRLmeErZs+MuXVPiLCrB2/tSx79p9t/E3mUA1KLSVhgKeJlGFcwDbnfyhCHJ+WF2V/7MeQVHBer3mZDh8Ws1BeRo+WWIC+q/CBqlPGfvGZrf/YBsOBbfQqNPh7NUrpXZdRSICKM0gMHBy0cagWxgIok+LKrbMuEeZkKXK7BphfUFFmLjitOjaUupvEvWtccUBEhX37T7b+JvLwVK2QFm4gjlBSOmABjGvWoBLbPT1fWGDz/ANiFreM+hH0Lniv9hgHB+WAI1n58ywQ0qvSJZF4hUDi7+bAEPN/pqfCfZVKlSpXVYqxBfmCmDUwkoMQegV3RELDZzzKBz6QEpmofWY2JVwZT7Q31tYJZVEmH9P8AssA34em1DBv/ACJWGbTSQELiBuouLfRhYWR33cV/zKlSpUuuiLNzBALhEOEUCQTc1KlpbEWCQNUwdckCbqJJpHZiP03Agua34l5/HUBllxwL/P0IrpZPBWPo2/SCimTI/vPmIFG2WrCXCuefW5YcPH+yunMeJUW7fP8AcNdjGNriJcREGjcrWosDqYvxAeZ6ktszFVTDwRjzBkZqfKJUeGcEWjyRmhWP36RLZKtWT5icxEAFAr6VEYAieBR9Sh/rcSKisUHP6+IBDf5j3cdTEFgLXXQh02X7mxXSox6JVPEyBlIoQ3Ba4jBbywu8SuzcpzkTaDD0GwZkimuEvFDWX/sTAtDMm26+Ep1UU5nH2AMf3P8AZT2Wy5hQtxAKl9bcfaYqpcNV7qSt9GVnMo1CPrDRf7++kuXeYAX4iAU6BduIrXLlph3AQZZBLVSyEwF2cRwrr7QWrmImnx/HV7IKIxHopLohLxXQYMe7GIVKl4qUM1G0uJHERZnKIgqai7QUosmiSrLREu3f2hB6DT9IWKqICC/GNVr5QFSDU8sYg9Pr6yvp+sp5j4QbGhPMsPR3iJgx1aA37pTpUTHRUsjMyiO5lvhlVTO69IytRgtHJBb0YvLcZh/ScRRFTKRwfREqV/xM+bjMIzhBf+nwjrptPWY490rERhKpgpiqVEJUCWM0sCWb+7CH9DFdQCwQBpvxHV5lNRjyePzLGaP7jVWV5l4gaGGDmDzgZDq1XHxgOY+UoxmA8yxdSZj9Ic7CzfL0jlgjde/jzH3QAuE4YLqo7FzDLMc66JXQxALJjJ46VKfJ94QsNQLVwLfwiMoUJiUNEQi0qLB1Qua1VKdEpIYmgtRtW5Vh+/DpvMQ2jMwa+fTAPn/UcaIji90LmJ2lSsdEcHR6F3iWW84GGcEYY+3+QF7hRBriNStznESQl9P86NkzHo2QOUKCFczd4y+ZRgxGpUQOXp/yLuv7f+RUBthLEyM17qtCu5FRFtSlZuNvEcS8RihqHl6TMK15nGL+XMp4IirqOOJ4GJqFUuiDMvo/8gItdzWNSmr6MoiVUQpYzFvqWFvsv4nugLhZUodQPEtlsuaOmS3RNlY10sg7ZfSKrcMG9wG1GoAUblF8GPn+4I6xHyOnP79pSw3V4iJvpVtTDEt7a6E91UvMUNG+oFpipQ11q5gPEvDEcmBEVOIrOCNY+E0x5Jm1w39bmsdR6j0fiI0YMsWCXbUlCmFGDXM+C9ouYijKvdLwJbbc9cvselrCrO/EcVBUoAUxXKJTC1ZhjTFG13HKwlzMA9fvGHBfx/yDW5foS9uPsAVohpplrlrmsfclykpCS4AMbi30Acxbew3Dwl6Xz9CXHM+MxrPCIIMIFlxoIVlMVdsdaI1VuXY2K7ERp6ILexVLBmUJd7lpDlDUjODsN9ClzEDmMNxBGZAc5IlEX1faAPCN+4c2Y3amjKf8lWqZ6N3iNGrqZPSB2XWopbemPzXbfuZfSuh7BnucmMyJ67/cHoyyWLj9RK66Ex8QK7F0j0IIh2U1fUxEdvufcfCelDklhBbEUim+lTUfCXi2b7Dk3ALTADR3CNewEe6rSSnaBaJfFE1gDUegEFBHzCKu+tYvqFtRFhO5WuK2/dB0T2KKifGIncuX0EFdgcO/+z2OlQQcxjYOqKyLef5p0fYC2pWjaKuX2dYvuBVESmu5Rvu2j7kv2JQx/GKvMzdSK3/6b//EACsQAQACAgIBAwMEAwEBAQAAAAEAESExQVFhEHGBIJGhMECx8FDB0eHxcP/aAAgBAQABPxAJUqVKgkULqVKlSpUqVKlSpXonpX6ANgZimB8fXcirAaYF1/D6Wk1I2QDJ9xmJnGTj6FKlK7KvaQDl8M0RSPffq8CIaOM6jRZQ+3jcGW2h3xsz5i23+8CBKlSochRzcqVKlSpUqVKlRKMXF6XVypUT9F+l9dZjcEI3DYK5OarxMgFLvTn0GDOei4q3+0vnVoxkoBqwowdephCNNmeYhbXoBR3+ZfivAaNDXsH74g9AW3BMW0ymzuVKlSpea2TwIkApSmmVEiSoBG23niKOInonqwQDa0TzIno+mtFqxn2egYNYGmD1ZQYFMZ4UBDvZSOK+G18yxvYLZov0sXA4WKGrqzmWCwkULfbFRyub8voCQigDKzFWGS6AzLwA05LVv7c/u0qJQZVYBr1IIqh1MPQkImGXnRlSpUEnekpjUqjaraxIkqBOfmWKZQxPRPofXLYq69aEELZeH1axLKtUExzXW0TPz1LK2FaJXJ7Q4WdZvuAS1Z0Q8nXI3R161M512ss+I+ltxKed58fpP7LN5XUEsgp9CCDR84+gAV4WFQnhUpiRIGYHK5ipAXB1Elf7SQyVqoQqhhm3FbGJFOBu75j6VSmDtZzuCXfqcc7Ji7JUT1q0MPmXkxZfwzWYgs2TrbPzL63WgvqOmijdOmEQOTGRm4tq+oYbYfOVZG1C/FCfmLf7wRXzk9BgMOj0JJINKxe4pLp94CP3YwwkSJEiRInpT7geYvmMT0YxgzXMLle422WS1nDFnTzKuV6Em0NBWIm4ZQWiNgXpIqLFAyx3JTpjEShFkwGaELLhivx6hcOCcmNeRT8kuRDzQiZ9vrC2Be4gsyftQKsfeYtaOj1IIZagDKJsozmUuWEiRIkSJAC5dQSoK9EcistRiRSC1lSKYkLkd/Kjut9o+tS2DA1KtX5LeILVlTzHQmIVgWgIj3jYizSAro43LBa4VzlZAjTMAahR27iANjZFJ6SWVVl2Rzl9VdAkWoB8uIpagqXTX8XH6wggWVEpT9dCG2CULdrHNtGz0EZVWr+kkjJ2ocTPrV4j36SGYkSJBZk0QkSJEgt6HiJRbW2VcqVWwg5BHL2lqsDtg4GQhz7QQASnVQpkrxqC1EralX9ChrqKgThE4paTzD1ENoYJiTKIA2fhj7xeNslEXyszESzbs9uNy6Fl42WPuoIUROSIBOYoaSnz6ELsNAw+9whrrmNj0vo+gbq5oXNvJ+IlbYit4UFNU8P11SBFGWb/AF6lhnAEdU+gLLs22xf0nokp7Rb1HuDzIMxIkSLemqi7Ce8ABaO4QgbDmMSCboXWY8ZBzjUp1uNmqqIEgayi9+CHsRLK28WlxePYN06wut694oWiWH/1kvrABKKec4X3hAApylWKSgKz3L4kQ2vY8/f5jBiK1bndUV7wKRN0ABQa1n2hWlKtSHm+fv4gGQVubYY8+0yoFDhW2YqhEXNoX5iZiRjDmM9h2u4Kg1rheawUduJUhMw06JmxQbUwm/bX39H0Ffk10ZPD+Ine1tqoAtUWXefB6AEKy8NVf0ijZKOoiy/sRje4bTrr9FsoFMLmkRlMmoi1WOabiRIQtYLWIgsZ4BYkJna0SioqUC+z/sUKZVc11CBwUAUqX3dtYuVr8RbG4MqPb8Qjv7hwmOPlhAGLGAvhzxAxrg3/AFxEGqulCyzzHSwIGeCuHxUEBlCoPmYNcXUnY1LAwKQ0PDgU4hDeaaDsVeYERUIgVbNVrq95gNqpY9V2vuOtaUuVtkl6QF1mjVVe68QEbcANrFSybCYqONvqx4jH0ApcOJgnMKg0dX/y/ExWs33/AINhlhgQQRIkYQTQKqA2pcHLEgEDnHDhe/MCAtWgOYyAiNI8Q0sbyai2aqHK/iWEJY8N/wCzJHd0tRVijxzvzLiSx8qqFBQeauXnHra8goxvbHzBoV39hi2ElWugYXOUMT/nOFH8X4isCsEsGglCYungfMQuCJsXox4hioeCdjF+YfGMYpHu7QrR9o0FZmzinczqW2G6F5+YVEuciyu11/dxcVekR+GWnSyh115/u4Wu0tlTKVoLfQ9iNOvL3Lj7AYFYpv74/wAOIIIIIkSJ6CjlO41ltbmUGqQFmowfxBSm5LEHky5pveb+0LHqyyrY/wARtIrzObH5qYbrxrU7JmZQuHKslRQH3Bc8EActMqPzBcuWjR8sNprYC213nLliLArRmvjc2EqOFg1jOufeEa1ikwFWVmWeio1h20wSAoKLAcZjckgmrPJ8OI6XKgNWahswtqyxXX/sD4Au1J/9gmwBxV0Xd71Acl9RPHyn38S8tWuaKhpleQgL2pzLwGqsjJBM2lslm68G45b+h/wVCCCU9d71BIkZUqdwhNB/1hozVHGUgQcZpQHrOomBUVdC8MxpFDgoBetQ3GxabARrOzsWqxw7gyToG4cZsjlTNUAkLDlY2N7Qux3Zg1+Y0FIld9Fcw9BHHePbgOWWVhoNb3DIfeEv3Rx8W+x5hPoAyryGWZLPAgb/ABMDUDQaHO+Yb0dJTo1Ob02N7Ssn8dx9CvnBcu5e2/u8BWQ+ZxIQuOovc1IUWNdZGIhKMHgB/IzaFsj1yYWqBspLKfeLLgqBhH9Y1bTZxcSxW9/4Mx6Ue8PoEREOgXBMtRAEVfoYx9AG08movEPSO5aaV3YUKl585lLU2rRmUBbV7nhPNy/52rPLWPEPlQ5m74+0wfKicDq3mu5crBa6+XsagRPnBBYyWe8EaC7TpjuHmotFmTy6g5tK2qmG3eyxeF9o48kt8WpRXy6JR2ZTphv8pcWWZbYKQz3Z8ypt/gyj3mUkZsLwwM9KzaK7xqHXOzT/AH7wkIOoP/fH+ozNbN3cpxIaV2dsuYKLxlAWnJEGr8/FywktHUC9fd/wrj+iXTAW7iSwYXiFzgbOYxgZZCi8sXihoDMUTEDZgrJxYRuqpfVZQ1noP5gY49mWHjz8QAltVjW58TgqvGYC0igvw7iVQN9YVqtxiwUXd3BhUqICMimI8IHQr09kC4FI7rw4iywePu1ZSpYXAfKVlY5GsJL+qiyl15lmGIHxcxibBlkrTMARgFUt/niNdFP6dxcRHJ/NS2NXbdDj3jEhrq6sjBWHZtVf93DfK1y20RP2T9T+sDiii9BRjLKBYbepqsacERQ6R02Qw0ly4R5vicUmLC28u6/EwRWnChX/ALLotYUz9pdgawvFzGWAAU/+sS2KoAF33N82oG0qJR3TkAvMZtGSuYxfImYjixqpRZelEc48OIlKCI4oTqIxpm4JWGsM8S0ycBwz3M3RC8jhnxuXdbUVhLtgUQACvUUlGytqi8CWEy4OoHKGPdLjw1mDdCarRfmsr/yBx01MN0XgzzGou+ZoLFFZTyuajvyX6XyNKnUbox4ZtJKzVwKY/WPa4MosxBpQb5eD1LTzSfEdgxBazV8RDvFSGnPtxKoQRsMpd1FBxKLFZq4OQGiiq8EoM0gcUWicQZANB3ya9jMSyxUdVX/fqf10FFFFGMAAgV4OJdybSmxdf32lOFZRvRGeEDie7F9IOSxzePtKR01Kv4giKoVuV7jwQDU4pYlu4G16PM4FL08y0AxKA6feWIsXcWkSBucBt95oyF2snLnD4imKcqrX5FcxmBRbSlX8ejGYNmsFM8RK7SpODBkgo2TI9zK2EFUrQ5A76h2JYqBXJ3ph0vXPcalhJbbUXddKAbSZWlsf/I6eJsTZh/3GMzlvGX4V+8rOpYFYI+j9N/TdRvmW2hou6LPBrymNRO8oJvTx7wYZtELEBXDoqCZIoXit+0MbetUvakEO4UgFuxcXNJZSsyVnSxFmOup2H4ohO3ZQscHL4/ZMMsUCgob8RRRYxlWxj1eQavf2igURkv5QFC1ABWoWPlwHF/xCcM2ws64g2l6FWx7VA3YERyY8XmaXZd6gHAkVW8QFWXnUbRDRkD5lnaml0feIsWTIPlLf0Atsl2ONxwFEJg7gFwSgty4iLqsGEudpwxE2lQK0vmAoxvlPSmAqUQQxjuVCxRYjcRXmVRknA/P4lo4YxHBGCxWXt4mvy4nx/wDZjGc34V8ceYe62XwnnplcqgugO18QJKogq7+T+CLMfrv6bqN8sZNq0rNeTddX1LVW2loqFeyClXzEUSOTsls1pl2D/cFiOgshgyc6iErsIcVaf9vxLbrT3LH+pcrU6BUM+MzeQJXvcr9VRqh9uZeotzY7D/UGil0L5Fv+j5jiNkzg4K8rcBYhbJ4H38RwtXtjYdVBvwRIKp+bibs4RW/P6dlhdJe4sWL6ru3zLH7Rtq4JH2gCyYmn/wAm50mgNsOdRlhzjj5hZV+0BY21xw/7gDlQF333KAbrAVYc0OPoiFVYGW11wHmXg14GWnOTftUKMDIVk/8ApAbi634upZXJZeI1R97lkccPcvhRjkWM8eZu0Dys7fMYlYRuu17kxgcWUGvH4l5TSGO93uFqSKKMhrEoNgBvCqOnO/SmXW/tu5sYQMRbMuNVcKFVXA73+CAUaioK5TK3HVKtK0y2L+hf03Ub4vvx6KJX2h2JEB2yLMXpG/aqKhGsvCyhgoCAbqhbbqXmcg5Iw/69mZiTBctaedufvG8LhRHJM35inGwCvAf9RTJuDuOH2jVjUKB83LBBte9n/cJwMAeW390tWXmtONffmU8TUgXbluVIUQNBWz7MLJhdHCAU/aNNIeQ2PH6kwwsWblsZzHyVLAkpHT/f4jb6gJecxSA9ppkgAOgIWAUN1nFy3Kw6Hh8RrwBQMonI4zLKnJRgV2vqCuQ69HuWm2gWlzrslRPFDxWc9x4CkLZkj7Z/EpiLsBEo++fEJqgtZ8B/37RkgbpbdS/7TyWdLUIAXHpZDoUunjGyKra2sq2BcvnV3rDxEB3wP8BMVkN2x30sW+tbcqv+wFoXwc21ERp3LCBATk1r3hms1tsIbOMcRERC6VMnFHDhxjBOxlDJeR1VRYsZRxt2q4hSFF4Oo/SEgLyhU/EVd/u79RYgBVCmz0vKXS32lVLDcm5QeADLCi0y0hHPESlQbEur75le4LCTEUtvJjGK5+YovvLWhZbRaP7uUvW0LVHUIYoSBjJg21IK9BogYdpst8NkYJBYfC3MYOJaTiuK8TPC2jLfxPmIn2r4gQRcziuMxcC1gQLw94uMIEu1UcCG4ZNKHILVHu/xMEm033+WI4c7zCf8jgANiqvCfiWCVi28Y7jgugJlk4mNGEootZs6cQEE067VjvOJQbIhtydnzMIhlCPbxKKK3XsvHdfT1vt+g/uy5cuXN8QY9IuH+9yw+dfgmTzXrT7S5bMA5LrPX/pLNnVsH34l8KtUM3xOP+qyh5fmXVAtW2dJ4/3GyjssuJUGEvmWagFCu1HiPZBFqpZB9ysQBsR0wMiJHcZkalc+1TBAQE4L/wDIoLeAGsysoRaMm/8AkqTHkjBTIGTjVQEJgMAvvFEqFt0bF+LuXHW3QrwbigYVrgB30F5jkxKkX1vEeKbxviFNm1hUvdgKByLDF+ICycUNNa44ja258wQzVDLZW76iqVeoVriwXbwfRbVXj/AkWN/QA20QbC8iRyWAiX9v+Q9DK2WD/b+0MHzlq61mY1lbc7itxa2rgZbQCge48CrYHcWaEX/SVlgGKVUXexQzTpQPRxFmpY5Z3xLjABETIkFUzMyBn/UU4Vud1wgtasZBLGKoQ4PSMRhDnkO5TQLg45k0Jq0VC/ELCUbFAFZG8VGra3VZ+Rllt5F8OxPtE8t4LQKoxn5siIXSnv2QBsMijZLExBnhzV96+8FlFeA5w8xATnyKsvbUCLkcjDVB0Na/w56ioFNX6NX4QklQuXqMvnQuv+xgHfN/EokZXtr++8cpDQle58wGihx9zP4+0CNy6ztihq5G3NRk1q8x1oVbzIrttCuypiLMZNtPUC54I6LjDAbCR8DcHuJW33ygxKPhTqK8s2A6E5XJeWxwQlzOTXj0GKsCWDA+UtLgKDh3jmLuLcB+hlEX5mFCFe04POQjKgvJT5fTEpfKxVcnX+HPUNtsuYME1LGqlYz3uihuu4NCkRVWe+Is4bSlKORXfEeSFlOzAIHeV5qVuopoCcsKq3t7gXwyWXxFK+YmPtAkTLt9oByBR8oUNDGs41vqUXWxYeZf9EBGGkYzYhwCNW+TvzCWZch14QaeVgNxa35jMg2XmX4hWqXJzO7jw8yq8KOQu3cVhTCyVvp7eYrBUzkW2bc//ZY6onFqzF1gzKmbKBZdOhyw5fZb2vkcMO3KaGRzbWdQAgbO48pLM9R3XFevPi4Oad/4QZfouLmazVWl6nTFgq0ZWDJhKHCKz4czSzYLOzcWlW1Ew0Nl3EgThvMC/VAUVtxMcAtKYxGKNgtcxLRWXhGKQsNl3/7N5pPYYVelT2cPo6QHuUjj7SqpS6KgUglWbYOYHMgXTCq8w29mpkrNAstrxGBdCqQNf+y9oaqjYM4AtqMZcjXDBF0qTdCgeYceF3BrNCGIkKMGaFVhHZmB2u4FN8tiHjOYCDUlWb5PDCTlnxF9+r/g7gwFiwJDbWpcPYAujuHsxJiVk45ipLk2WInK9QSkMLbI+HrUpJtvPTMZMQtcu5cMw5jSAtKcr1DgKmMIrrULATDdL+SvEEWOvJWI5AOOcSgqByBKNFkZLvxFVHcXFwVaPbuVMvFZfFrGE8g9Nu3y+ZfSWkqHQK0Z9GW8JoBOXvEQbhHFQIwyIXL5YWiZHoxmotBBpgvi+YsV7Sho8L7yxq0AUrs4glQQx4ub33j2isj4rMVqv9y0xIGw4LcN795QcE3qyaZQiMwxbVj+6f1C1o3HBuhRKMRoN2rWuHxMOEmlp5OmVVQU2Ug0Yh3J+V3twVRRGSOzEBXFcZ/3Li01cKCgoLWgi7EVVZqM4lChCspUDo4/EZQaIX5V+ajfciUSyIiV8dRXdar4hcw0gzeY6btqz8nvGYArpofERygmw9o6DW0PueYV0mxGXzGqDezbFdHmJlkHJxXUJpaNC+Lln6YxmrcxTSHa233LjeEWatewjhzDcWTMHRc2wacvPzuVEEgPNB48C/aHmhAENWRBeSusYy58ftn9ka9QEucOqide9Gj4hYWavNRWqLXsrzCiiswDj+kbKscmIoJSNjLGMWU+DHxcuYkDgvMS3jJHN6epWqMYFuOYwGFkoHDfD77m0PRD7rqDeF2xoeffU8yjohFf8bEqBGS8QILtc6ajQ4X5ItQBmRg38IFJWTOurrmCG0G0lsFDKrz3CRmfIAHRftGsx1OOckJWyiGawQL1A13QQBpGxgyoVyyHxqLdaQNB2uM8QZuMA0mhPMGtARVawJXPMLq1bVq6dIOcJS38ryxSwYzfcvkrU1C7a+P0n0f3lE48hn5jUJaoXVXjeYrIitBR9iXLly4qGfGY1gRStlK1FW5AteiGiXcE4qj2xLWONWYu3qYgWxEtng5PeW7jJ0Dc7rLOfvMMSWqwamgjqwvtDBXYoYuCkpxFu0Wap+f+y1g24ALleYgIB3sMGc/3iKauiAz8B1LTVxfKVoAobIl/6iTxDa1fOxjqOay2Zq6KhNFjSqoYi7DWppg9GJcBz04vmAJnxtea2+cxG8hnRa0U4MP4iAR4Fr8xtFj6aEwbvsyvW7x4K2K/wV+ly5cuV2d5VESZBuxGr1v23DFuu0Y6Pz94A6ruyh0zzLhSNRalrcCgipGmXFioOLs0bmRc00J9yBGrmhBviVsyDFuoltIdD+YVHVGSwXv7SgiWyF2+3G4pjqqoPyPzEXmFZB9v/ICOa5hcWO+INFCq7tF8FZZUaooj7lPxcF/qVERoOslJrEpogLurtvfiAWbylJeHD3MveKzFps/JGFkEKKcl8SsZWAL/ALiY4NuFGyyvExPALVtBR+Jf0lRP0n91cuX6XLjDIiqKZ4j82C4B4jasGOpcvj22LjDV0WfQzmEulJvh5CAQtWgiUFSA2R/BUZsVJi8vtNDhq7t8ozmnstBe2ZFUQFcgm4heduZqqvYPC+Y2AtKVsZ2f3uGQ0+wH8DTByyFIyc7CsmCoFsB1UE+0RWX2f+CWANBVDG2Fft0Voqig4wSiqAp8wdAo2BbOR4gORa89/SLZQ5hhalEf8JcuXDLUMGjZo2S5NYbXIDjNc33EclvDGxply5cHdXzBCWtKC1CXpqF3HOIkkN6rh3iPxei8OzOZgCgMbNWOsweIbKuc4vqjEYqjfOIYxjbNuCAvgzEBquI1ZnwPaOUFcKi1o/BriXPXlhnoYzFCCkWUG24G1/mPC5vldVnaoyBi2lv5HOiW6szLq1bweCOsRqACvt51FLjMJwWhbQWv0MIG0oIJipVMtcvc0I/4QLngioJZeS6iXZqq1/LrUtkGJZWHiKKlXay4NthsqyWAhwdQ5rYq4HMuXDSAyI0kVWxctruAYvYkFr9kPiPtv4MN3e7jqAPPxek8jMmfO+48/wDsBWXQhdraKbgoJEvBQ6OqOItUgFuTZhjiBuSoWjfKvEPSOBcGvwjYkWrzCnB1aoPeKmOx41Rjzr5l2I9mNhdw5rqLb6UrRmCmmlWGmn0PNM+jBqUMoZnNLmP7Z/VBxlR5fg14hiaibOWeNfmcSWb23z8Q2yARbpNvzKlGynSuPW5+B6Ath3S6h2m3k1cQpChcEGNEVGxwclf3Udok5BWPYSvtM3OZaujR5iCAUJnjD5z7R0qfLjiWtcqzdl6cbi00LBNy8Zbbs8RPvJzmiUpWRrLqcSi2vT3GUpu2G7DNZjJQWpVd05jLF9bV+HEUUFeZieOJlUC2419Ay4wsbHP+DFGxg1FPMUytLn0v0rry+lr458Qu668+grIQAT5GKRVa3gqFtqgiwVenrMOzwa0C7Lt1xLfcXl9hr8QyiigKDoDBFlTA0GFGIAAG+/QabhMiAr+Xo2QMqX9orP0DKTHcK3IfQ6DgiNgUnJ9F2RTmvS4Nh6zL5CgoUY/w5uXqlEEGP7higGV4qJcGnhhbezDFlQC1T3HYLNDxEr0DQqIPAvVsV8NwLCt2OcwcZCg3dehYv0OicSxqpZp2npKzy1Rv6jkYvcFGxpihVo/SlIU8/vqXj9QBWEt/klYdXoP2fnUA4y8x8SmglgqFwvkFdPH5laCVnS8fmXMJSSLLXPe9s4wo6Hz7+ZnRAVQFchwwEBA4NfxFxrS/Naly4IhLimBl+jJUoWgjQVWS4Hs+rMid8tbISJxXw3/iL2eJQQUs3+iDW+gIgEx06dU/Eb2V2lGKYwY/P0XL9aGep39GTrS7hf1jYI5YeP0cuaLJQAHJ3L7Nq916r0CWWXEotrf71Up6MF+hUeS1wHd+0s+THkatJdlocLNfMI2DZ/z679LiC4Kpnk8/VWlaouM+5Uy5cv1tRVXSfVmDRRfH+D1ACJt+gMZWpF0vw2/3V/taU7M1M/hlc/QabILaQFvX+TC4NKVL5v8A/Gv/2Q==;" vertex="1" parent="1">
          <mxGeometry x="479" y="40.579999999999984" width="200" height="112.42" as="geometry" />
        </mxCell>
        <mxCell id="-ansJqmjGRNbWr8opuUd-12" value="" style="shape=image;verticalLabelPosition=bottom;labelBackgroundColor=default;verticalAlign=top;aspect=fixed;imageAspect=0;image=data:image/png,iVBORw0KGgoAAAANSUhEUgAAARYAAAC1CAMAAACtbCCJAAAAvVBMVEX/////qqpfvNPmmZlWqr7/p6f/qan/paX/0dFgvdVVudHklJTnmppPt9D/o6NVqLz/y8vlkpL/9/dJpbr/tLRZscb/7+//9vb/2dn/r6/2pKT/4+P/tbXvoKBct83/3t7/wsLt9/mz3Oj/xMTH5e7g8fX/6entqamf1OKQzt50w9fzu7vS6vHwwMD3z8/1+/2s1eCLxNO93ufur6+o2OVuuMqY1eWEydxvxdqazNqw1+GMxNNrtcidzNm93OaEeY4JAAAQWElEQVR4nO2deUPiOhfGhbJIAREriwuDODAKooxcFfQ67/f/WG/TNl2Sk+ac0IL1zvPXLFDpz7MnDUdHu2s1m96+vG0W2zLTdrF5u7+dziYZXLmoWi1fNg3bUzkm9vd2Y3s/nR36A+5fq+nbtp3EIchlU56v/0tmM7ndpCOJodm+/EeMZuoyQSAJ0bS3t9/eZmZvKDMRyWyWh/7geWpJM5SY2tv1oT98Xlpu22ZMfJMp3x76BvLQblA8MI1vZzGTza5QPDDb7xVjXrKAwtTefJ+stGwYBlpAdvu7hJi3rEwlALP9DgYzy9BUArWLH3pvszWVgMv80Le1ozJJQLLsRpEdabLN3IG42sVN1cvcoDAuRc1I03wcKORyf+gbNNK6lysVN8C8HfoWDfThNHLGUraLl5A+nLyhFJHL2vmRu7GUC+dHUyfvwMK5FCnuzpzOfqgUKk9PKp0f+8JSoLqu1+ntI7BwLgXpA57350KeGoe+YZQ+nM6e4m2gQqTpmVOp7JWKy6UAYbdX2bOxlIsQXt5NjMUOZchla/x5B31fgwwZyHJdiGYsbGPC5v52yrR+mS/aRuuOZDc6+zU+vrku1avVui/3DxfXP4+v+rlg6VVIxmLb8+kqeYXZy9aADMWN+sObi6rLoVarleJy/+5Cqp2fjrM2nd+uC+GNpb2YgleZ3dPBbHAfcDC8qdWrAo+kaq7hlE6vMqQycalUsAVue6HeubIir7dhit3B8NxFkkIkhqZevRlnheW542LBFbi2DVsK12RDNBhtUTe+RjKJrObmVxZUWMmCDLj2ZqW72ppmMOlRd3BarVOYBGTqF8Pdsby6xoKr+1Fz2BnNXlLMpX9Tr5KZcJM5PduNCjMWXMBFTgMmJC5Kc+lfGxhKpF3BsMiCmii0X5BXpHEpw1BudoLigakfm1PxjAVTtBBauyUlvtjQ0vTpzlA8MDXjGPMvS0OYPEQZBNyS7EV6+7hmGFNE1ernZvXvihkLJg/R+roFgYot1C6D3YKKAObk1ATLh+dD+tBCHEpPKG6ULHXHpDJFr+qFgcGwbqjS0fuQDb99NVEUMvcEN0oY4k09Uygl5knk0Lv0jEXvQ2AaXc7ttqsF9H8rvLnY2whtv5RRVEmofkPE8t7BhRbAWCYLfudgR4A2F3sRvWmYYVSJq1qiOVKlgwotQGSZxc0BKH+x0SVO5TRzB+Kq1SkdpO9D+qqlLXXNwl0DpR4uGdmxCV32YSUmSoB597HoI670zq0WHK52aURx5TqPsBLj8oDGUqmgrEX2obV8z+JLUF5kh0no7CJfKgQufuGvj7hiwXV0JL9GHighqEQ2dnaRT7CNa/QPDssaiaUtFifQ9jpp/jjXelE7zGD7oFIqNXFcvLGc2z5rYwvmjiV2gKMlFdvmshcqLheUHwWhRZufpd4ZumGpeNHu2IySUM7RNtRl91FPZeLnIe1kzhazLxhNpbisi7l2aF43e6JSKrW6T1osUweZiMSJyBS0g4V4/XQsUWDJr4qTZXW1aya/Ayy60CIlIrgkkRqE9IuGnjk+2R+V0sjq6lbZ/IirdyKpVIP7HSnmpte5/FX9PdqKK8saabD0kNWchAVOvRKWTdo1QwvcUxLiurR06SjwIa0TSYM5+H6RL/Nkh1XOz72F20CW1U1tGyeHxMIt62q/LlRi5mJ105ZKZofDEk21Upfb85FlpVa7SwcbWzLHEq4i7K9iicTMJWWhZB1goWciZMhVZqKwIP61dxdislx7UWP5wFqLVLcoErT4A5QXDKv+PWehQCMrLRv9wVqL1O0oJkziD1D1RGFyPj6ACzG55tJVbvbAYxFH+3ATKBb/yuE/N5azA1EptVwudyos79yJdB209JwLrlWcKbCEPrn3koXrkpmLqjfyV58x8xapCUQNFuCGMkpDg4PEW08uFmUPEGLRDy3Ft86BF0n5+QXGEvbjZsZSBUQO3CNLXetyJ0IMLcUMDRmCZFKK/MwZmxlLHVoHO6UCZl6kii485CImC9IWFBmL/Bo4tIQhiHwvnqrQndDLH0sdXSIsGirA+FquXKSqRTGzDC3PiErtJ3grZCwjtbl84LFI9ywlX3nt/g3GwrPz0AhLHf4N/6RGF8+LuuDC9DrEol+DltbexX2m8l4pRcDl+MwK3BOQikEfzrA0wXl32CoidixI8VToi2xpr5QiPfOJgtlMrnYNY6F7keUJulQ4WDBamz+aR/Ziy1RUeYhHKcOAq+p8r6m25wWXJuSSEwIW6JmFafAgkd2ey1uiFJstQx8y6xFPVPMjcqTyggs8d4mw6PfOAebigrlfLBYb8OxKhbHwms9solC7UFA5OqOuHnhY4DEdH3GjdlrK0SVNqtNOeB4ipw5PVfUelXPqBT0sTajSDRZEMAWdYlexSitFOxSuT5bM8pB6qxd5RuFjgcYuvynBhbQxV/X4DG+eDfNQSf0T+1QvGvlcgEuFGRp5igCaiqJJjNKz2fypmth5fJUcJFHtz8cCVXSxVITZ3W5jw4v6kSIeWsj51FM9AeI4GWioGd+PuU1opT6MubjniWzck4Xqw6XCeZZZeq4nfsx1srSj5jYfiwWl6Cjm4p4+Q9lLykl+vIcwDC03iZ9TS1Kitp4BlhZwB2uaFzFpTx6fp2zfsIN3m7WJ1UQ2HZwIeemGaIIWKrggn2zVPGu1LKdtgeKNuFnVkmwTx3WhExgTWVvqyiWign4O2i6rn22daQ595BGXXHsxCW3iaVWcvRBTdIAF6qL/xMwFicU7Xht8LGSpPQmTh2yj0CIYx3VNbAWI6c1Sx9yociGdsWC3gUboXrs9mc8r+0ah5SS5i+lEahyJESvAAi4AxLyIdtaPLRd3acHWf0/QPhv1iYJtsGQmjOoGNC8KsHQhLO9m5lIGe6RbzRkLPD8bJSKhTWTXEDtH2sCPY4G20sVGUURzgR4xWt3Hv2REOteF52ej0h9Ix+KsjnbdAEsTXIzuxdyIdpAYfNTg9H7hPZLWbjfmU6E34s2m0bqZsBLitUDCZJfWLnIs4CraR9xcaMfOKU/TmMxm/jc4CWsivFE0KVuEbOyPncS1NBMnaoJz0FUMC7rUFW5TrWQQ5m5n0igK4dUf9YujXRJvjgXe1v0e50I8pVDbIiVHlxyLSTUnNEB+vyx0SbQUx7HATwHEGwBy1NWdL5AMLhyLwRKRCCAgWxN+HgFLLR1LfHRZoR7fqOMiBBdzLFUhMAbBVZxiEtrFSw2WWcJciG6kGcEk12T5yqMBFqGg5d4iBhdCu6jD4h1rY9AaBVwWqXE3GVyMsYgVCh/Fib5FWBcZ6bBUkqKegtpOOy0qsbPBPLaIVhEGbTG44JOcDsvSSWIhn+GY9i07y2ywiDHkRPUf+L6ipcHybyeJxeAs4fa9CkwiuBjXLeJKyK96LVBdMCN8u2il1y3BeQLmWdq74fYcLnlniVcFYYg6XhRWQlybOA8lns6CtsQQC7zaL/qQQdj179meTwWbmd0mvziN72sgF/91/EFy2HWRyxALvLNQ9CFjLuz4T3vz9sLO/1zfQsd/GnfQ4IY5WNhFhVGIBUbuAFh2OJQ77bBYvtRKnbcoNszBQloij7iKnWKQD5FHUlhkQSqnbumqUg7wRHqoFWIBt8yAPrSTvaRgCRZTqKtnig1zsHDMw9ACrp/Ft/7kby9hB0XDotwwBwuVosPQAu9ChX0oLy58nYi2u0C5YQ4WKv2HVOBqTuFDHpfsT3K3KZ88lHLDHCxMQI98CK7mlFBy4cILF1KGrp2TqKDaxciHwMet1D7kg8n4O0V4KiJN0VI2zMFCDP+syFqgK6T4UBBgMk1IPBWdUbCkbJiDpbfFyIfgiJtuLEy9cpZg+NCK0EOnbZiDpV8XiXwIjLgaH/IDTJaOxGMuYUeX2CYejU8FSYlKCz3mQ1ClqPOhwJGyMxi+6ZlQ50pt4oX08Jl4WzroMR8CV6D1xhIYTFZcwr3tBCzih5ZcRAo+uojeSg8tCB8KlFlpx1eW0JMocVoL3LNc7qVjiRkLWLWgfCg7MI3yj44TTKLQTbR0FqWcZ+QGO71djBkL2D6jjYV50q7NQKPxw72KEwQXdIqW2kTZzuRclRq6Ysayow/5YHazGBdKxfkM53dIL5LbROCO5e4gDUsrQx8KLaZhFn3ZfpGOE1uDRC50SXEDKkrkBxhToMeNBZy10IyFg6GXMY0fvQ77LgEnsaCEs5YTca8SFJSk0iYtdMWMRbedkKaem6/RNtMo+xuLOs5rcgCOqujk56qg5ltuJtXtYsJYoFrumepDockwMjgwP3qVjn9upiNutUON6OQ2ETw0SR7fKQvdGBV4MGdqLD6ZTsV3J5BOw8vGvV6Fr0E5z/JKNSboSpUavDwmL5io2sVRjAoYcKe7YAnR9H5IdtMo+0SiZTnnE1pbQ00XxDfBkVo2KoUt1uLGAs4UkD7kONCKScSm4919L5TPK/4Wp6dYu9fPRWrXx4JgE6udi687hq8dj7fwuBJjLI7z+TFZvqaCCfkwAZfoKZ9xRPSLNeSRJNLrYB+KuxCcnfU+5DHxXsvAGMXnjvOZtsvD6ImIHRTPQnB21vlQxMTT5L2CMRnxGs/pTx/t+3i1BBX6TEFgEpjXa3qUka8BP0cSF3nrwk5qJai0oDV5tQ85zqvMxNNq7ZLBhKSO+hpJ7fV0qJElCPAihQ/p7me1fP9MzU0uEaf3r/gVnUrt8eC5ZGCxWmDMBX7p2N/xavn7uecwxeJwp+P9S+X1j7jJJV1mT88bqCZRAXa2yD6EtXvOZjb9+PP8/PnpFSufn6/Pfz6mM6yRRNpb1BU9CPSipA8xO/nfgb6b2ewcl12ptODKxfkaTJj2ctpnC6IieVHoQ4zJ+rDf4b2PE8oFKiovCr4k4/BMmIa5cxGpRBvEkl7kBL5DD5F5KO8TlkUbiSglN58uHWYnX4MJU67h5VJNRfCi569iJ4HOcjynPJVK0osOH08EkY/qQUuq+JNSbOH+Krrq5kNFlYJgL/p6GufBRXIgWalfhPAFNO5eZk1F40BF8CK3fOmOMoVSAxwI+Kcv7kXMXqwMDQZjKkXwIreb7jZbGUFBRJWieJGbp1tNKwtPuoQSELIv+pK6a1o7gwGhKKkUwItcPXSt3cDAUNRUiuBFR17gZWAMg68CSgqVYnjR0dGAOZJ7I3STuVRln/RatxBe5OqpG9wNxWRqI+XNazqAYniRq/5dl98RzpuUdqKHYqV898yX07DZjO4rHc2l2kzYm/VUCuNFTI/dZvyju2wuBTqXl6NUIt7b9FAK5EVMg4ckmOj3j7EAdrfWHXwFScXxIiYVGBwUtgWs/zTCXKJIXsQ0eGwagWl2R3xfHIZMobzI1xDrCXEo/yR2lvafdNcolhf56j+2CGSa3bsn2Sc0NlM0Lwr069H9fevRNBkT1bc9p9mM6gyXr6/B+MH9hSvZuESad4+asxgGSjJF9KJQZ1dPD3fdLqMTV5cRGeKOeFGQKagXxXXWvxo+PT4+Pjw8PD6ePg2v+rR7gsgU14uylEym0F6UoQQy38CLslKczF8viisi89eLkgrI/PUiSYxM968XATobPv4ffUC36aspOt0AAAAASUVORK5CYII=;" vertex="1" parent="1">
          <mxGeometry x="479" y="782" width="200" height="130.22" as="geometry" />
        </mxCell>
        <mxCell id="-ansJqmjGRNbWr8opuUd-15" style="edgeStyle=orthogonalEdgeStyle;rounded=0;orthogonalLoop=1;jettySize=auto;html=1;entryX=0.5;entryY=0;entryDx=0;entryDy=0;" edge="1" parent="1" source="-ansJqmjGRNbWr8opuUd-14" target="-ansJqmjGRNbWr8opuUd-2">
          <mxGeometry relative="1" as="geometry" />
        </mxCell>
        <mxCell id="-ansJqmjGRNbWr8opuUd-14" value="" style="shape=image;verticalLabelPosition=bottom;labelBackgroundColor=default;verticalAlign=top;aspect=fixed;imageAspect=0;image=data:image/png,iVBORw0KGgoAAAANSUhEUgAAAOAAAADgCAMAAAAt85rTAAABKVBMVEX/////kQD/hAD/ggD/iAD/jAD/hwD/jQD/hgD/jgD/hQD/jwD/kwD/gAD/mQD/fgD/oAD/mwD/dwD/egD/cwDy8OzynmXyqmXr6OHrqVDrpVDl3tblfTz/cADriVDloDzyr2X/+fLn28z3/f//uoD/8t3/aQD/pTTwxq382LHwtYPlupLwxqP7nz7/uHXy7OP5jCX2wZL83sfwn1XwvZPr7uz8kzr+nTzhsXr/0KP607TxpmfzqnP/6tLltoj/rGb2hhj2lBn85cf8oEz/xoPd3Nb6iCzjvIb/sFD2sH/3vYH/qDjt0a7ryZ33hCP+zpPhjlTjplv02Mf/nlv/vWf5rYH3pCH/pXH/fifezbXrsXLulEf33s//4772jEL+wXP/zK3SuJn8p0hQPRfBAAAHvElEQVR4nO3da1faSBgH8ISEa4aE3KqrZSXEilblptJCS9tQrKK2dK1LsVW76/f/EDvQsqJFSCCTSXKe//FFfMFhfmdmkkkyMzAMBGIz5tboaMukWQ5SMdYjo8PE8/AJjW3ESaN/pJi4bdAsjesxdnbTMf4OyPOR3Z0QEfNFPsXz48BolI8X8zTL5GJKxXIswT8E4pSLBzTL5VL0SopLxGKTgLgWK0Fvp2Z1L5KKxR4BYuJeNdAnVH0/yiUSjwPjcR7t6zRLuFAOirVEKjEdGI8KL14GtCvWIxI38E0HxpNRPlmnWc75ojde8VwqZQeYTMbRUiNgDbX5OpIe+OwBk8mosN6kWV6n2S+nuUjEPlAQkvHCTlDOp8abtIp5zoCYGE0eBeKqeP42zQ19DoEDY+6KZsntxGy9fidx8wKFpLXe8nVDNSvvJFx/cwNZQbAq/hUaO9ZP3vxAlhWSvTN/dkWj8V4d+RYAYmJ8peFD4uo6J6VHvoWAmCi2/XaveFj8kMY+l4Asi6wfhzQ9D2Lsq+qA5xoQIVZg634Zvemb76WfPBeBg6z4Y4Da+JJWRz53gSzKVWnKhjHfRFRJIgPEsY7oXhVL68qARw6IWLZdosYzG7WfPIJATDy+plSLzzrSyEcSiJB48owCz9ysqf/7yAIROj3zuhKN7bR2xyMORKz80VPf1WtVHfeRBooiQj88e6ZhNjufVK+BWFhoH3rSUI3nQ57XwEEKXQ94mylNpQUUUYb0veJmTVNUekBMPD0jyLta7//PowQUUY/YveIh5o35KAEHXbG9TICn/6No4zyKQBHJW27fSOnVz+p9Hk2gKGb+arl6tjl/omoPfTSBMv7LuXfhN7f7mqL4CihjYs+l0ZveyWYVxXfAodGFlxlm48tPng+BOBcL3iuajb/Vkc+XQDFzssjLjNKXvqYpfgbi9C7mbafGjpa94/kWKMuZy3mIxv6nrKYFAZjBtej8hJr/qg0TBGAmI2ecDlD3+9kgATGx52AqinGe3tC0YAEHRLtdcfNmI6sFD4iJx3YmvuU7/TtesIC4EruzHoMfPO9r475gAXF63akT35afbmTv+QIHzMhr0+6Gl/+8zwsgMPMHAAEIQAACEIAABCAAAQjAIAGJzDb0DVCVamXJbSBrFRDrD6B6s59/4j5wKV+/9QNQlTolRicB1JlSmzpQ1crn+HOEgAxz2RNoAlX1/eXwc8SAmHjsJnD1qQOgqpQ7vx61EgQyz04K7EOhN8BEpzl6zkoSyJjNbzLyHqjdjE0CIArEad4KyFOgotYq4w9YSQOZg25BRN4BlVrl/kQc4kD8Fd0C8gioaJ8frmP0AIjb6THrBVBRvl/9No/KEyBjVNcQaaCi1CYtRvEGiHN9ShSoKDedia+KPQMy+fYtOaCirD/y+s07IMOUfhACalnp/LHPeQlkjMsMEt0Hau+nvB/2FIjHNmfHY7XoClD79Pe05TUeAwcD1IzoIlBLvz6f+nrfcyBjtr5l3AJq2U9XMyZoeA/EXTHfE90AatqH9Zkb2tAA4gFquzcBuLbqCKipX2zsL0EHyDDV48yCwOxN1c4CTFpAs3S99lDoBJjV/rE3O4oWEMeo4/PpnMB+x+4CDBLAPbtrdw/bvXmA2X7H/uYuBIAI3dbtTlZutTOyQ2B2o7Zpm0cIyCZP7FaicdaTHQE31E1Hs4SJAHEKF7aJH0eVOBuYzSodh5OgSQERK1zbLYrxq53OBGb7XxtOZ+oTA2LiRcNmLZrXuZ4N4MbNozdFVIAIiSt2l9Hr16fyLODGm3l2ViAKxF2xa3c1XelIngpc3plvXR5hIGLll3a7YukjkdWThIEiYk+bNPewJA4URWTlWqEGDohFapvLeAIcLKM/orS5jEfAwSJzOttzewbEuWhSaKheAkXrIuRA3E4vww0UxZzXG64BEIAABCAAgwRcIXHPB0AAAhCAAAQgAAEIQAACEIAABCAAXZjpZMlsuIFLl5YQbqDOfCyI4QYypbrFhhrIMNW/xHADGb11+tsC0FABcbash3UYMiDTOimgUAMZs3lxr52GDjiYDyqPEUMIxLW4dYpCDWSYZs5CoQYyevVEDjUQJz+8YoQYyJhHmXADGbOVE6fO6iURb5f26Fsvw1yDw+/zAnXvC+ktzvImAAQgAOkGgAAEIN0AEIAApBsAAhCAdANAAAKQbgAIQADSDQABCEC6ASAAAUg3AAQgAOkGgAAEIN0AMPhAVXIZKPgKyFRqaclNIIt26zQ9v+egUlPdAwq7XZq7iU7O+R6uRFeAAlqZ9NNA1GOsskp6caDA91ap7EBpJ/Xyr0qcGygkrS2aghkxq52ytAhQ2D1pTvsCHyT/RJ0fGF2a+LtV/oqxw6tpbg5gMorOfNv57sXs1oZCR8BksvAvtT2KHefqFZ92BoyiJbsbvvsienWP4+wD48JK1VcjMxsxGlEpYg8Y58WtYHS++ykVyyluNjAuvPhBaffshZM/KXOzgLzVDSpvkMZuejqQv/XlsNN+jG2VSzwK5CN0Nj53NdW377jJQN7K+X1cZivm9dtUYhKw6Pl+4KRiVKLcQ2DMqgS/dd6ltM2lYmNAPrEd5HPnpORf8OroWIq+CBsPR9/5Pjr8HoJz56Qs/3YAWTz/AZkp4PP2yMdmAAAAAElFTkSuQmCC;" vertex="1" parent="1">
          <mxGeometry x="309" y="-77" width="90" height="90" as="geometry" />
        </mxCell>
        <mxCell id="-ansJqmjGRNbWr8opuUd-17" style="edgeStyle=orthogonalEdgeStyle;rounded=0;orthogonalLoop=1;jettySize=auto;html=1;entryX=1;entryY=0.5;entryDx=0;entryDy=0;" edge="1" parent="1" source="-ansJqmjGRNbWr8opuUd-16" target="-ansJqmjGRNbWr8opuUd-12">
          <mxGeometry relative="1" as="geometry" />
        </mxCell>
        <mxCell id="-ansJqmjGRNbWr8opuUd-16" value="" style="shape=image;verticalLabelPosition=bottom;labelBackgroundColor=default;verticalAlign=top;aspect=fixed;imageAspect=0;image=data:image/jpeg,/9j/4AAQSkZJRgABAQAAAQABAAD/2wCEAAoHCBIREhIRERESEhARFRISERISDxEREhIZGBQZGRoYFhkcIS4lHB4rLRgWJjomKzExNTU1HCQ7QDszPy5CNTEBDAwMEA8QGhISHj0sJCU0MTQ0Pjc6PjQ3PzQxNz0/NjY0NjY0NDQ0NDY0MTQ2MTQ0NTQ0NjQ1NDQ0NDQ0NDQ0Nv/AABEIALcBEwMBIgACEQEDEQH/xAAbAAEAAwEBAQEAAAAAAAAAAAACAAEDBAUGB//EADcQAAICAgIBBAEDAgUDAgcAAAECAAMREgQhMQUTIkFRFDJxI2EGQoGRoSRS8XLwFTOCksHR4f/EABkBAAMBAQEAAAAAAAAAAAAAAAABAgMEBf/EACoRAQEAAgEDAgQGAwAAAAAAAAABAhEhAxIxQaFRcYGREyJSYcHRBBTw/9oADAMBAAIRAxEAPwD83EYhEYnovPqxGIRNFgRCNYRGspBiNYREIAhGJQlxksDPjzNa+OzED9oIJBYhQcAHokj8j/eBGAOSNh3kZ18j6P0Z1UXWWOERK8sfjsiHGB12RkkAfz1IzyynheExvljyeNocbI412JRg4XvGGx4Ocf7iYT266rAMD2lVUrZSQrAqK7G3Z9c5Hsk/t76/mcXM9KepSxxhCqN5zsVycdYI+vz46kYdaX8uV5Xl0rOZOHnmUZZlGbMhMJiMJiAmExGEwAmExGEwAmExGEwVBlGXKMk1QmKEwODKMuVEoTKMsyjAKMoyzKMRpJJJAOgRCERiUikI1gE0EcTSWaLAs0WNJCMSlEQgCEuQSRkud3pIQu+wVm0JrU+3szbL0m4K7efIPWcThnq+j34BDW3olbCx0qsdSayCGYBfsNoSfwT+Jj17ZhdNOjJc5tr/AE/cChKqzZTcLkL1YVgrhGDDVFcnToY/d47MFVeFRG9scnS3RbHrZD/UrKs+SV31N+M/Sp/adacphh6uVyLEK84f1HfU6cdnQoD38dlBJ72HWIeNyrPad1tusJouZ7HvtBrYI2AidAjIxv8AIZyPiepxXKyfb7uySb+7gU4WvQUEM5S4MKidzY3XfaoFC4K4EZrrNa+0qsRYzZb28aixtdy3YGuv9v8AmdCcw4Z/+ps9wIKVW+3RHxixHIbIOex/YieLzf8A5lnyL4dgHY7MwBwCT9ysMcuplZ41z8yyyxwxl1vfHyZcgLu+n7Nm0/8ATnqZGIwmd8mpI4bd20TCYjCYwJhMRhMAJhMRhMFQZRiMJkmqExQmBwZUuVEpRhMRhMDUZRlmUYgkkkkA6FjWERLKZmJoszE0WOFTWaAQCaCNJLEIREIAxJIJIyXEjspDKxVlOQykgj+DDJFZsR6yuroLLHc2e06kliEXYXrgYPWcouMAfL7yZQFCB9bi4KOiBn/aCOwAMfuJb/zJwOOPbrZGAew4csfiAHYjA6+0TPZ6bwOs2UYqx3XB2/aDnJr3wvY/7QP/AKp5mWc3ZLw9LHDLUupv+2DV0rsFudR8gStg+f4yAACO/Hjs99d8PJRFbFbFlwME4z/xOvm3MjMuVJYAkjbo9jrvrOCfwQQZ506uhLfzW+XN17JxJ4UYTEYTOlziYTEYTACYTEYTACYTEYTBUVCZcoyTVCYoTA4MqXKMShMoxQmAUZRlmUYjSSSSAdIiEIjWUzprNFmazRZSaYmggWMQIxEIRGIEsSSCXGEjoK7pv+zdN/8A07DP/GYMHBbB1BALYOoJzgE+AThv9jO2pFAruZStYILPoWr3V1BUk9dj5Y/J/wBJn1MtY/006eO635HL1V8WZdgCg3RzWfcx8GQfHK/Q8Qch2VWcZW7HHW1h8XUsrFvHgkhM/wB/5mq+oIQcvYG6yF5dhAPyyAQDgdL/ALzns4oCs/zrR1rP799t1LqD1k5KP/8AYT1PO6eP6prn4b27s8v03f11prZynRWdT2qUHUAakuuzuV8EkjGf7zD1IErZsSTXYERmOWwVYsmT2QPj/E7uOvD1Rn5F1VgAQvWXzj3bfk40OcKtAwpHnwcSvWG4dZD0ObGJ0asEGuv+mFd0LIAzFlB3xhizdDHWuPS7bvGfwjLqd0syv8vJ5/blx+2wCxT/AGPkf6EEf6TkM35XLFmo7wCzZdwzMXxnsAAD4jAAnOT/AMeZ19Lcwky9HJ1dXK3H1UYTEYTNECYTETAYGowmIwmBxRhMjHE9t/8AC/JAHSMzIzoqsBuF/TEnZtVUAcleyfKMPwZFyk8qxxt8PDKnro99Drz/AB+fIkdGGcqww2hypGG/7T+D0ep9dwvRuQvGZWoRrFe2pa2epmOXSssGOQg2cYORtrkdHMp+JyWJI4lVg0UnXmcYrWrqzqGzjACnvPXjvuc962cvE39XROljrmvjpRmvIoat3rcaujMjqSDhlOCMjo/6TKdDFRhMsyjA1GUZZlGIJJJJAOkRrCIllM2gjWARrKTWizRZms0WBEIxAIxAm/B4rXWV1JgM7BQScAZ8k/2HZnqel8Otle9X3rSvkqfcpTZHHGd0dULFWHxYjJGCvY+549djIwdGKuhDIwOCrKcgj/UCfTU8agWVleWi1hw7V5p0IdHFgzsAchMEEYCvgfQM5VpjNjxuQaEPJOnsutLoa+Olbhj+oqC+2pCbDFrFi3+VcZzgepXynaw8etKzbxLa62DKURd29ovUx2/azqSCveTjOZ47Kwdn2ot471BRxWfUXpTUHsWvVSE0YuQcqdg+PuY+ou7namx629ivm2K5Rn1RUas+8qhrGXcY3GQRnJ8zKzdab0v1Rk5VaWJYM1ce21E9tUJrqbVg+GOjHVmUYII8kbCbolgVkS1GTjFqL2NLaoK+NyiXrw59wFffGSFyQhwBPGy6VveliOtpFfIWv4OhfL6OCg1DaN2mR8D+J6vDwi2PQtiV+/7671NXop43KFSKOw4GzbH9uFXyGOHZqaEu66a+QXWvSwZ5acyytTSy9oM3oze6dGOjFSAR8sHzC5NnJZHKm3i+7c9ao2P6wRXCWF+3TdCDqoypI+p5zPQXI/Vha9GrUr7KaIbmDoqBRqCjBsjG2zD+0T1hSQeWx5OKg40XZ1rQOo+QXJyiABmGcLnOItKegnJryFVLWDZZX/pi6xkUAK5JAKvo5YMMMQvnyfF9evr1rrRWXUK2pxoqqmqGv7XcfNh9nQkZBy1rffQXKwStnGiJlwLnUlQHXoAEnBwATj8zx+bebLCxChulbQEA6/EHGTjoAYBx1KxnKcrw2s9PtXHwLAishl7X5ojgZOO8On+pmfI4VqLs6MqjAYlWAUn/ACnP3/H5ns8fmY42721s6nc05ALoFNYU48OBUhGBnAAzlsztdltPtq6XO91liq70FAihmU21oSzgfLpRk6n6bUndS7JXx5M9/wBE4HEs/TtZYdy1XuU7oS5PIdXGvTaBEQkAk/PPhTN+MGN6BaFFHJqKC+3hUKC1aNtyUQqVrAOCV8FfPZ656+elzG6jipXyePQtiIqJh7BZUrOK0VQ2il3GQT3k5CYiuVqscJPLyfUuGKmBQl6nGanZkJcAKGb4+VDFlDDptSR1ME4rsGYowRFSxycJhGICkFvts/Hzn6zPeWr9WePZywy22WPWPbRKrOVXXQXGiYC7bBawwAB2A7Kz0aF4tws4X/UtWGrNQapx+mIU7OruoZUXYkiwgBS4Xsxd+po+zd25ONxVKLfTw+SWbIRfga7EIY99Yxkgfn4r/ecPMq5nENLPbaz2q1j1qtuVULWbFLY1YhakDYPx9sZ6wTFqtWrj1cbi13M9Tcqy1uDTe7ZL7IpdDhFCAY87ZH4E6N2ss4TYNNlilqONxlr4i+8eQtIcEIdVdV2yytn2yo6IElUjbm/4lcKmUuqFim2r5o5Cs9bqShP7Wat2yR2HyMjqF/8AFykOgS7VhaBmwD95+ORnGFGBjvOP4x5f+LGRuQtiHdbaa7PcNftNblnXdq8AISFAwAAQobA2wPFlY4yzZZZWXRW2M7M7sWdyWdiclifJJ/MzlypozEyjLMowCjKMsyjEaSSSQDqEYgEYlMzEawCNZSa1WNZmsYgRiIQiWRnr6MCdXI4N1aI9lTolozW7oVV+s9E/27/iacf0blWoHr417o2dXSp2U4JBwR/cH/afQXcXl8vhG01pvdyaLFIsqrV1TjPUX+T4ByoyOvBwMCROO9V3olbgB1c7BXVx3zCf3KSD0fzMrnfq1mE3+zPgcXn00kJw+QtyLYlbNxDYrV2kF1Of2OpywbsHLAidLelcmywu9VwN3AFDt+k5AFdgVAQwVPvVsa5Hj8zyfSfTnsss5FfJrqbi8kPYLGKaV+4T7u32AQRr/H5ma8ejkX864tanEpNlwWpV91g9wVFUP0v7s9+BiTd7XPEeiPS+UKaLG4prXiuLuRxzxLkPJatsq5ZUKtlCyHZgBhjj5Tl43qQP6oHkveGdbKRc9iGxWq5CPgkEI4Fq9nA+J8jE04r8f9JyP06WnN/CRxzbEao7+8qkmsKVUZJJz9D8Tq5Hp1dKhrONxm25NHHX/p+Zx2UMzh3Ku/aHVdXBwTnrqL4ynrxY4z64Q7VJRW4QV1hCPi3tN8sHX4qDsct9dnHieRybmsst5ewVtx+0q+T7bDK7kbg6d9Z+ROJ7FSB7sNX6elNvIsqUWPyxZcqXhWICsQT30Tj5HMHDo920qKPTVoHJNbI99i3EByuVrN2zNgkDC5JPQj3J4Hbb5fOpzLFJKOUJABFYWsHz1hAB/mP+86eZ6ZYliLbbTta9iGxrWNaPW2rq7a5BUkAkAjsYJ7wH4d3JstfjcW3TZgEqotcV99KfPyAxkE+cz0uSvHtXkO45FRpXjVitqlB4YJ1FaVlx7oJDZJ0I22wWYyrdJmO44bfRyrmr9RxjcGKCre6t2YHGql61TJ+vkAeseYKPTXCLcb6eP/UZFFr3paHQjbAVCesjsHrrODPVu9SqRWRy6V311P8ABaL3upWuqtPcO49m4fp2IPy19xus9muRVVeoPM5KcK0vbci+3ZyXKXv7urouChBbKliCQ3YHRK7qrtnow9QFjWHiDlYISsWGyzlP+qd1ViMojG5ct8CVHx1xmQcergWV++XayxFd/bFi6gc2pgUZgjo+lVyH7BwPsgK+9aL1dgyKtda8S+tk5SPStZoIddkVw43yVKsjZGPx53rXqS3+yqA4pRqw5qSosC2wRUVm1RfrLMSWcnzgKS3U9Dtk3fV7Ket8NwUdLmNzVe61juw6Yhs2NYzBArdDHWCTtkY4PVvVqrUqqrs5OgtcW+5bdYjVbAJ8S52IAz4B76ngzo4NJLrYULVV2U+8Qu4Cs3gr95Ct1/Yx9snJd9vD6G7m8JmK+86Viyl1rpPKrqbDJsVQDCsArEMe8nycDAPK4VgoF15d0VDbcy8kWO+1ezGwKXYqBcVHQHxH1mbezw7FW1KDWjC9GZtUVCEtZwiFwX1NlIH2F6GCuR4vra8MBRxldLNzuri8ELonXzPxG2+B8mIIJYeJMktXbZy8q217CXsZndsFmdmdicAdsSSfAglyGastjKlyjAKMJlmUYBRlGWZRiNJJJIB1CIQCNZTOtFjWZrNFlJrQRiZiaCBGI4BEIE6Ee6xF4yl7E2Nq1eVDhWBcA+Oi2fr7M9zjkhvTXrU2JwyzMytWgszzHKhA5BBPQ7x5E+dUkEEEggggg4II8EH6M6V9RuDK/uOSrBwGYlSd98keD33/ADIyx20xyk8u3i1cmjke/SiursenKaWJaCxrdSc6kZB/jP4m/Hrarks9XFb9Ncpqs49t9Z2R03dA4P0FLKT2NRmedxvUrlepQzsF/pqiliz7ZVV85JG2B+Pqeny+Relbs2hIQh1pep2rAqCFsK3xCv1lcgBiDjxIy3GmOr4YUVFKeVX7TBGevkIbWrcBOPVZdraFcElldPHXZ7Ez5nDsFTIlVVQYo9ldZsZ3ZF5HxLO7fFBVacDolh5ImJo52FLvZXWRkvZyURE2RerCW+DFXrwrYYhhgH69K2moPx62uc3W0BnKcphRyGKEIDcchQXbkDZRqMsDgkmTaqYzTz+AvJrUL7FVyU2PYgsYZpetl3KsjqQMhMqcqcDqc9nIfj2D3OLQeSje4LHNrEMzbhnVH0fs58fjOZ2+p+8XqSh7Xe1DYaqbm5IAJwrq6qNgwQE+cY7J+vN5Xp/JdUscNY9miBN97xuG02QZYBtHx/Ec15pXfiej6V+N7qGxuNZykNNb8RWrseuwvxssF1ZQtpuLM7EEnvHcyPHX9Zxq2HuexyfVOIpuUWO9dFaPUr7A7a+6wGfrH1iH0v1O2y018mulHpCtm2tktDaLUujWWotDEMn7MEnUgdZHB6jy3FlNlaI6h+RXXXZSQ1Vgoo47V2qXYMVVOOyksQSST9gTJd6XbNbb89ku4qqcLd+gXm2FOLw60crYQRlUDhj12GA6Awcme16ndWP1Flgav2+PW1ln/wAL4t9LXWWo29NtndgIcqFPWqk/U+Nt9Q5FytSuiow+aU0U0hgny+RRQSF84zj7xPX9M9WFqWK6U1ir22oVOJxmrr2YV9bqSNS6vnJJCOPvMdlkKWWugcArbw6LNLT73qIGKwqPvxqrE1TGFyXB1A6Jni8r0m/9PwSvFuLNVabCvGckn9VbrvhfOuuM/WPqes3pXHb3bLOcl9rlnrse5a2V/YZyzAWfuLaAfQ1Hf1PC9Veym+ytOXZYg0b3FvY7F61ZslWIJBJUnP8Aljx58FlxOR9fQLzOYqqFVeTyVVVAVVAuYAADwMYh9N9Vs4u/tag2YyxDbLhHQakEYOLH/wCP9eJmJJJJJPZJOSSfJJ+zCZprjVZb53H0a/4wvO/uJWQyXABBYuXsULlsuQFGASABnv7JM8P1TnvybWucIrsEUisMEARVRcAknwo+5zGSKYyeDuVvlUJihMooMqXKMShMoyzKMAoyjLMoxGkkkkA6REsAMaymZiaLMxNBHCrRYxM1jUxpaLEIVMQgRwu2JYhdcwpteFzDTZXaoDNW6uFOcNg9g/jPff1PpfUuWq8JStdi6otIR2dtRdxmSttjhNdA51rHyYqW0I7+PZZ20EtRYHJYV6+2GJYV7HvQHpc/2mPVutX5e6/xJhj89e706vUePTXWicqyyoCxruI3FKHlu4Kn3WZiirgIgILFQpI7M5+P6jTStVS3udKr1HLWghqXssR8ojHOAEZSR3/VYr/fnbho9FZUAWBS/Q7YA4bP5Pj/ANmZmpNuN8VwwBf4jDZI/d+ZhOpjd/O+yZ/lS+njfs9P1Jfbfkcflcu1nuStDymotcIa3D+38js6/kjoMB9dzLnc3jPX7aX3Ctnp9lLK3duCqIyuVYv8g2VOqnofwBOd+Stlvs2IrKua0OW2QDwF76HXgYE5TQq1XdAsrBQ2O8ZHiPHqeNznj3H+xPGtb19q9RPVKwTXXyLKNaeLUnMSp9m9lX3VlB3VG3Xx3/STIweuQ8xKzUlTtaUstvNzqU3udUVXCkltV0VskhmYnwMTHgVoFBdQ3uPquQDgAeR/r1OR2CNqV7Q9kD5HD56OfwP95UzndZJ4P8a22SeHuJ6rXgqvERQTawINZf8AqpeCm2oOg99MAnoVidA/xFxUFoThe374YEVtUg1/yA4XrHfXgns5M+butAUBT2dTkY6wO/Hjz4/mc7MT5JOPGY8cd8rxzyvNdnq/KqttayioU1lawECovaqAWwgCjJGeh5M4ZJJtOCvxSUZcqMhIklmUYBUJihMDgyjLlRKEyjEYTAKMoyzKMRpJJJAOgRiZiMSkUxGJmJoscTWixrMwYxGlqIhAIgYAwYoBEIyUUm9TKtVqk4ZtNR33g5mUSNqckZ6YY/lSP/zM+pj3TX1+xZTc1/3Cn5YQcdkbLIrbDseWHR/nuacnk1tZSyHCLjPRGvyzicwtr219snZjqPJ+TIAPI7wGH8kTQ+3lRoG2OuVZWGVJJyc/grmcdxxl5l9fdF6eM1dXfPubGtLGt9wN8mZVUHJJzjJ+vMwW8Gu0Mfm7BgPz2DEzIuGVC3jDLhgT8sgd/wA/7TJmQDPttg7Hx9HBB8+MZ7/vHjJ+98exzGeu/RrZzNNUTVlVR2Vz394z4mPqDK77Ic7AbeejjH/6nKriRnE2nTxxss8tcelMbLPKKkWJYkxNZFWi0OI9ZMStFsMSozCYaMZRlyjEFQmKEwODKiMMShMoxGEwCjKMsyjEaSSSQDYRiARiUmmIxMxGIIrQRgzMGJZSWqmMGZiMQBiIQAxCBHKMoGXGGVdKlgQzBlBcsAuF176Gct4//kTpnVkXQbZ01ySWU5bGewQCMdDHjzGz/Hs9jodLtg+cHGR5Mwsv2K4znP7QU8kAHI1wesjv/wA8eeN7hza0fZcquERVJHWewCPs5B+Q894mIuOoLeGDg4UZBGAcZ/sRNbQSFIOhCnClRgA5yCNR/wBv4kWpsAEjyegq6jGOwNfPZ8TOa1yNzXLjanViPwcSzREnk5OTk9/nubTrwx3OWlysZIuJeIzCZogDKMRhMAJhMRhMFRUJiMJkmqExQmBwZUuVEpRhMRhMDUZRlmUYgkkkkA1EawCIRppiIQiWI0tVjBmYjEpNMGMTNTGIE0BlgwCMGAIRQS4EnWRnwD31mZsqarsD1kAgY8KASe/yPuaSatjClV7/AMwJHavnxMOtjx3BleqDGUbsDoZ+lXGe+vIhcpocK3xzjIIwWAxn/bM2Ifrtdj56OAMfX2f2ic7e46gHUqcHIznoYmOEuXgY8qpU/c2lhcCUZ2Saird0TCYjCYyEwmIwmAEwmIwmCoowmIwmSaoTFCYHBlS5USlGEyzKMAoyjLMoxGkkkkA0BiEkkZGIhJJGghGJJI4VMRAySRpMRCSSAIS5JIEuUQD5AP8AIkkgFe0P+0f7CSSSIIYTJJGYmEySQAmEySQAmEySQVBlGSSSaoTJJA4MoySRKEyjLkgBMoySRGkkkkA//9k=;" vertex="1" parent="1">
          <mxGeometry x="800" y="792.11" width="165.3" height="110" as="geometry" />
        </mxCell>
        <mxCell id="-ansJqmjGRNbWr8opuUd-18" value="" style="shape=image;verticalLabelPosition=bottom;labelBackgroundColor=default;verticalAlign=top;aspect=fixed;imageAspect=0;image=data:image/jpeg,/9j/4AAQSkZJRgABAQAAAQABAAD/2wCEAAoHCBEVEREVEhERFRUYEQ8YEhIRERERERgRGBQZGRgVGBgcIS4lHB4rIRgYJjgmKy8xNTU1GiQ7QDszQC40NTEBDAwMBgYGEAYGEDEdFh0xMTExMTExMTExMTExMTExMTExMTExMTExMTExMTExMTExMTExMTExMTExMTExMTExMf/AABEIAOEA4QMBIgACEQEDEQH/xAAcAAEAAgMBAQEAAAAAAAAAAAAABwgBBQYCBAP/xABREAABAwICBAYKDAsIAwAAAAABAAIDBBEFIQYHEjETIkFRYXQyNXFyc4GRsbKzFyMkJUJSVGKSk6HSCBQzNFOClMLD0dNDVWSEoqO0wWOD4f/EABQBAQAAAAAAAAAAAAAAAAAAAAD/xAAUEQEAAAAAAAAAAAAAAAAAAAAA/9oADAMBAAIRAxEAPwCZUQogXS6IgJdEQEREBAiICXREBLoiBdLoiBdERAREQECIgXREQLpdEQERAgyiIgwiFEBERAREQEREBERAREQEREBERAREQEREBERAREQEREBEQICLKIMIhRARF4e8NBc4gNAJJcQAAOUk7kHtFxOMazsIpyR+MGdw+DSt4UH9fJh+kucqNd1MD7XRTuHz5I4z5AHIJZRRD7OEPLh8niqG/dXsa76floZvFLGf+kEtoonGu6l+RVH040Gu6k+R1H040EsIooGu2j+R1P0ov5r17NtF8kqvLF95BKqKLPZsoPktX/s/fXoa68P5aas+jB99BKKKNafXNhjnWdHVsHxnRxub/peT9i6nBdMsNqyGwVcbnk5RvJikJ6GPALvFdB0KIiAiIgIiICIiAiIgIiICLKIMIhWuxzFIqWmmqJjZkbC47rk7mtbf4RJAHSQg12l+ldNh8PCTEue64hgaRwkjhvtzNFxdxyHSSAa+aV6Z1te48NIWxXuynjJbE0clx8N2XZOvy2tuXw6S47NXVMlRMeM42ay5LWRjsY29A+0kneSpQ1casGbDKnEY9okNdDSuuGhu8OmHKT8TcB2V72ARpgeilfWZ01LJI39IQI4sjYjbcQ0noBuush1NYo4AmSjb0GWUkfRYR9qn6ONrWhrQA0AANaAGgDcABuC/RBX86l8T5JqH62f+msewvin6ah+tm/pqwKIK++wvin6Wi+tm/prB1NYr+koz/wC2T7isGiCvR1OYr8ek+uf9xeTqdxbnpfrnfdVh0QV3Op/F+al+uP3V59iDF/i031//AMVikQVtq9VeMMFxTsk5+DmiJ8jiCfEuSr8OngdszwyxPz4ssb43Ec4DhmOlW/XwYrhdPUxuiqYmSxkG7Xjd0tIzaekEEIIE0N1nVdIWx1BfU0+4te7amYOeN53967LLIhT3hGKQVMLJqeQSRvGThz8rSDmHDlBUD6xdXT6K89NtSUpPGvnJCScg4jezkDvEeQnWau9MX4fVDaLjTSECoZmbcglaPjN+0XHNYLNIvzika5rXMIc1wBa4G4LSLgg8y/RAREQERY6UGUUfaU606Glc6OEGqlF7iJ4ELSOR0mdz0NB3G9lwsuurEC67aajDbjiubM530g8eZBPaLhNBdYkGIO4FzOBqA0uEe1tMkaN5Y7LMby052zzsbd2gIsogwoY18Y4b01G11hYzygXzzLIwfI8270qZyqya1KsyYxWG5IY6ONoPIGRtBA/W2j40Gx1QaMCrrTNILw02w8tO50xJ4Np5wLFx70DlVilHupSgDMJa8b5p53uPQ13BgdziHylSEgIiICIiAiIgIiICIiAiIg/GpgZIx7Hta5jmua9rgC1zXCxaRyggqr2nWjrqCulgz4M2fA48sLr7PjBBaelpPKrTqIdfuHgw0U/wmySRHpD27bfJsO+kg3GpbHTUYe6B5u+mcGC5ueAcCY79yzm9xoUjKv8AqLrC3EpY78WSmfdvIXse1zT4ht+VWAQEXxYliMFPG6WolZEwb3yOsL8gHOegZlQ7phrekftRYa0xtzBqXgcIR8xhyYOk3Oe5pQSbpRpjRUDL1El3kXZBHZ0zunZvkOk2CgzTDWLW120xp4CnN/aY3G7m80jt7u5kOjlXKNE9RLYcLNM9x+PJK958pcVK2h+qBzrS4kdlu8UsTuMfCPG7lybn0jcgjbR7RyrrZNilhc+1tt/YxsB5XvOQ7m82yBUhVOpp8dJNI6rD52ROe2KOL2sua0ks2i4E3tYOsN+5TLh+HwwRtigjZHG3sWRtDW9JsN5PKd5WcVPuefwMvoFBU7BMQdT1ME7SdqOVj8t5AIu3uEXHjVumuuBbmBVNlceDsGd63zIP1REQYVVtPz77Yh1ub0lakqqenZ99cQ63UemUE86o+0lF/mv+VKuzXGao+0lF/mv+VKuzQEREGk0ux1tDRTVDhtFoAYy9tqRxDWt7lzc9AKrvW6fYtLJtmtnYbkhsTzHGBzBrciO7dS3rzdbC4xz1cP2MkKiXV3hEFZiMVPUNJjeyfaDXFjgWxOLXAjlBsebLMFB1miet+ojcGYg3h493Dsa1s7elwFmvG7mPSVMuEYvTVUQlppmSsNs2HMG19lzTm13QQCoJ0y1XVdJtSU21UwDPit9vYPnMHZAfGb03AXG4NjVTSSCWlmfG/K+yeK4czmnJw6CEFuUUYaH62aeo2Y67YppcgJbn8Weeck/kz3xt08ik1rwQCCCCLgg3BHQg9IiICIiAox189rqbr0fqZVJyi/X12upuus9TKgj7U325gz/s6nx+1OyUuaxNNhhsUYZGJJ5Q/gmuJEbQ213vtmRcjIWvnmFE2pge/EXgan0Ct7r+Pumi8BL6YQR3juP1VZJwlVM6Rwvsg5MYD8FjRk0ZDdvtmum0P1aVtbsvkBp6c2PCSN47x/44zme+NhnldbfUhg9NPPVSTwsldC2nMXCDaa1zi+7g05E8VtiRlbJTwg0GjGidFQs2aeIBxAD5n2dM/vncg6BYdC36IgL48WPuao8BN6BX2L4McNqSq6vUercgqGrkRdi3vW+ZU3VyIuxb3rfMg9osogwqoabH3zxDrlT6xyteqm6YG+JYh12r+yZ6CwOqZtsEoR0VB8tTKV2K5HVYLYNQ95L9szyuuQEREEZa+O1sPXI/VSKPNTQ9+YOiOp9W5SDr6PvbT9dZ6mVcDqXHvxF4Gp9BBY1cJpfq1oq3akYBT1Bz4SNvEef/ACM3HvhY899y7tEFUtJdFK2hfs1MVmk2ZKy74X967ny3Gx6FsdEdP66gLWtfwsHLTykloHzHb2HuZZ5gqytXSRyxujlYx7HCzmPaHMI5iCoh0w1QdnLhp5yaWR/RuiefM4/rciDvdFNNqKvaBC/ZlsS6nks2UW3kDc4dI8dl1CqBPDPTzFr2yQzRuFwbxyMeMwRyg7jdTZql06mqy6kq3bcrGF8UxsHPYCA5r+dwuLHlF75i5CU0REBRdr77X03XG+pkUoqLdfn5hS9bHqpEHC6lR78R+AqPRC3Gv387o+rv9YVqdSXbdvRTVH7q2mvw+7aTqp9a5B9v4Po4+I97SeeVTSoX/B9HGxLvaLzzKaEBERAWu0hNqOr6rUerctitXpObUFaf8JVeqcgqQFcmPsW9weZU5hF3N75vnVx2bh3Ag9IiIMKpelvbLEOu1nrnq2iqXpb2yxDrtZ656CxOrHLBqDwTvtkcurXL6thbB6DwHne5dQgIiIIw19drqbrrPUyrg9SfbhnV6jzBd3r6PvdTddZ6mVcNqR7bjq0/7qCxKItHpHpVRULNqpmDXEXbE3jTO71gz8ZsOlBvFx2lusGhoQ5hfw04vaCIguB5pHbmcm+56Cop0t1qVtVtR016WA3HEdedzfnP+Dfmb5SuKwvCqipkEdNC+V5+CwXsOdx3NHSbBBtdL9LajEZWvmbG1rdoRRxtA2Wk8rjxnHdvNuYBddqOwSR9W+rLSIoo3sa7MbUzwBsjns0uJ5rt51vdEdUEbNmTEXiR28U0ZIiHfv3u5MhYdJClWkpY4mNZExjGNFmsjaGMA5gBkEH7oiICi3X5+YUvWx6qRSkor1+H3FSdaPqnoOM1Hj32/wArP52L7tff59S9U/ivXxaju2zuqT+kxfZr7PvhTdTb66RBtPwfR2yPUv4ymZQ5+D72OJd9ReaZTGgIiIC0+lpthuIH/BVh/wBl63C02mXazEuoVvqHoKpUvZs79vpBXFaN3cVPKIe2xeEZ6QVxEGUWEQFUrSs3xGv65V+ucraqpGk35/XdcqvWvQWS1dC2EYf1dvnK6Vc3q77UYf1Zn/a6RAREQRfr67XU3XGepkUe6p8Tgp8RdLUSsijbTT3c82F7tsAN7jluFyVNOsHRw19C+FlhK1zZIC7JpkaCNknpa5zb8hIKrXVYVUxycHJBM2S5Gw6Nwdccwtn4kEoaW64Hu2o8OaY25g1MjQZD3jDk0dLrnPcFFj3z1EpJMs0z3bztyyvf9pJXaaK6rq+qLXTtNLDkS6VvtrhzNj3juusM+VTXozohQ0DbU8Q2yLPnfZ8zue7uQZbm2HQgivRLVDNLsyYg4wMyIgYQZ3D5zswweU9xTHg2DU1JGIqaFkTMrho4ziBbacTm49JJWyRAREQEREBRRr9PuSj6y/1ZUrqJ9fx9y0XWJPQQclqN7au6pP6bF9Wvo++NMP8ABs9dIvm1GdtX9Tn9ONbPXvhk34zT1AjcYfxcRl4BLWyNkebOO5tw8WvvseZB9/4Pw4mI99SeaVTEqq6K6V1eHyF1M8bLi3hYntDo5A29geUEXOYIPmU6aH6xaKu2WE8BUGw4GRws51v7N253cydlu5UHbIiIC02mXazEuoVvqHrcrS6ZdrMS6hW+oegqvh35aHwsfpBXCVPcM/Lw+Fi9IK4SDKLCIBVVNPKUxYriDD8qmeO9kdwg+xwVq1A+vPBCyriq2t4kzAx5t/bRiwv3WbNu8KCRNUtYJMHpMxePhY3DmLZHEf6S0+NdooI1JaSNhqH0chsych0ROQFQBYt/WaB42gcqndAREQEREBERAREQEREBERAUNa/qsWoIhvvUPPQOI1v73kUxPeGgkkAAEkk2AA3klVe1haQCtxGaZp9rbaODwTL2d+sS536yDqtQ1M44hUyW4rKQtPfPlYW/YxynaWJrmua9oc0ghzXAFpB3gg5EKOtSeCmHD3zuFnVEm024seBZdrL90l57hCklBFOmGqOGXakw8thk3mB9/wAXceXZOZYejMbtyhrFsJqKWQxVML4njPZcN452uGTh0gkK3a1mNYJS1cRjqoWSMzttDjNcRbaa4ZtPSCggzQ/WnV0uxHVbVTAMuM73QwfNeeyA+K7ozCm3R7SSkrY+EpZg4Ds2HiyMPM9hzHd3HkJUO6Y6paiDaloS6eIXJiI90sHMAMpPFY9B3qPKKsnp5Q+J74ZWkjaaSxzSN4PmIPjQW+Wj01PvXiPUav1TlHmh+t9jtmLEmhrsgKqNvEPhGDd3W3Ge4LqtN9JKM4RWPZUQPbJBLFHwcjHl0kjSwNAB3i9zzAHmQV0woe6IPDRemFcBVF0fhL6ykYN7qmnaOXMyNCt0gyiIgwVpNLMAjrqOWneQNrON9rlkrewd5cjzgkcq3aIKh4jQzUtQ+KQOjlifY2JBDhYtc08xyII5CCpt1eay46hrYK57Y6gWayVxDI5uQXO5r+jceTfZb7TzQeDEWB1xHUMFopw24IzPBvHwm3J6QTlvINftINHKuikLKqIsNzsvHGieByseMj3N45QEFsroqvYDp/idI1rYqkujG6KcCVgHML8Zo6AQusg12Vgbx6Smc7nY6Vg8hLvOgnVFB4131HyGH61/8ln2cJ/kEX17/uoJvRQn7OEvLh8f7Q77i9DXhJy4cz9qcP4aCakUL+zi7lw1v7Wf6aezk7+7R+1n+mgmhFC/s5H+7R+1n+kvbdeI5cNPiq7/AMNBMq8SSNaCXEBoBJcSA0AbySdyhar13SlpENBGx1snSzvlF+lrWtJ8q4TSPTXEK27aic8He4hjAji8YGbv1iUHca0NY7ZmyUdC+8RuKioacnjljjPxOd3wtwy38NoTozJiFWyFoIjFnVEoGTIgc8/jHcBz9AKzonodWYhIBCwtjDrSVDwREznz+E75ozzF7DNWL0W0cp6CnbDA3pkkIG3I+2bnHzDcAg2tNTsjjZGxoaxjWMY1uQaxos1o6AAF+6IgIiIC5PS3QOhxAFz28HNbi1EQAf0bY3PHdz5iF1iIKy6S6vMRo3E8C6eK5tNTtdILZ9k0cZnjFs95XIbJvaxve1rZ35rK5K/PgmXvstvz7Iv5UENapNBZmzNrauJ0bWA/i0T2lsjnkW4RzTm1oBNr7yb7gLzSiIMosIgFEKIC+eso4pWOjljZIx3ZMka17D3QV9CII8xfVFhcpJi4andmbRP2mXPzX3y6AQucm1H5nYxHLkDqW58ZEn/SmZEEJnUfL/eDP2Z331g6j5vl8f1D/vKbUQQh7CE/y+H6l/3l59hCp+XQ/VSfzU4ogg32EKn5bB9XIvPsJVfJWU30ZP5KdEQQQdSVbyVdL4xMP3V4OpSv5Kqk8ZmH7inpEEHU+pKpP5Stgbz8HHJJ59ldbgmqPDYCHTcJUuBBAlOxFccuw3f3HEhSIiD8aeBjGNYxrWMaAGsY0MYAOQNGQC/ZEQEREBERAREQEREBERBlERBgohRAREQEREBERAREQEREBERAREQEREBERAREQEREBERAQIgQZREQYREQEREBERAREQEREBERAREQEREBERAREQEREBERAREQEREBFlEBERAREQEREBERAREQEREBERAREQEREBERAREQEREBERAREQEREH//2Q==;" vertex="1" parent="1">
          <mxGeometry x="189" y="757" width="90" height="90" as="geometry" />
        </mxCell>
        <mxCell id="-ansJqmjGRNbWr8opuUd-19" value="" style="shape=image;verticalLabelPosition=bottom;labelBackgroundColor=default;verticalAlign=top;aspect=fixed;imageAspect=0;image=data:image/png,iVBORw0KGgoAAAANSUhEUgAAAPkAAADLCAMAAACbI8UEAAAAh1BMVEX///8cHBwAAAAVFRUYGBhWVlYSEhLp6ektLS1bW1sNDQ0aGhra2tp1dXUICAgQEBAkJCT19fXx8fHk5OTNzc1AQEDAwMDg4ODU1NSioqK6urrt7e0oKCiSkpKKioo3NzdFRUVOTk6srKxpaWmBgYFiYmKdnZ2QkJC9vb1xcXGxsbEyMjJ8fHyhKxbMAAATNUlEQVR4nO1dZ5ujKhQewRgjBmMs6Zo+k/L/f99NAWxgImUnu889n3Znd5CXchqnfH1ppnA6y3aDnk4a7LLZNNQ9Uc20yFwAcAD1UoABuHwvfhtcC4VHB9iWGbKBPfvYfZ+sATKE+04IbKLfhsin6dIziPtO3sX/bZA88i3HMHDLCpaT34bZpDAJ6vNEyFYj1Lg83ua3cTZpD6qoHeDBkatGI+hhp4oefP820DpNK8ARdnqr1I/6ahT56arn4DJ2BD7tvJ/K3C0IrlNtI0+HuHyPwF7byFpoXN5yMNCH+07TQWl0BLSOrUxzUJraSrfGEWYl6CDWPLoaFYcd4ZmB8Y8FdJAZGF+ecsgmtjLygWLXnZ6RD8jSkqrreGfmA+GAnir7YuYLchSOiOSxl6ZUa99in/gkw4UhB0dj36DnHY0+Ebnt9o19Y0K+8ZnIvaHBjxyCD0YOUoMf2YLPRY4sk64DH38ucpiYnNTCtT8XuVnreQ0/FrljFvnmg5GbVSx7zv/IP4f+R/4/cjP0P/JPQv61/IPIl/pH7qezbChFpz/iLumRR5yT3CSzWcq1JMNtzwIAe1IU/FHkgdwkMQBW79y4KucEBMoPoX8IuTyhAKznlTEXBwBf/97fj/xGEOzGxZBRjjWM+XcgtyyQsOiLRa7p4fvvQG55Cd31jZ4d/2uQW2DwHHBVff+17ADIkmErVXpeQS16B2zv402qwB3s7rbp1Jcisy+8E7lJTdPtzsWV84LAXbIPy2cdgs3P+OUU/j4azzcV6XV/nBvDkhjHyc9vz9EYzcsC7P5QMy8/0J4+yhjQTONd9S16X0i0D3uf1U+lWB5w/Nowtgeuvz0z41TwNGf3taR/Dnr/8lF/0nhDQ25Q8sUYvfWH4wvDcLwYh8ZWO7wN3vzplPHzEUNuKNahQf3pfLu6HnqbdZJf8mS9GZz2q1k60SlLo/O+l+T5+pCl9WGLq06R238irtI/X3su9ADwAgdCaNs2hE5wN5yDUXKbpp5Xucl1CbBzGx0GwMuP1Z33WVwlRW70/fdO0fya3Gbi2HwvALoHsVvr4VkVfZg5uKSrQpBvK/9+oDedIsdnxS+20vR7c9sH+Mr1gW7nYTk4qpy+aFOPNIdVmTWj7P2L8jdz77/97Tqoh6+2oA+wPZDWoP0Lx+AGh9KJn9KZEOTm3n/j6wi83Ow6eOBmUhsf5Y2A6wf0U/FfyFs0Q27Ksp5vPI8HGz0iwB9MjrsqNoYnCSl7KFRzBEvrDYroxHANq8gHGuEyOueg4UxA8MbKbz9eujeZlucX174b0F7jNiAP9LqGz86YyMJgmSQWYHpLKUKa+jcMIo+TmlvzzsAAWF9n8aTP1IxwMYnPx2sP3uDX/AcB2HXiPn16kCHYT27jj+MDZXfegf2vgWnk0a6K+3Z5g/w6Fx/hyfx6wTXXtwf2HfgP3fLAZTt8hmQxAFtDw8jDIy47PG6wncHsNdPyjwOvumBgOX/5W/Sbmycm6JYkww+5RkUuhFnkflKWqhDDwdsaSjRbe+Vjb4PDm9GF1K1WDQP/fv4UJvQHJpGHxzJjc3C+6qYsxNdlWQ3D1nta1vmJMajGHC+ewcgI0TkYRB4NShvugM25u1oSHS+lQ2+D4TtDkN0FtetBQu/ZSTCH/Dwq1CiIN29f0yqNj3kpcwfkbyQyXJ+cBdQuB+F7gB4cY8i/i8xUBC4KqaSLzCqYpIO2L39hSDa39skzWRCqzBhCPj4VJz1w9mqRz35JMNo4e7WIdM9rTGVLfkyXzgzyfo9pUQj01FNt5nlpvN0L6IJ7TheEBiMbQT5ZFx4+PRlMi31xecChnc8R3u6dKj8NSYqNR7UJE8hLJiLIdaWspUWGM9603h4iz5FX+TRhcHZOf2AA+fRSGAgnfQUCoiJPD2/ahqU6XLAunbZ49DwzmLkn9COfuFR9gUBvylrGuCbetB14mtRWWqB0SXgkYAdBO/I+23FnpDuzYcZUOrxp4R4RzR3zlsc7gw+nV0iAB4X/QTfyMKHXMXBfuxSi9HzM9sPT7rSf/cSvLZnUo+INtE2UZTLaeLQ+DBLIvCLFlmtH3qNc3UvalfTJOest73Y69rzg4XEGnrXJftpFfzyiV6n1DaxXJInCwCmcMuUXQ83ImQMfJ20QJqtNAHDD84wcDNDmu+2s+EsGvUWbmyy5IV64HMuhFzlzA3lrMfcNtwkQOyMRBMCdiX/bHxFQqC1BKg440EHFvaoV+ZQy30C845MhfhlzZwMwFF76mEKHoxbZNnXr4U6oFhWgEzlVkywozEpdXAF+x/WMMLiKcMXUYVFyqnG+dABlz7ONYU3E6kR+IstsWwJNfZG9h5tg/xYI7S0dpP31M+154MZKbnR/stnXF1Ij8i1NlRXxnvOl9uJzf+u7c/d7Pah7lamqzxWBXBCtQ+PXkNNuDMWrgWtBe7QebpsHSB/y/oi6N/kFT/qnyv1GAfbcze57HsdTfxrH8+/dxvVwxecKRe5meroqCqpgWhPBw7Q+5DQCI+A/06R5KS4HBWB5OMZ1NtiPV4dlxeEMLlxfznhN7rBCSI825DFx69ojrjheeSV/GrYPQh9sdN5ZJb8jxNy77JMDhmxp418X8rBHd4HnIF3sihuObtymXa+dZMvyf9/xmPyZviZIR/XoQk5nwq0vsdgUJx3b+9e+5yhDhRAAPd5F3eGWlX6HNCFfEFFujzgqTFR20bz5RBYNi+uB15xBKUOFieQbuybk1DriCbR+Urho1u9HlZZYoseDToWobEkLPcj7ZMuddfPfxgy4DfZd9qdf+G89XkBD8vwmzOX8PnqQH7lPWU9idiuEXa/kjNkdmDOvWG3TtSAfX553jqdID5n55nYXQGmrOU6K6sCLFHvXgpxteVNalexWmecGnwW8cDiITz8r5e7TgZyGnOBmLF1MhdMrF42IJtSth4Km/5o8EsI2p5yQdCBP6do3wDG71cllo8186l5xmlyOvZTLuDp1ICdL7zWVmCuZmq0QRhzTtBtOFUASyCgVuKkBeZ+c6CZjp2cd1d+4OhGzfr3GeSenDQUSgk0DcsLEmqVUQhpFrhg/nTEdvfEFItNleJwG5CSwrPl1ulmeanghs0kbR4dIlUBi2urIJ88jjXD9xIUXqsurxtL6xFPbjE3t09fD7p9QR04Oe5O/HZXEbYVWQrOA8DiJb6gjH5Bv11XTcSLW5bsSPT5NyU1uVNDmhuWTMvL+szohajiaty26fGf6oeZ//aZPyOfbfO98UkYeixadnAUZ5sMhcoCad4ry187rq4ycXMHGRfMDkZSXIpJCiaz62wv9fmeDTRk5WXNc1zLIjLSVDcsFkjvGkkdLGfnTe2DnNdZDrRhpN1mdiKRopB7QqE6v64CqyH2BTIufujzCXSckIlIrG8G6BUBlS9e0D1Xkc8E1I1uE9eW4UsldF+kZiXPrahqoIic6dYOP0Z3QFyrDD3Mr1r6rbaCK/IkQwZo079MqlfqSLSMaoF4b0pfUZVSR5/aTwdWmE8tbEkIihS/t2kUni1yE7L9JisjHgrJoW1kp20JX/oUOnwUxOxe4VkQePfWVxuXb18JrddBWcKGfrA/ZHT2cishJKw5cf8wljBjrzPUk32q4nq4knr2jw0sRecrXXYmvBI26jdZOi2c8X2OK3wLx8oIUkZ9rKRKExk/FSnOtX0HpZJqm0VGgKyInd69uPC6IMq23ZQFhZW5Njmz5q/+KFJGT9Q5qnIzIXqy3WwxhZU7NFD8LrMUXpIj8yEc+ETA+NaKpOTXkcyJHOkpQReSrVuSa20Lt+ak5KVmQjuqrUeSa95zaJjWrLA0+CHnfyD3/qD0n99yrIV8IlA41EtzzH+837vlMINWeTwNaDRbG25GAw/1Z3k4lSs1dQIIoOttP7fRUDO3LR8hzgfZKGwpY3UZ7QTa/CQS5cV2tI0MWy45YLDpLMU0EiiFl+R1zAhWRk9k0WJkJKzUVCAwauNBxlRWRLyy+/SSypVVoxecprJx7x/clVW8UZWUCb1T3hz4xUadmzRolL5dFwum7wykiJwuOzHsgx8/jZV9qvpeJpARVRU6dYyKvs742j6nAqRlL6ouqyLcCsbbSrr/SNa6zjqOcOFdGHgv0VPLQp+91iTzgWV79FNGaIV0T3VWRh8T/X0+lYVFLuuTanD401D/09Pg3Cmq8JOW3VOL/D+rSNBO8fcoSfZutm/zT5+Hq7vJTRr6vleygxGKw9ZRboMM13ulnsq4AZeRzwUWnNQ84MaEydHje5mYwINGTQecS3MrIySuL3cgs2OrcdNpcvHG0qOJgdY4hV48K2whCdPok3F+LkU7Ug2bmBgmakolmU0YulNwsfE89YITmhDXtgKGcQ+ZLB3LCe5pvmSSC5bZRqirsgsaRLutbTlTazo9qXzqQ0+j95usO3XROrkM3oimvzZ3dUnWi+6AaYp2/RXYZjf9sLQnxBlFeyUnKo0xG4p1eA3Kfhtc3Thy9nvZIhb/HLL27capiehgkfD86sjloAGZTmaDJo04uXyctujjCS0OugZQbQAdy2qjYahxGlo3vSacMLzYkxRG6DadLn1gxUtJDB/I+YeKc20bPu4UPctD7FDhPS9vT+l8ywkNLph7R3e3mpheldYAU9AVLY+ZkLkU0dUjK26cF+YTUZeLVPljTPXtR1Y0/MMvm9Ti2GFlwCc31Tnoycom/BDVz9b4WtPCN5Y26uqZSxOqOuc0Tw5Iz5V5s9SCnZeBxPTrs634gKHSIu8n1jFVAhLwnC1LfoRny/h5pyrynZU54htmU5VIjcHh/ln5RogE2Apy/mHks7erThJy2uuC+IcYWK5zgvZt8H64wK37k8K7JmAhMW1ip6QXpqrCRCa2pG01HRQknMHqn6u3ZLaqLeEueOUJTXqUDTHUhpyU2ENfDXiqDatkgn7Uz4/C8LmqcWmDD21Sa/+y8riIkIG2VdEgJXUGPi8WhVDIKgtE+Fk54muWVKtYn3vXou2ShPelcX33Vk0jtA5FNerRLFc1tDJL9fNJAP46/16BcXspB/MN8oB/jCJN356sNuU9rGwps0jSvVAqDGIw219nPNOov7hSls+yQV6vmIZDwVQCa+CnN3r60Vkmjjggb8ae72AfVLin39hzYc6yR67qWc/tzrbVl4GR8QZA67Yv8FmlEzkpHOblAaqcDUMX+wP9oyYJQ/ecOGAh0vim55GoebZ01ASf2K5s0vGN/qypgADZzwSCLhCwfdFWqo2utgMls0pZK4/HAA3YDaO0YYDwQvsctaGkehJWeqPVWPS1s0han4zS7NJrNlGEHILiKMY1ZTSLFJBnNlW4HbFpt/tYwHroAeM2ar/eGxNbu3BLxMi6+IC/QnlPVi3zMiuu+KK0fTmenPHgUN3701XPuhY6BO1g1+v5VqM+6VnuqUYa66zr7zDB77YQJo+n5mJ0GvfV6PRh+v9FEMWKeCkdBkj9JexXzKSviyFe4lcZeUqEI1Tvg6a9cnzLW7S11tSp40o/DfByOemtTA90KCuhQ8XGlSkXJfsipntWZTHSomDPor1uIvE1RyUUjUI+7kZGuJKnN7A5w0XPizx7TewNXy5BmOtFMXTZPCL7Vtz0q1YuVrTRXJ0Pdh/ykcMIIC1O/TbNS5yXQU2tlxMhUx6myEwaCg8rFTEu+KRtcdTEOY722wj0unAweHsqKofRQak/n2PoS2g12lpsX/YJudpV9lcGeDnB5EIGLRopMdhOcHEr2KMLermOz38W5V/ZkQDzU18vIdAfJMmuykIfX2fsCyc/yMm4kKOUuTYa7hkbVQv0Qg/Uxfr3z4zhbY1z+zQALfHLSZLxT7DypumAg8JLT1hdz6HByvia1ziVQR3u6GhlH/hUeRzX3E/QwSg7ZPK5ZpTerNV3tkhtHqDZsgSA30JXdPPIbp1rVsd/bIQEALDfZHIbX7DvbD3eDTT7yAAjqnpp7t3oTrcnryM10Ae8fLV7jHWRDJ/AwBvjhmeE1AnfAZav5ghOq9cI21vn93myJ04a+nRAGsn1WXxILUyTIEa/bgB4K0x0A3PbvQtiwxQerShGJmKXImyUmddJifvIA5hz7BkFwg50aOn8PmlNNgyHXmyzfoDC9JqClydizzRhYZ+Z2+0lDevcoclvpxeY9WqSr9aOHXgCL9zR0Y3eP/kve5jvVqaXyieRClJDrLe/VQv7PcX9Y58ubTvsgOHKTwX6WqrsW3yLWatH6GrFNN7/gBYWLaOI/aNI3I7z4RANWLWv05dI1UAhD+HuIBmFbyCX1Ef7kef9FWhV+3N7Xvmi0qdVL/ok0KzxlOGMhhQ/oOksFfByFWSlgB/zQunPk7x2iNP828ovO0qTw2KmsVnuWlNvs4ymcDu1yqM5DcfMrQVsIO4Nj6kf9f4ciP131vErzTvRM/clKp+BxEG628j1g61+hu0fEqUCkOd1h0gjZegRs/SvUDDzzaNDs1HLq//ZPU1AEUU/dzs6Dv5hwOWAx6oH3XQd/N9ngULVKZ8HLOL1/gSCwGorq4ngBAN8Dtf5VunsB8hnPMgz9c7br/bu0+56XNdT/ANWDT3s2QU37AAAAAElFTkSuQmCC;" vertex="1" parent="1">
          <mxGeometry x="189" y="847" width="90" height="73.37" as="geometry" />
        </mxCell>
        <mxCell id="-ansJqmjGRNbWr8opuUd-36" style="edgeStyle=orthogonalEdgeStyle;rounded=0;orthogonalLoop=1;jettySize=auto;html=1;entryX=0.5;entryY=1;entryDx=0;entryDy=0;" edge="1" parent="1" target="-ansJqmjGRNbWr8opuUd-12">
          <mxGeometry relative="1" as="geometry">
            <mxPoint x="579" y="1015" as="sourcePoint" />
          </mxGeometry>
        </mxCell>
        <mxCell id="-ansJqmjGRNbWr8opuUd-21" value="" style="endArrow=classic;html=1;rounded=0;exitX=1;exitY=1;exitDx=0;exitDy=0;entryX=0;entryY=0.5;entryDx=0;entryDy=0;" edge="1" parent="1" source="-ansJqmjGRNbWr8opuUd-18" target="-ansJqmjGRNbWr8opuUd-12">
          <mxGeometry width="50" height="50" relative="1" as="geometry">
            <mxPoint x="638" y="685" as="sourcePoint" />
            <mxPoint x="688" y="635" as="targetPoint" />
          </mxGeometry>
        </mxCell>
        <mxCell id="-ansJqmjGRNbWr8opuUd-23" value="" style="shape=image;verticalLabelPosition=bottom;labelBackgroundColor=default;verticalAlign=top;aspect=fixed;imageAspect=0;image=data:image/png,iVBORw0KGgoAAAANSUhEUgAAAOkAAADYCAMAAAA5zzTZAAAA7VBMVEX///8iICH4+PikxzkAAACrqqv///2fxSvF247/+/+ewiLn8Mr//v+kxzehxS/t9NqhyDrs8NPU46WlxT+uzVEfHR7K3pb///ipzjoYFhd1jTDs7OyhoaESEBGKiorw8PATBR/Hx8f+//Rvb2/Q0NAuLC1ZWVmzs7Ph4eEmJiZlZGW9vb0ICAjn8MgZGRk8PDx4eHiwzFxOTk6XwBVDQkPc6q+50m7g7b/B1HmXl5d/kUunyEfI24fS5qCjvDf5/Oiux2AAABQlIS+Bf4Z+k0CovG/E3Hw+OEUAAA6RplFjYGjl77yqy0n1/Ny30XxCmqYoAAAKk0lEQVR4nO3dC1fbOBYAYOEYuRhJCXGCoCFk4yYQQgKkvNolbDq7O53dLfT//5yVbAKObSCVrhJ7RjqnlNLTx8eV5Sv5SkZoHW3T3Vh5WwvUSq3USq3USq3USq3USq3USq3USq3USq3USq3USq3USq3USq3USq3USq3USv+cUvyXkSKiID1rl1CK+Zi/gs2XNtvu6PNFs3xSVL+8f6UL50gFs//peOB0rs7KJ71nlRnGediMtDlqDo9bCDkOGe6XTop5wKZLSZujk8OBZIpGPhm6Ug1KObr22E5u/12UttuHrZhZUinhqOHf4LxRKSltup9enI6DSigVQR0H/u07vXfU7yacopXxOsUcf2ENHGLRxC9lbOVVS0hC6n7qLEI7V4ZuMwalslUr/jXiwsy5cAun5PMXqfvVSbXWSTmlaJdSTjgmIpCYh9Uf9d2fNzeTv/8t+sebowOUgqKeqUTRpFL22vDO3xWfIP54O/0WMF+0Ctv7GEmbbgbqoIMSSuVIhMn95T9maHb95c73WEW0IKgET1L3MAN10NBU4mtSKkPJw2/+992Gz2jlpcXS9pBkoE6rX8a8V2K3RE7oeV7S+SRt9ltZKOoam88ZZYp522waPPEopQtS9zTbd83lDYYzB85/PPg10XEXQxpJc/uuuXuMMam4QsMQh1/8jHIudQc5UrQ5MgU1FlOZ7m4Hnuy1udL2RU7fddC5ocmpOamA4h+i29ayzFjqDvKgpwbXl0woZdJH8P38+swGde/jb0e5Ie0byu5NSXkoIrrLPGGkUkvT2r2Pbjdv4DWWH5mSEr7Fp8y7i4Q0J6p7H/+ZE1EyGBkbeA1JxWRll9EkkqZj+q+8zmssETQllcsqbN5xKWU+pbV0TLvZW4zZvgsuxdGAtOM/J0Ys+PLj/oGlYvrvbCKIukYjaiamYRAwGvdeFtzKL3xjC1L2+1ZGOjgxdys1IxVRnb4MQWyKCA9FDrEQVO9DuvOSjskbjBGpSBlu/Xgkkji/LoZivDVrpKRbK4eCX6eYzCYJlbeLCAm3thev07QUDcxDgaUCiure8z2FVrzGo6DyD+wtKeqtAAo/9oaNWuKeQr1v48fZ1Ku8IUXHZyuAwktv/YXRh1IxcWP09d6LWhduIjVqNs/Omk0TuRI0FDfoXEqfE6T0JPVFipzNk/mUdL/tuqON/vl5/6Q5ct028F0HlonQtl8LFhNdStPJYCyVS/qtzZMooM19Ift8eNprOdFf5bR6x4fnrrsPGFxAqVxoQN9ZJXeZISVFzkBYrlzpbIpYHh30pDF59Yrvw/HQdcGskE5MQn6XVdJ0SEU2+EdfdND2fsTc+CSfEeetKgns1z6UFU4qp2t4h2YmozlTcTETl4NO82wkn/i3SN7EZo7tHPRhJnOgUoyuvZyemyP9jxx+TsSV+SZzPjiDDE6QUnGZ3rAsNNv2/vu/4cVBd+Cg95ix9fQcYJ4D6JQD0kNmnM1rYkSSbRnlU1iP9OeugFK52LBUSLMZ/vvWQ20qoFOEdPY8BX+zsV+WAqxIwEnlgFS9jPKE95qC1NGuNQSV4p3L2jLt13tvHFWtuw2gFBG0fcmWab6K1EFftR7aKLNw4uP8Szwc7yzVZgpQQb3Q6cDKUi6HWhJ9Elc0RGUp88/ea0pSvVolZSnBIcfh7U1Ag8l1SEQmKIekZf+wWkw7R+uQYr6FboNoBKr4VK51Ik6q9eXaWOk6HfR1UiVlKeJ46lcCOe0ORGZbj5YFf1x6zHt/RLpUGnt7J1qLMMpQgupyZf4p+aP+LSKcjP0lckGVHEmu8WuuNqnH9DFITFJoUJmJ63TbmBR1dedu6lLRd5PSy7q45RiTom5bd5KqDA2DhcdKLJiE5qSop7+ipCyt+iy13Cm6ryEpgXg8BSat0KqxmHbOAZa+4aRelRuSwhSeaUhpQirmap6pmALtDdOQ1lYkbZ2td21wUVoxJ4Uqmiy8lECVqxdeinTmL2WSgoW08FJ0AVW8AyOlxqStDaiHbQWPKToGKzwruhSs80L1XjE/NSLtnK//SXEqRwrMxHQAV0xYbCngZVp0qd6yfZmkcAMS7P2UgEsBy7iLLSVHcOVXRZfCVRQWW+oUTloxlCOhwvVeY1LAIw8KLi3cXcaYtHiZgylp8bJBQ1LS+6vE1GkVbtZmbCYOlw4WXQq3ra/gUjIAK08vuBQwHyy6FO4QxqJLnQ7UNiEYqbmVbZEmrf0JlJcTUyP1SEDJA0xMo/++qeenQFeqsnTHX9jmTgNWJWZqV9AVyPCrEdOkU16pM0M1ZqinXXWlJQ0T29fkgMQm3FSVDsygpCxFk+DlnBG5y/87MVc3eLTOnUFkzOTmmHhzKfUCf5uExmpBIUqvlKUhml6yuHSQ0jvK6rLo3Fjd4GBDm6oeU46/RNWu0bjrfw+JsevUiUokdanKUoxROA28qJrZq+zGR2EarO/tNTWp6lL54/amwRh7+D5GBJmVig6suWFRWSpGWkK28GxWrc7iUxQNXqcRtTPUmqsqS2VIufTKk7zkibXYZM12bN1salh1pNIZn58Y75QxG1NJdb62XdXnF1pSvPgzx+J+utxOWzWptB4PFal6Uryw8UnG9N0TDvSkGocvakkz7m1Te4oT0s/riGkKyskjjTZEvdeDdaQD1WwfThqNvhNvme6rIVVfAAZ0yqDWPWZYqvz4Ak4anQPFJxVaeTklM9ON42meyj7xJ6h6uS+sFJPqnV8L5A7GmjQFQRoq70I1Dal6UT6kVGJRtXEpenCtJk9TpB5LOeMwq/de5fEIWioPvZ9NJVCeZcCyEZUbVilV2xEvQ3qoviQKp4yPjxSjEq/WbyZxCxbvr5TuNaKv1xWlOodTw0nn4Gg6h+XbGzj/kDqqjU7C6HcUd8RrLZ2BSxNmgna9VEwbcfKotiNe77xxQ8joA05LK7TBo9eSqMVU75gZA8LnX2SkNJJi1ZgOtPZZwEoX2a/GVE2qWYZVHinprWkdaeVS9HldpxysWKpdblYaqaO7+78sUr0Tg0okBXg9VEmkHf3n4uWQAhzCVw4p6gLUr5RC2uoDbDwogxQNIUqSSiCFuEgNS/Pmp78+l4GqxV+ptCJn4pL6C1JxJ4UpkTQoRfI1M9neK88nXF6KBhtA26CMSsn9QkxpRZZn/VLvRQOIo5GMSzEap2Iq39A8X5dYErr+HQdLQDkOHxLHA8jHFGPEQ/Ed6HRPT6PDp9/26h4xuCqpvM3U/cSjGY9OOIlieuBG7WQYHYP/KnRT+VH/aqXyjcT4xo9Xt+UTmYDtPP3GU8luc3/kbjy9MT3rdC7gjv03K42qWaoT/7n7smt5TmpCGmnbIrSnGSxCp+ew71g0KUXyQc3spx+90Yx5d9vPL4xfLMMW2POL08SZ8eKT7nBU3Dd05EsRH/+8E9Rv92H0hCpHGmNPjg5PBx0JbfW+fnbB3/RlWBq9YZHLOrQwLnN5RboRv4/E7V8dHV01XdfAq3WMQ0VSSORTJxKVab0hjbln+/swR9GtWorik6lRdHd9+RrYxqZCSZ+8KPnU5s8sXWxWaqVWaqVWaqVWaqVWaqVWaqVWaqVWaqVWaqVWaqVWaqVWaqVWaqVWaqVWuj7p/wFYNXbCC/8nLQAAAABJRU5ErkJggg==;" vertex="1" parent="1">
          <mxGeometry x="450" y="390" width="129.44" height="120" as="geometry" />
        </mxCell>
        <mxCell id="-ansJqmjGRNbWr8opuUd-24" value="" style="shape=image;verticalLabelPosition=bottom;labelBackgroundColor=default;verticalAlign=top;aspect=fixed;imageAspect=0;image=data:image/jpeg,/9j/4AAQSkZJRgABAQAAAQABAAD/2wCEAAoHCBUVFREWFRISGBUYGRgSGBgRGBgRGBgYGBgaGhoYGhgcIS4lHB4rHxgYJjgmKy8xNTU1GiQ7QDs0Py40NTEBDAwMBgYGEAYGEDEdFh0xMTExMTExMTExMTExMTExMTExMTExMTExMTExMTExMTExMTExMTExMTExMTExMTExMf/AABEIAOEA4QMBIgACEQEDEQH/xAAbAAEBAAIDAQAAAAAAAAAAAAAAAQUGAgMEB//EAEQQAAICAQIEAwUFBAYIBwAAAAECAAMEESEFEjFBBhNRIjJCYXEUYoGRoSMzUnJDU4KxssEHNGNzkpOi0RWzwsPS4fD/xAAUAQEAAAAAAAAAAAAAAAAAAAAA/8QAFBEBAAAAAAAAAAAAAAAAAAAAAP/aAAwDAQACEQMRAD8A+zTiTBaUCBAJyklgIiICIkgNZYkgWIiAiJIFnAmUmUCAAlklgIiICIkgNZYkgWIiAiJIFiTWIACWIgJJYgIkMgOsCyxEBERAksSGBZIEsCASxEBJLEBEhgQEsRAREQJLEhgWSJYE0iWICJJ4s7ilFPKLbq0LbKrsFZj6KvVj8gIHuiatk+JL3JXE4fk29vMyB9iq+oNgDMPou/rPHZw3jF/v5mNjKfhxazawHoWfQ6/QwNxscKCWIAHUsQAPxMwWb4zwKtefMp1HZG80/wDTrNZ4h4Mwk0biHEMi07sBkWhQdB7RRd26ehheIcJxN6cPVl0AdkAIJPKur3sGUE7BjoDod9joGSHj0W7YeBmZI7OE8qs/2zrp+IE5/wDinGH0KcOxah6X3+Yf+jTT8p5F8U5+QQMXBATVdHfnKlT1PMwRQRtsObvN2x+blXn5S/KOcpqF5tN9Ad9NYGk5HivOobkvx+Hl+vImYlD9jstnyI/OZSjxrQCFya7sRzsPta8iMfuWrqjfmJ4vF/AC7F1ysagEsxbJUEqWRUblYsBpouo1BKksQRqNOzD49w+jHrxzlJkhKwhCj7UXA1+FAQRsQB8tO0DbarlZQysrKdwykMCPUEbGdk+XI9FdhswmyuHuTryZ1FlOFcToArc2yE7AEEfITcODeIxY/kZFZx8oDXy3Oq2AfHS/SxfpuO42gbDGssQESSwEhliBBEsQERJAsROJMDlEglgSWIgIkiBg/GHGTiYttqjWzausaa62OdF276bnTvpNR/0V6F883e1mh153sIezkI7N6c2vTbde2kyvjWtny+EIxApayz3jovnAJ5Z10PthPN5PvaTq8UeFbFdMzh2leRWoU1jZbUUBQuh2J5QBoeoA6EAwN6lmh43jOzJo/YIEya20ya2RrrKkGoayunVTaNdBy68y6+6x0B92JwNMpA9nEcrJRt9KrBjVn1HLQFO3TQnUd4Hq8QLw5XS3LsqR1HKpe5qie+nKrDm+mhmPo45QNsDhl1x6B66FxKv+bYF/QGZ3hvhzExzrTi0o3dwoZz9XbVj+JmXgaoicWu958PEU9kVsy0f2mKp+hnMeFGf/AFjiGfbr1VbBip/w0hT/ANU2eTXWBr1Hg3ARuYYlbP8AxW817fi1hYmZzHxkQaIiKPRFCj8hO4CIHXbUrqVZQykFSGAYEHqCD1E+d+I/D74qkpW+RgA85oViL8QjfzcWz3lC9eXoPpqR9JiBo/h/xTyrUL7hbj2EJTmgco5u1WSv9Hb25tlb5HrvE0rjfhVka2/CVD5gIyMSzTyMlT1AB2R/Q9NfTU6+DgPH/s6ne18JDyWJaC2Tw9v4LV956fRtyB6joH0STWdVNyuqsrBlYAqykMCD0II6id0BEksBERASQTJ1gTXWcgI0iBYiICIiAiTWIGN45wlMqlqn1GujK6bPW6nVLFPZlO88XB+KOrLjZei5AHsOu1eSq/HX6Pp7ydR1Go0M2CeHifDq8hDXavMpIIIJVkYbq6MN1YHcMNxA+f8AjfIwjfXZVlrjZyhXS0K3I+uoCWsqkLsBu3ZhrqNp3cDzzfY3Iy4nEwA1lbe1jZY02s5QdG1G/Op5gO7LMbxfDyOG5P2hgt9TquOzuqhLKwvIEv20SzQIoYaK2m+mpEx2Ri1rjV5HmVtjc+oGM7Lfgu7ahqeb2+TUgtUeh3U/FA+ncI4+LHNFyGjKA1NVh1DgdXpfpYn03HcCZ2fPPtiuKsTioXmbRsXNrJrWw6eyyuNDVboR9fy1yqcXuwWVM4l8ckLXmKugBJ0C5Cj3D98eye+kDbZPpONbhgCpBBAIIOoIPQg9xOZgdJuI6o4+YAb9FJP6Sfa07sB8n9g/k2k5Fm/hB+h3/IjT9ZxOSB1Vx/ZLD811EDuB13E5Ty1LUdSorJ7mvTXX6rvPSYFmB414eW5hdU5pylGi3IAeZf6u1ellZ/hPTsRM6JYHzrh2Rfh2siU8pOrvhBtUsA3a7h7toD6tSdNNe3U7twrilWTWLKXDLqVPZlYdVdTurDuDvLxPhtWQhrtTmXXmB3DKw6OjDdWHZgQRNN4lw+7Gs87zuRtABmcvsWKOlfEK10HyF66ad+XowfQJJgOC+Iha/kXp5GUBzGpyGV1/jpfpYn03HcTYICJDAgJYiAiIgSWJDAskCWAiIgIklgdN9KurI6hlYFWVgGVgeoIPUT5xxvwlXjWC00i/DA5SCnm24q666jvZSAWGh1K6g7hZ9LJlAgfIeHZeVlUXtbfTlcujXYLoletR3SzHuTvoRykd9us9nCPEf2asB2fK4Y58rndQ1+KTsaMhO4HT59uyzJ+JfBzI32nAASxWNjUgLysToWasH2Qx0GqH2W0B2IBmL4ULs3LXIWqhEI+zZSqr/tx7eq3UuvsMAh6kkcybnXYM3Ti24ai/hzfacJ/2jYobmKA9WxX/AF5D89Nzts3BeM05Sc9L6gHlZT7Lo3dXU7qZo+dw3J4Q7X4nNbgsea3HYljX6sp66fe7fFqBrMhVRVnD7bw24U5Y0Fmo9lz/AFeTWOvyYfUE6CBvcTXeBeIxc7UXoaMxBq9Ln3h/HU3R0+Y6d/WbCYHVZSracygkdCQCR9D2nHyP4Xcfjzf4tdJ3ywPMVsHRkb5EFD+LAn+6c63Y+8oH0PMP7gf0ndEBODKCCCAQdiDuCJylgaZxvwwAgVKzZjqecUKeS2hhuLMOz4CNP3Z9k9tOjefhniZ8dU+0P5+ITyJmIpVq2B08vLr01rcHYtoN+oBm8kzC8V4KWZrcdlrvI5XDjmpyF005Lk77bBx7S/MaqQy9NquqsrKysAQykEEHoQRsROzSfOeGebjtZ9iRlKHnyOGXtuoY72YrnblJ1009k7jY7DcuCcbpy0L1MdVPK6OOSyt+6uh3U/8A4QMpLEkCxEkBLEQJLEQESRAs4ExrOQEABLJLATXeMcDcv9pxGFWUBoebXyshR0S5R1+Tj2l/SbFEDB8D48t5et0anJr/AHtFh9pdfiU9HQ9mG30mv8c8HWVWHL4a4qvG7U9K7R1KgHYa+nTXccp3mxce4CmSEbmau+vU1X1bWVn0+8p7qdjPHwnjrrYuLmqteT8Dr+5yQPirJ6N6odx21EDFYefjcVXyb0ejNpPNygmu6px1ep+unTUfTUdCfVjcftw3SjiJBRjy1ZqDlrf0W5R+7f5+6d+mk93ibwtXl8rhjVkpoa769nUjoG005l/UanQjUzE8P40WJ4fxWpBaw5UdgDTlLsNVOwDa6bbb6dDtA3ZWBAIOoO4I3jX7p/T/ALzRAb+EHfzL+Ga9d3txdT37tWP0+vvbvi5KWIr1srIw5lZTqCD3BgcbMpR1D/gjsPzAIkXOqJ0Fia+nMAfy6z1TgygjcA/XeBynHWec4FfZFU+tf7Nv+JdDOB4fp7t16/R/M/8AMDQPaBLMb9nyB7uRWw/2tWp/NGUfpOS25APtVVMvrXYeY/2GQAf8UDo4zwZcgK3M1dyamq+vQPWx9NdmU91OoP5TWbcVnuUWMMTiagivIqH7DLVd9Cp2Ybbo3tL1UkbzeUbUAkEajXQ6aj5HQkflPLxPh9eRW1dq8ynQ9SCrDdWVhurA7hhuIGN4Px8s/wBnyaxRlgahNda7lHV6HPvL6r7y9x3mwTTM+vkUUcR1so1Hk5o9hq36L5rLoarAeli6Ke/KTofXRxK3EZK8x+eliEqy9Ao1OwTIA2RzsA49lvuk6ENnliSBYiICIkJgWJx5ogcoiICTSWIElkMg+cCzwcX4VVk1mu5OZDuOzKw6OrDdWHYiZCIGo4/FLsF1pzX56GPJTmHbc+7Xk9lbsH6N30MzfGeEU5dRqvQOh3B7qezK3Y/P/Ke3IoR1ZHVWRgVZWAZSD1BB6zUyl3DN1Fl/D+6jV7sQeq97KR6e8o9QIHnx+JXcOK0ZzG3FY+XVlka8oOwryB+nN/8AfL2XcLuwWa/AXzMZjz24YO2/WzGPY6b8nQ9u2m0q1OTTqCltNi/J0dT/AHzVvKu4WdUD3cO11Zd3txAerJ3eodx1Ub9jqGycG4xTlVi2l+ZejA7MjDqrr1Vh6TIzUM7hBdlz+G2ILmUMyg/sMpfR9Ng3XRuoPX1GW4Bx1MpW0DV21nkups2sqf0Ydx10bofzEDNRE67WYD2VDH0J5f10gdkk8/mv3rH9lwf7wJPtDd6bPwNZ/wDVA9UTxtnKOqWg/wC6sf8AwgwOI192K/7xXq/xgQO+ysMCpAKkFSCNQQdiCD1E1nIwLMNWFNRyMI6h8U6O9Snr5HN76af0R6fCfhmx05dbnRLK2+SsG/uM9EDSOGcRFFfm4ztk8P8AiReZr8TTqFU+0yDuh9pR01Gw2/Dy0tRLK3V0YBlZTqpB7gzAcX8ON5jZWE605XxgjWnIA+G5R39HG4mAwMuxLLXxajVkL+0y+G2sFD6+9fjN01P8Q9lttdD1D6LLMZwTjNOUnPS2uh5XVhyvWw6o6HdWHoZkjAsmkCWAiIgIklgIklgIiIEliSBYkkJganl8IuxHfIwFDIxL34evKlnq9B6JZ8vdb5GZvg3F6cqvnqbUAlXRhyujjqjod1YehmSAmucZ4A5f7ThutWWBo2uvlZCj4LlHX5OPaEDxZXDLsF3vwkL47Hnvwx2J96zH/hbuU6Ht20ZuGuatWdgWqmSgKqxBC2Ae9j5Cdeo00O6mZXgPH1yC9bo1OTX+9osI5l9GU9HrPZhOjiXBnrsfJwtFvbe2pjpVkgdm7JZ6OPodR0Du8OcfXJV1ZDVk1+zdQ/vo3qP4kPZhsZnZpmTjJnhcnFdqM6gmv2xyujDdsfITuh9d+uq6g75Pw74gGRz1Woacura2lv8AHWfjrPYj1+hIbBJOLg6baa/Maj8p0M1o6JUfmXZP05DA9UTxiy/vVT+Frn/25y57v6ur/mN/8IHplnl85+9TH+RkP+IickuY9a3X5sU/yYwPRMTxrgleSELFktQ81V1R5bK29VbuD3U6g9xMrrOPWB884hRal6sXrxuIkciXgEYmeB0S0fC/3SeYfCWGmmy+H/Ei3lqbEajLQftKLPe/nRujofUf9tcpxHh9V9b1XVq9bDRlfcH5/I+hG4nze/DUZlWC175AGrY19Lc2XgsPhsdetfT3vXtoIH1SJrOBxi+grTnhQSQleVWNKbSdlVx/Q2HbY+ySdAddps8BEmkQLJEsCCWSIFiIgIkMkCa6zkBLJAsREDC8e4AmSEYM1WRXqar69rEPp95D3U7GeThHHXWxcXNVa8nfkddqclR8VRPRvVDuO2omyzH8X4VVk1mu5OZDuOzKw6MrDdWHYiBjePcFdnGTiOteWg5dW9y9B/RXDuPRuqmYlhXxNedC+LxHGOm+1lL/AMLj46m/Ig/UT14/ErsFkqzX56GIWrMO2hJ0WvJ7K3QB/dbvoZ2+J/DrXMmTjP5WbWPYce7Yv9XZ/Ep9T0gXw74iax2xspBTmoNWTX2LV/rKT8SnQ7dRv6GbPNCx8mjiimjIVsbiFB10U8ltTjT9pU3VkOxI19PusfXwrxFbRYuLxEKlh9mrIHs1ZA7b9FfpqPX01Gobe+w6E/Iaf5zgLD/VsPmSv+TTuiAkJmFzvE2NUxr8zzLQNfKxwci3/lpqR+Ok81mTn36immvGQ9LMr9s+nqKUIAP8zQM89gAJYgAbkkgAD11MwreJUclcWt8pwdCaNBSp6e1e2ibabhSzfKYvi3CseipsjiFt+VyaHS72q+YsAoTGXRNdSBqwOnczpxLc7PVDU9eDiEKy+UVtyWRgGTp7NQKlT6jUdRAyd3CMvI/1nK8qs9aMDVSR3D5DDmYfyqn4zK8I4Nj4qclFKIDueUe0x9WY7sfmTMdgZT0ZCYtlrWrYj20PZobP2ZUWVuQAG05lYNpruwPTU7HA6b6VdWV1VlYFWVgGBB2IIPUTFcMBotOMXLIUN1HOSzKisqvWWO5Cl05Sd9H0+HU5exwoJYgAAkknQADqSewml8I44ubxNmq1NGPjWIr9ney2vVl+7+yIB76HtA3iJIgWIiAiIgSWQwICWIgIiICSWQwLJJ9ZygdN9KurI6hlYFWVgGVgeoIPUTWlqt4d7osuwf4d7LcUfd72Uj+HdlHTUbDa4gal4k8PJnJVkY1qpkoBZRkVnUMOoUsvVTqdDvpqeoJBx+FxhMoNw/ilC15B2AccqXdg9TdA30Prp3AzOZgviFrsSsujMXuxl0AbX3rKAdls7lej79G3PLJxMPimOpOjodeVl9mythsRvujg7FT+IgeThmLxDGLY6GrIoAHk35DlHRf4LFVSbCBpoRpr6joPVZ4ce7Q5mVdaO9VJOLR9CiHncfJ3YfKYhcvO4b7N6vmYY6XVjXIqX/aJ8YA+L5HU9BNp4RxejKQPRajr35T7S69mU7qfkRA78HAqoQJTWlaDotahR+QnqiIGF8R8IXJrKMCygNog0GrHQcyk9HC84U9AW1PSfNzwTPxw1KVtYoPIrrddRqis2iOiOvONSeXfo6g7EAfWczNrqUvbYiKPidgg1+p7/KYG7j+Rd7OFiMwO3n5gbGpHzVCPMs/BQPnAw3hfwvZU65eZaisilURR5VdVYLggDYKp1RugO7a7kmejjP8ApIxalfyA2Sy7E1aipSenNaRpv90Gefi/DcesLZxbOa9tdUoGtdXN2FeOntOddtTr85xv4ffnolNeFVh4SsHVshB5rEAgMmOpCrsT7+vWBg8HjqZ/m28SyjXj1FSMasGuqwnXlVm1LWttryD0B2G02n/Rxwdqq773Rka99UWwcrLQpPlgjsTzMdNB1GwmR4J4NxMYhgnmWj+kv0dh/KNOVB/KBNkgIiICJI1gWTWQmUCAliIEliSBYiSAliICSWICJI1gWYDP4Ky2Nk4jKl7aeYjainIA7WAe6+mwsA1HcMNpnOs5AQMTwrjddzNWQ1d6fvKLdFsX5js6Hs6kg+vaYPj3hrGDi6mx8XJJ0D4rKnOepDVsQr9dSo3Pzmd43wGjKVRYrB13S2pjXbWfVHG6/TpNY4h4fzhqNaMtNAOZ3fByCo6K7V+xaB94fhAvC+K8Y1KHHxr1U8vnWeZhc3pqrpqSfurp851+JOL8UoWlmrq9t+TkwFe+wba/vbEKqT0A8s/We3Ev4miJVTw3DoVVCr5mRzooH3a01nYfDOTkb52fYy96MIHFq+as4PO4+pEDru4pw/EcF2e7LPRQWzsnUjdV6hOnQcq7TsNnE8v3VXAoPxPpflMPknuV6j11Imd4TwTHxl0x6K6wepRRzN/Mx3b8TMjAwXB/CuPjsXVWsvPvX5DG60n+Zvd/DSZ6IgJJYgIk0iBZw6xprOcCCWSNYFiIgIiSAiWSBYiICIkMBOI3lAnKBJZJYCIiAiJICWJIFiIgIiTWBYnHeWBYiICIiBJZDIogWWIgIiICSWSBZIEsBERAREQJLIYEBLEQERECRLOBMClpQIAlgIiICIiAiIgQQYiBYiICIiAkERAGWIgIiICIiBBBiIFiIgIiIEMixECmWIgIiIH/2Q==;" vertex="1" parent="1">
          <mxGeometry x="579.44" y="390" width="120" height="120" as="geometry" />
        </mxCell>
        <mxCell id="-ansJqmjGRNbWr8opuUd-31" style="edgeStyle=orthogonalEdgeStyle;rounded=0;orthogonalLoop=1;jettySize=auto;html=1;entryX=0;entryY=0.5;entryDx=0;entryDy=0;" edge="1" parent="1" source="-ansJqmjGRNbWr8opuUd-25" target="-ansJqmjGRNbWr8opuUd-23">
          <mxGeometry relative="1" as="geometry" />
        </mxCell>
        <mxCell id="-ansJqmjGRNbWr8opuUd-25" value="" style="shape=image;verticalLabelPosition=bottom;labelBackgroundColor=default;verticalAlign=top;aspect=fixed;imageAspect=0;image=data:image/png,iVBORw0KGgoAAAANSUhEUgAAAR4AAACwCAMAAADudvHOAAAAkFBMVEX29vYAAAD8/Pz6+vp1dXX+/v7u7u719fXs7OydnZ3m5ubIyMjY2NgoKCjb29vy8vKxsbHR0dGPj4+7u7vFxcWlpaWrq6tgYGCJiYkvLy/h4eE/Pz+WlpbGxsZmZmYeHh5XV1d/f38MDAxHR0cVFRU1NTUkJCQcHBwtLS1ubm5SUlKEhIR6enpcXFw9PT0LCwtZps6PAAAKOklEQVR4nO2da3uyOBCGJWPwgBURtdZa67Fvte36///dciaEAQNKISn3h732srQrzyaTyWRm0um0tLS0tLS0tLS0tLS0tLRkQyilUPeXaCoAk832bANkKEQIBM8BIeSv6QjmRXM5WCvdeX9eJBhuNjp1Pu+vRsZkMN1N/oo+4POjhVxftlNbZ8YHOLNuommX6eb1KXxoR2v8yr8GUFhZhjXSbY3jeRbMpg6szpvtkfvxn5CHrr788XDl1XG4jHwJyDTx8f79dNh07T8wucgcUYVhQbynBs6/Hg+vzj+fjNFK7znzkfwBdeg6Xx1NW3vjZzh/c+z10B1hz1kLm3qQlL1JM/f0Ie5y74v53Pkj+kAfMzg8VqQG6J6Z2vwRfWhXQB3tJRaDTLxPzjV+598DRiLqaNqAxL9y8PX5C8OHPIvJo+nx9DL8T7ok7w+rAKGGoDrB6uX/1sb/6FttfUjP/snXhMWKxIBx8JHSPjN9+09cHMc696PpRb+Cz77U1YcOioijsbYY+uFnS1XnV7A+F2EejZVY2qma+sCwsDqaNo7GTy8KaayV1IcsS8hziaRgxt5ARfvTO5WQR7Pj1eugsj6l5pamHWJ5GIdprpw+JeXRVpH1CX1DNfXpZ0uQRxx6T2zWFqrp03stJQ+zTtEdK5ti+pRauRw3MJYBhnvmB7Za+sCqlDzsLisZhFVMH1pq+CQ2oeYT+6OZUvoAvJeQZ8lqwO1LlNIHRONgCZJbLEjad4X0ITdPb1AmSXm4YJqhzP5L54+DxRgnA8yUG4KWIvqAVUqd//iMDS6Qfx2poQ8/LQQZ8G9Pv5MPHNXQp9ye69hP/x3uEPF9rIY+0Y5yIB5xnqdfPXVA/7FS4fwr8prXdMOrkAn25voT99CL/vtv83hg5Qa0TjMqdors8p6aWw5kISKifACxbMtNufjGpMA4424ft/f/NH/5RarCTz8VHz0jdFiQWfKpZyVsc4So7fmYoe9NyCoZtk4t/nIjIs+/wdrWkdcGYtr83m2mhOmJEJlcNk2lOLvawOiLX7c0baiWPAKbU+woHUh/cUCefe39/itUye39xb7PDwhn4BgZg66rTlTDp/dxQx5+LSJ0uH7JeniilmXmjhwwbPaNgZq5WUH46i8xt2bXgXmUgPX1L+/hk2Kmx6GXuyl9iTYJGdZ4v2OWLwUTDnPXrtdgoQbSM7r79M8Piz5lDNFCPXmiXEEMf+wAWa2RMfZvZ7l1FYxtH6tmehxItq3dUNw3drlM/HIvMz4S+lTP9OQm0k2p6xsjS//7dEyCicSE9c/qzS0HPfNI0DZR3/jH7sV1gkxVhoKmp5N3onxBPvtcr9gaWzZurZzX45FrnDnOb51klRuTzfCkoulxgK2YNq/zYaoCkJFno+TcEqt5045do4OURzJDDznKUINeOnDD4fh/eOkoc1RqKWl6OjejPscvK7OuljmQVtT0OPLk5WKG/h9OLM+ParEeHzdIkZnuc4z9v4zfjnb8KhZYuEGKHbLXDLmOb4yJWB5DOdMDdHjrkP2k5781RAddikXhcydVzE++xYXQKTipNLe8yN/N5dxjl297wg1txiGzjAAZzrG9Jk5uVkG031fFKQRizs7C2jjkNlqJOpS8qWB63MPN6WcRcdySkpw3J2HlpAKWGai+wIIUN/h5A5rlNYcO95PsmStAodikYjid5yPcPQz7Hv1IbXqA0NG0TKFAzMsA21yExT0yF/077h8aFS3KtJ8SiARF/9IGUh33r/Sk4jmu+bhGeAgtZzTDXamWBVeqXN4HyUyoIDnxOKzrDe+AFHL/BPlIJCUE+VOvkgwe6ISZXEB0WzxruQAn1gBRf97KcMTltjK1Txc3S9JNUfrOzaa4g4sRCxSUbEuQckks2/AqYNeUjKaZKUqPYBOFgYIGUs1PuWQ6nnbRIM5hLrZFF2IazOHgEKjZyfDOrKJ67uu8TEe0nxMWLMyl52dveJuUl2ZvKazhpLvMHRs2hZJVblkEzQu9lbHRJ4DOtvDmuDCAiXs+hosJYXJZo8PwfFEnS7B6ufmlJVo+5bN1/tumVzTQ6N672fIcgjzSDzcawzUVfgBLElT7NzktDLIy/58N6gfKr16RsHj1jTAzorvJUQ0uUwK6WmJ119fuiNKVb5P8Euq8OViSD91LDvtp6OAB2rEzsk/OpqPOE6NOsMg8lp3pJoc10zI7A2edk/N/nvp2OWzfkCr8fASGO3oaaJmBdGZCO85poE7Zllj5HFx5GuczAx3OxWqsP8JTziI5csV4b5hlJmBhOeoo0fEcvFUlT6MKSN3TmAJGNiosf7hXGNGg3qluHnaR/inx0Tcp2kVWmKZYZiA9fB0/zLMki7961Ej44TTDZ3bWcfyo6tsiWe9+jZs2kEoiqxpj/GsECMxQr/d1YVJgmign2TC99CrwCj22tZseN40LjY6eDfC/XMZdLuypQhVeoUvNPrMbVkfP8T7XTJY6OjjYxICSHbFuU2sYHmh/gfbw3Nome2KJen1MTlJ1XmGddw6AtcP+r+/dSrzkkzTt12zYP1SuI5YAl/rkwUv1ToMhkixBU+EutterUOFEKU71resU2ZFvZ1jthwPZcU/umb1iyV6FAlyxxke/A00tN1/j7Fy2VLh0Gz9aQawwpD63kJPnNM+rb0DsT9zKnZbImhOkvnz4hDzPBm+OU5Ah5wKMaPArZlVuT52pT7E8x6+xyGV8AEn38TDx07arCYb51LdjD+X5b55RbpYi7T57E+zBR6QJ6usN4cvznLVWYZipvBV3Z5Fuofc4DvXZng/tuBsVuuISuR1oBIhT9Dj+1RZMJYdBOhv0BmbKV3rpAy1wGVdhUg2ifo/il6Mim/cLYP7lw5ArLdVMxz6+zQrV0eS6Whszw4/KbEaRILOQpUIXEEWyrk/VHUrgXKSaXGVvMSmNZC3VHp/olM9Vrlq3VOCnauRa2aFfpZeD0JRzUkH4LtNVI9sNkzd7fT6Wb9lqARHPuUK2ck2uauM7aRqcmppB6oqNSpFrZXeB6mLvaeRa2V1g9cgCnBvYki1dnSrPRdNItmf3yFrdK0jVqDMNoTQZraoryIOqPwWqBPz9az6nCkJj/M1vckCx45tlBfKg9y81H4IkHhjlbkTOp3F1A0KAmbqZ/jCsYsGXz/HxSJufRSWhxOYXsuPw5mdvVuIOSdughst7mlI8xfdOmlnxJkLycvp+udu0byFv96fE5mtNyeNLSjWpuzqSOGf3swcgfhVpAaR0mwNi8+ysv9n3LtxDfTk+DyA8dZ+RjI3G3TS8ycgNiOXsQw9uxXZF2fFNqyctCMB47LXcua9m8nm5HkzsWTokspf9tt+gHxG5a12fUEIIxU7R5NyTpihwSTSC5/2hNwXLF4xHua8o0I8KYmdoisijX5F3E8YtWceP0BSRp9+9hzW47eHPDt3u9+5rOV0P5gvHVhuGXCk+2ZB7CC7DA+A+Tt8K3NLS0tLS0tLS0tLS0tIiBf8DP0iTz6tBPicAAAAASUVORK5CYII=;" vertex="1" parent="1">
          <mxGeometry x="-70" y="395" width="178.75" height="110" as="geometry" />
        </mxCell>
        <mxCell id="-ansJqmjGRNbWr8opuUd-28" style="edgeStyle=orthogonalEdgeStyle;rounded=0;orthogonalLoop=1;jettySize=auto;html=1;entryX=1;entryY=0.5;entryDx=0;entryDy=0;" edge="1" parent="1" source="-ansJqmjGRNbWr8opuUd-26" target="-ansJqmjGRNbWr8opuUd-24">
          <mxGeometry relative="1" as="geometry">
            <Array as="points">
              <mxPoint x="1060" y="450" />
              <mxPoint x="1060" y="450" />
            </Array>
          </mxGeometry>
        </mxCell>
        <mxCell id="-ansJqmjGRNbWr8opuUd-58" style="edgeStyle=orthogonalEdgeStyle;rounded=0;orthogonalLoop=1;jettySize=auto;html=1;" edge="1" parent="1" source="-ansJqmjGRNbWr8opuUd-26" target="-ansJqmjGRNbWr8opuUd-27">
          <mxGeometry relative="1" as="geometry" />
        </mxCell>
        <mxCell id="-ansJqmjGRNbWr8opuUd-26" value="" style="shape=image;verticalLabelPosition=bottom;labelBackgroundColor=default;verticalAlign=top;aspect=fixed;imageAspect=0;image=data:image/png,iVBORw0KGgoAAAANSUhEUgAAAMgAAADICAMAAACahl6sAAAAjVBMVEX///8AAACPj4/z8/MLCwv8/PwXFxfX19cFBQUEBAQQEBD5+fnp6en29vYTExNMTEzNzc1sbGy0tLTd3d06OjocHBxkZGTPz88xMTGWlpalpaXr6+tWVlaHh4csLCyenp5DQ0MkJCTCwsJ1dXV/f39GRkZoaGhUVFSwsLC8vLyIiIg2NjZxcXFeXl6ampoY4yGnAAAKW0lEQVR4nM1da2OqMAyVKYqKj83Xpk5Bndt0+v9/3p16Z9M2KRTS4vl450WOtHmcpKFWK4N4s95NB8e0HwVB0I6iRmeSvo4H0+1hvolLXdkbwtn5edwJTGi8Ts/DbtU3akJ3s0saRg6Azef6QR9NfB7kJfGHZP5wz6W+TixJ3NB8r1d96xCtZ/OmMFI5h1Xf/h9my8IsrnhtVc3ginhajsYvGuuqSfxiXnxRAeyrXl7d8o/jhlO15qv+wcQjCAZVPpNwwMYjCJ4rJLJj5BEEb9UR6bMSaW8qIxKxEgnSXlVEjrxEgm1VRHj3yC+GFRH55iaSVERkzk0k+K6ER9xkJ3KshAifWxd4qYAH/8L6xYd/Hr2JCyKB/9zkyQkP/yFXmLoh0vCdw3+54REEc89EXJisKwZ+ecSueATRwisRR1v9Ar9KxNgdEa+uZNF2RyTymZY48ep/8BmmcKlAKHz6xNQlkdQfD3fG94qRNyIvTnkc/XkS9mQd4tOj1frkvvnoY7deH04XoWzrUztNmWns/i+m7nniVW8Med3hEmxuv1L2iJPGa3VKKaeeVW0FcctFI9pWWtNdsFTbfjHw5/lQ/PDQWFUjKwqMWGxW46nypoeSVfUb0opXVY3J9qZ6P82XbzN8YODRnqlXnSXByvNa4wgY1dRpsb/865NfIiOGyqG8QbpPN3ve8SsE1Z5L83iVrveS/v27Z923/G6HN9yCTQfa1nGL17JE3u+Xqv9ITin5/RePO6W0IzncL7VW/vJ17ntUsUvnhz/3S4XI0534SnXD0qWqsbjYBvnzzhOR8tlIG/h1ZJ02PIUvDPo1+M1HSIvt0gsPDtm3AR4JFin4CLtilt4mYYBrdWTLvXrIf3ma5qDgrprgC9wXe84sPGCw9ZUif2+6zuWxrVkEYo8QTslx61bIVXETT4QoRkZuTTBHUnWF0B26K/wTTqvULbYmRrByqBKFQ40l5OthnIC0lrCDK3cm+J2NRxCcxWVbhLzkTJfnW1i/6AP7SiiwrjJfxoV1gQjla3UiWHCU+bJZrBvaoMOM8LJtJ01oHOKJBGBfsfTqgsQFkWJnwUwA8RaWXl3wxc8Di+xKIgUmmJABUnbxccF7MOEGoJdQC/dA31IxOCmsdzLSq0DOwFjAVmyTsBdfgKVXF0yZidRZiiIagLJIZdDsBxhmewfbBOhClKYxJu+oMLrfU64q6B1AVRxmf4QPde5ND1VFoplt4ibr5d4rQOGKiTTajfCYMhOBqiIRzTnJetkPIwUncfFuin/EhfDooJEcqIpU1ssvPM74eUiqIvE78QuPJwdEoKpIZb1n+pYKIXbSfw1VRaLQ2mc2wZTPKgmgDVFRNrfw+MadJl4B7esb8RHurLdF6ILlALNeX8Kjk+7+FQhUKE/F3Pnv5PxLIm1lQp7nbbnpudgjS/kWqayXtZFg4YDHSfZ24RNBhFd4ZGpnBJjKPFp0BWZP3FMxzJgPtirPY22qiPG23FBaWjEMpP3RM4dACSsR1vNuR8lexVltR7zCI2O2O5FUq+xVyzumg088jSSp5ztHwfiduqki4DttLOkjL3lcFKvwSIR19pBExK98rvZE3VUBcB1BhAFW7TtvyMAoPKY8PCLoFYa5GyqObFkv12keqFaNLOaSsAmPTHsdBrM9mySHTXhk2utQ4cH9+ZEQmrmER54+J2h90J8meg8dt9uwCBDQH6B9CJMNLTx+8hCpcWTtYHl0sQBrfCXqWHjclBe3oEyFhW7L/y6GEB652m1yOmEDQMiEJbb36ZOuhcdhWo5HBzwQpMcJ5IxEQtrnynq78+Wq04g6k1Xyud8e3tbz+fppe8q7e8AOQbbBEiwcSnj80e+JFYt5nkYP0FCOyHFjKecgvJabdhsJrewKCqjb6HLfRF413oRHBJn6sLCe+kSoSI1uPQmPKF7M9hnM2NDjNj0FJIRH/nYbBGZ9GGx1TccY6x7Ci/BIwajqiFBJi3bQPUx1PPqY1U5VzC8AR/e0XBO1qnUiWeEVHgkYJCOxsnpqnN7BUw1KtvFx1s8wyUZ8vbaVCLGHam910G6jg5Qjm+IzanRCVjwpldbHOT+yt1Z4w566kejUjzAePs75tSgiok9cDbPatBmijAer8IijSxERBnav/MUUdRBd+ewdjwhS4quFx1OjKNOKp8aNcgqPBIizFMLSqFW8hnHBUyKU+5HNREok+vbVLZIRz6L5QePgPuIiVrXY66rPzDgtgvUlTX1EKURGJM4bqT2FWamSahs8OUQqAhYRo7LXO1nKCDLnx8sYRJxI+367oRKdJ5lX1IXHCnMSEaCo0Vj26R1EePSRk+Ah6+r+dzUXyXEyTFdcfOQk+GZPyLvKs96vvklaktxHABDgGYnQn9UnlseztdpBtI0ntv+tHPCAVYQU6hPLVSv4GbSU3efWBMfzfYryAEtBtUG5RNCbzZNyHac5Ca09iDxb9fwWBTXJTqQuZxHQGjALESha6FPs6ls2U1YneQAi6tKy+fb4z8nrU+zCdZMvtjc0QtGb3UqVvv0KHX2K3eZa/uJqpTechS1nfu+4OvlnzT6M/geiXE0FhrMyyf1DRRyiwEuQaKpWb3fP7JlmeBjaroTMqIYolmGTvnrm4Gt5ZniYxkxPyE+VFECHspDGEk0aezxKhPEGKG8ybK5ZNonxECmZWPWLf3f3IMlebINejWVEYfjVAk5hSVrM4ruCbdBraGy9EmmH6toLLmulZsk46NXcq1JYDsKxeJbKfIiLLA5zD3JRgQ5F+CaV4du6iyyBjGbagpIpim/5Cglr7T1z2pPY0+q5MMvXjoxka5Eyj4fI7HygywpWAXB9K/khdu00u0vbUOjJf7LtEqxDsGuncfZ5d+D4VE9C1EJ1bOSi4phfgcgzn058qxbL5CtAxbJdnDjI2nM1oBrK03nOf4Jg/YJo5+DYfitXO7UQG/XzrNm66VzOEZYujrr3ck7PFeZer5hmrPaZHKw7eitD3sHMoAqtGeuMJFWqkfQdvZUhd6v5RHy/3oxlbrMGNRJnb2UY5Z80AtJzfTWaV8tdRBq46gXsWhwhA3Gu/hibRt/2fxaiw7cyWJ0gA6ZG5z82RsGXxcgarCPXzw9gZRExb2C8zUGwdzhdfmF3XDQCywdJX4yS58hpl5bt+BoQHmLh2amqt91YH9aHjwQ7jzKo5v3mOWJeeJPzVr0Lf3Ks43nso6dBg81MZiQfRWdTNyt47Y3N6TH09Wf4eZed741CDY/DQBwywLXJo+e3zluM2aNCwpA4GODSY2iwmQxK/sR1ourY2fmjYjEWyfAS+RG1PhtbT68nILtJEZhS8hZtwpO1j9eo2cypMlrUocEZNT4OQ8c2LLY5ACeipDqCjTnj74ynh6/NbLTA/q+EQkSspmQLX2hxWNoajUJEUpuveGAidiPpHpiI3WSRByZiN176cYmEdjNaH5eI5fiHxyVi+QbqxyViOcftcYno7epGPC4Ry5n4j0sktfuKxyViOTLhYYnYjgh8WCI2SdUFD0vEdqyeIHJ+cgf92MM/+E2rL3YBHnUAAAAASUVORK5CYII=;" vertex="1" parent="1">
          <mxGeometry x="1115" y="365" width="140" height="140" as="geometry" />
        </mxCell>
        <mxCell id="-ansJqmjGRNbWr8opuUd-34" value="" style="endArrow=classic;html=1;rounded=0;exitX=0;exitY=1;exitDx=0;exitDy=0;entryX=0.5;entryY=0;entryDx=0;entryDy=0;" edge="1" parent="1" source="-ansJqmjGRNbWr8opuUd-24" target="-ansJqmjGRNbWr8opuUd-5">
          <mxGeometry width="50" height="50" relative="1" as="geometry">
            <mxPoint x="690" y="600" as="sourcePoint" />
            <mxPoint x="740" y="550" as="targetPoint" />
          </mxGeometry>
        </mxCell>
        <mxCell id="-ansJqmjGRNbWr8opuUd-35" value="" style="endArrow=classic;html=1;rounded=0;entryX=0.5;entryY=1;entryDx=0;entryDy=0;exitX=0;exitY=0;exitDx=0;exitDy=0;" edge="1" parent="1" source="-ansJqmjGRNbWr8opuUd-24" target="-ansJqmjGRNbWr8opuUd-11">
          <mxGeometry width="50" height="50" relative="1" as="geometry">
            <mxPoint x="580" y="370" as="sourcePoint" />
            <mxPoint x="740" y="550" as="targetPoint" />
          </mxGeometry>
        </mxCell>
        <mxCell id="-ansJqmjGRNbWr8opuUd-37" value="Tensorflow for training an accurate Machine Learning Model" style="text;html=1;strokeColor=none;fillColor=none;align=center;verticalAlign=middle;whiteSpace=wrap;rounded=0;" vertex="1" parent="1">
          <mxGeometry x="413.44" y="-77" width="166" height="40" as="geometry" />
        </mxCell>
        <mxCell id="-ansJqmjGRNbWr8opuUd-40" value="Fast and dependable ML model, instantaneously suggests solutions" style="text;html=1;strokeColor=none;fillColor=none;align=center;verticalAlign=middle;whiteSpace=wrap;rounded=0;" vertex="1" parent="1">
          <mxGeometry x="680" y="10.579999999999998" width="180" height="42.42" as="geometry" />
        </mxCell>
        <mxCell id="-ansJqmjGRNbWr8opuUd-41" value="Work on both Android and IOS softwares" style="text;html=1;strokeColor=none;fillColor=none;align=center;verticalAlign=middle;whiteSpace=wrap;rounded=0;" vertex="1" parent="1">
          <mxGeometry x="429.44" y="360" width="150" height="30" as="geometry" />
        </mxCell>
        <mxCell id="-ansJqmjGRNbWr8opuUd-42" value="User scans the images using which ML model predict diseases and suggest remedy" style="text;html=1;strokeColor=none;fillColor=none;align=center;verticalAlign=middle;whiteSpace=wrap;rounded=0;" vertex="1" parent="1">
          <mxGeometry x="579.44" y="173" width="200" height="30" as="geometry" />
        </mxCell>
        <mxCell id="-ansJqmjGRNbWr8opuUd-43" value="Farmer" style="text;html=1;strokeColor=none;fillColor=none;align=center;verticalAlign=middle;whiteSpace=wrap;rounded=0;" vertex="1" parent="1">
          <mxGeometry x="-45.620000000000005" y="365" width="130" height="30" as="geometry" />
        </mxCell>
        <mxCell id="-ansJqmjGRNbWr8opuUd-44" value="Scientist" style="text;html=1;strokeColor=none;fillColor=none;align=center;verticalAlign=middle;whiteSpace=wrap;rounded=0;" vertex="1" parent="1">
          <mxGeometry x="1115" y="330" width="140" height="30" as="geometry" />
        </mxCell>
        <mxCell id="-ansJqmjGRNbWr8opuUd-46" value="Farmer can only ask Questions" style="text;html=1;strokeColor=none;fillColor=none;align=center;verticalAlign=middle;whiteSpace=wrap;rounded=0;" vertex="1" parent="1">
          <mxGeometry x="339" y="535" width="211" height="30" as="geometry" />
        </mxCell>
        <mxCell id="-ansJqmjGRNbWr8opuUd-47" value="Scientists can ask as well as reply to questions" style="text;html=1;strokeColor=none;fillColor=none;align=center;verticalAlign=middle;whiteSpace=wrap;rounded=0;" vertex="1" parent="1">
          <mxGeometry x="600" y="535" width="190.56" height="30" as="geometry" />
        </mxCell>
        <mxCell id="-ansJqmjGRNbWr8opuUd-48" value="Photo and Video support for both questions and answers" style="text;html=1;strokeColor=none;fillColor=none;align=center;verticalAlign=middle;whiteSpace=wrap;rounded=0;" vertex="1" parent="1">
          <mxGeometry x="290" y="798" width="171" height="30" as="geometry" />
        </mxCell>
        <mxCell id="-ansJqmjGRNbWr8opuUd-49" value="MultiLingual Support to unify Indian Agriculture" style="text;html=1;strokeColor=none;fillColor=none;align=center;verticalAlign=middle;whiteSpace=wrap;rounded=0;" vertex="1" parent="1">
          <mxGeometry x="689.44" y="798" width="110.56" height="40" as="geometry" />
        </mxCell>
        <mxCell id="-ansJqmjGRNbWr8opuUd-50" value="Both farmers and scientists can use ML disease predictor" style="text;html=1;strokeColor=none;fillColor=none;align=center;verticalAlign=middle;whiteSpace=wrap;rounded=0;" vertex="1" parent="1">
          <mxGeometry x="699.44" y="410" width="170" height="30" as="geometry" />
        </mxCell>
        <mxCell id="-ansJqmjGRNbWr8opuUd-55" value="" style="swimlane;startSize=0;" vertex="1" parent="1">
          <mxGeometry x="40" y="698" width="1310" height="552" as="geometry" />
        </mxCell>
        <mxCell id="-ansJqmjGRNbWr8opuUd-54" value="Scientists can provide news about&amp;nbsp; new seed varieties, fertilisers or government schemes" style="text;html=1;strokeColor=none;fillColor=none;align=center;verticalAlign=middle;whiteSpace=wrap;rounded=0;" vertex="1" parent="-ansJqmjGRNbWr8opuUd-55">
          <mxGeometry x="1020" y="302" width="280" height="30" as="geometry" />
        </mxCell>
        <mxCell id="-ansJqmjGRNbWr8opuUd-27" value="" style="shape=image;verticalLabelPosition=bottom;labelBackgroundColor=default;verticalAlign=top;aspect=fixed;imageAspect=0;image=data:image/jpeg,/9j/4AAQSkZJRgABAQAAAQABAAD/2wCEAAoHCBUVFBgUFRUYGBgaGRkYGhsYGBgYGxwYGBoaGhgaGhgbIS0kGx0qIRgYJTclKi4xNDQ0GiM6PzozPi0zNDEBCwsLBgYGEAYGEDEcFRwxMTExMTExMTExMTExMTExMTExMTExMTExMTExMTExMTExMTExMTExMTExMTExMTExMf/AABEIAOEA4QMBIgACEQEDEQH/xAAcAAABBQEBAQAAAAAAAAAAAAAHAAEDBQYCBAj/xABUEAABAgMEBAYJDg4BBAMAAAABAAIDBBEFBxIhBjFBURMiYXKBshQyVHFzkZKx0RUWIyQzNFJigpOUobPBCBclNUJEU2N0hKTD0vCiZMLh8YOj4v/EABQBAQAAAAAAAAAAAAAAAAAAAAD/xAAUEQEAAAAAAAAAAAAAAAAAAAAA/9oADAMBAAIRAxEAPwAzJJKvtiO5kCK9ho5sOI4chaxxB8YCD3kpL5z0ah2zaAe+Xm4vEIxYph7M3AkUA2ZFXnrN0h7rd9KegOAKRKB3rO0h7rf9LekND9ITqm3/AEt6A4pAoHes3SHut/0t6R0O0hH62/6W9AcSUkDvWdpCf1t/0t6XrN0h7rf9LegOIKRKBx0O0hGubf8AS3pes/SDut/0tyA4hIFA71m6Q91u+lPSOh+kI1zb/pb0BxSCB3rP0g7rd9Lcl6zdIe63fSnoDiCnQN9ZukPdb/pb0vWfpB3W76W5AcQUqoH+s3SHut30p6b1m6Q91u+lPQHJMCgPO6NW9Chvivm4mBjXvdSbceKxpc6g2mgK1dytsR5iBHEeK+Jge3CXkucA5tSMRzIQE0lOmIUOLZXLegmqkSkAnQJJRV2bFIEDpJJIGJVdpAPakx4GL1HKxKr9Ifekx4GL1HIBdcKSIc0Rnx4fiwuRddFFMsydSEVwjqQ5rfjh9VyK8U4Gl51NBc7vAVNEE7G0zOtM5p1jXtG9ZfQvTiBaRiNhtex8Ohwvw1cw5B4od4oRsqN61bnUQccKKV+rlTsbtOvzLI6MaaQp2ZjwIbHtdCJNX4aOaHYCQBm012HYtBbFqsl5eJMPBLYbC5wFK5bBXag9z27Rr86YRRSv1cqFH474PckT5xvoUZvqg1r2JEr4Rn+KAtsaTmegbk72VzGtZvQjTCHaUN72Q3QzDcGuDiHDMVBDhrXnlNO4ES0X2dge17cQDzTC5zG43NA1jKtDtp3kGrbFyzyI1pg3FmdWwLksLs9W7/ystN6eQIVoMs9zH43YWl4LcLXOFQ0itTynZVBrXtr39iZr9hyIUhKxuk2nECUmoEq9j3vi4TVtKMa95Y0kHtiSDkNg5UGtAxZnVs5V29tQuGxN+VPFTeh9b17knAiGHDa+YLTQuZhayu0BxNXU3gU5SgITHUydr3703bc3zrEaN3lSc68QjjgRD2rYmGjzua8GleQ0W4YacU9HKgrdKx7Rm/4aP9m5Di4Q0gzPPZ1ESNK/eM3/AA0f7JyG1wzawZkfvGdRAWScWQ1bT9wXeEUpsXDDh4p6CpkEIOHI6thTl1TQdJTPNeKOkpN4uR1bD6UEjW0FEgKLpNVA6SZJA6q9IMpWY5YMX7NysyVWaQN9qTB28DF6jkAzuB9zmudC6rkVbV9xicx/VKFFwrqQ5o/Hh18lyKtquHARPBv6pQfMOhNvmSnIcf8ARBwvG+G6gcOjI9C+o5Z4e0PBDg4AtI1UOYovm7Q/Rzs2Sn8IrFg9jxIe80EbGz5TR42tRLuZ0jMaVMs81iS9AK63QXdoe+01b3sKDP3PfnSc7z/tURbx2/kybOr2J3TmEOLoHUtOcPxYn2qI14TSbMmyf2TqDdmEGSuZsmBEkXuiQYb3CM8Vc1rjQNbtKIXrdlO5oXkN9CDt2unkpIyhhRuExGI53EZiGEhoGdRnkURLBvGkpuM2BDMRr3AloezCHYQSQDU50BPQg00CThwm0hMYwa6NaGg9AQX08rJ25LzYFGvdCiHlwng4g8lG8NxZnVsCF1/FnYpeDMAZsfgJ5HgkfW1AVMYpXZSvQvlW27adEtCJNg19nxtI3McMP1NHjRwiaS0sEzYPG7HDByRHUhN/5EITyGjWOxJibpxmzDHNO0w2Asd0Vik/IQfQ0hMCNDZErxXMa4cuIAoNuHZ2kuwshP6MMBuz5Wa2N31uNNjNjOdQyzIjHHdwYJbX5JaelZa42VMWYmpx4zoGg/GiOc99O8GjykGrvktZ8Cz6MJa6LEELEMiGkOc7xhpHSq+7HQmWbKQ5iLCbEixW46vAcGsJOBrAchlQk66nkWhvF0edPyb4bAMbHCJDr+k5tQW9IJHSh3oTeQJKEJKdhRBwRLWOaKvaKk4HscQciciNlBTKqCwvd0Nl4UATsswQnNe1r2sFGuDjk6g1OB2jet7oJaTpuzpeLEJLyzC520uYS3F3zQHv1UFj6W2faTXQA9ry4UdCitwlw5rsndFVoZaXYxjYcNrWMaMIDAGtAGxoGpBXaTxD2FNDdLx899Ib1gLgvcZnwjOqiHpU0dgzXJLR6fNvQ7uDPsUz4RnVQFtzaihUGI9rXkr/ALtUjjXIdJXXBilECa2goE5FVwHUND0FJz9g1+ZA2KmVf/ClAXLWgCicZIOkkkkDFV+kPvSY8DF6jlYqr0gylZgbDBi/ZuQDK4R1IU1z4fVcifaTCIMQ/u39HFKGNwQ9jmudD6rkVbV9xicx/VKAR/g+j37/AC399VttMdYttNjMBECKcVNhY80iN77Tn4lYXAvp2adntYfbLY3m6OGdknForFhViQ6a6AcdnygPGAgwlzkUOtKae3NpY9w5QYlR9RRLvDdWy5sj9k7zhC24b35G8D/3hFG8VlLMmyNsI18YQYK6jRSSmpJ0WYgNiPEVzcRLwcIDaDJw3lEGydEJOWicNAlmMeAQDxiaHXTETRDy6jSuTlJN0OYjBj+Fc4NIOohoBy7y3X4yLM7qZ4nehBq2OqFm7xLM7Is2Zh0qRDMRu/FCIeAO/hI6VYWRbUvNsdElojXhpwupsOuhB1Fe4txgg9rqpvrvQfM7tIvyS2Sxcbskvp+7DcQr8tx8SN+jlgNFjNlHCmOXcHD40RpcT43IFQ7AItUSVNUyIYr8DFUE/JoV9QcEGgYcsIAHeGxB802Rbrpez5+ScaPiPhhreUOLY/8Axa0IuXQ2UYVmMdSjor3xTyg0YzowtB6UIdPbJLLUjQmCnCRGuYPC0I+slfSVkyYgwIcJooIcNrAOa0BB47c0ggScLhZl+BuINGRcS46g0AVOQJ6FBN2BITzWxokCFFD2tc1+GjiwireMKGlCqm9TR983IuEMYokNwitaNbsIIcBy4SaLJ3e3jQIUqyVm3GG6GCxr6EtcwE4Qadq4dr0BBX3laEQpJrZ2SLobWOaHND3HC4niuY4nEM9YqehFHQm2DNyUCM+mNzOPQUBe04XEDlIr0oXXlacQ55jJCSa6IHPaXOwnjOB4rGN1nPMlFLQ6xTKSUCXd27GVcR8N3GcBvAJp0IPVpX7xm/4aP9k5Da4dtYMyP3jOoiHpREJkpof9NHr829D+4L3GZ8IzqoCtDy4p/wDamXLm1UOM9rt3oOomfFH/AKSZxcj4967Y2iciuRQdJiVECRlr3KUBAkk6SBiVWW+32pME6+Bi9Rysyq7SH3pMeBi/ZuQC+4R1Ic0dmOH1XIuxg0tIdmCCCN4OxCK4RwEOar8KH1XIstbShIy8yCn0Z0VlpEROx2FvCEOdicXHi1wip2DEaDlV05tOUbQq92kskCQZyWBBoQY0OoI1g8ZMdKJHuyW+eh/5IPLYmikpKRYsxBYWvi9tVxIAJxENGwEqzn5FkxCfCitxMe0tLakVB5RtVcNJZGtezJaldXDw/NiXo9dEj3ZLfPQ/8kGTfdDZ2ukY/wDy/wD5SF0dmUrSNTwn/haz10SPdkt89D/yXnOksjWvZktTdw8PPoxIG0Y0Wl5FjmS7XBrnYnFzi5ziBQZ7ANyvHNpmOkb1WDSiR7slvnof+SXroke7Jb5+F/kg8zdFJQznqhwZ4emuppXDhxFurFhyqrvtub51TP0lkSSROS1Nvs8MV/5KYaUSNPfkt89D/wAkHmtTRGVjzMObfDrFh0w8Yhpw5txN202K+Y6v3qr9dEj3ZLfPwv8AJQxNJJInKclhv9nhiv8AyQXBdiNBq2n0LLW7d3Z808xHwcLzmXQ3FmI73AcUnlpVWrNJ5GnvyWH/AM0P/JdeuiR7slvn4X+SDwaN6GyUmcUGCBE1Y3kveByF3a9AC0TiSaDpKp4mksiTlOSwO/h4f+StJSMx7A5ha5pFQWkOBB2hwyI5UFfpSwCRmuSWj/ZuQ7uC9xmfCM6qI+lfvGb/AIaP9k5DW4gVgzIGvhGdHFQFt7tg1+ZLghSn18qaFllt8/KpkETX7Dr86d79g1rmLnlrPmTQsjQ69+9B21mWa6aukxQOkmSQJVlv5SswNnAxfs3KzJVZpA32rME/sYvUcgGVwQ9jmufD6rkVrUPsMTmP6pQpuDdSHNbscPquRVtU+wRPBv6pQfO93GhkO0uH4SI+GIXB0wBprwmPXXmfWt0y5SXOfZMXyWeheH8H9oJnf5f+8jF2vN8yAWfiSl+6ovks9CZ9ykuM+yYtOaz0IsE7VGBizOrZyoBWy5SXOfZMWmzis9Cf8SUv3VF8lnoRTphzGraNykG9AJ33KS4HvmL5LPQmZcrLnVMxac1noRV7bm+dItw5jVtCAWfiSl+6ovks9CTrk5emU1F8lnoRXa4EVCjccWQ1bT9wQClty0uTlMxabatZ6FIbkpfuqN5LPQimWUzb4t66aahAKTclL0ymovks9CjbcvLk5TMbl4rPQiw41NB0lM6HTNusfWgBmnN2UGRlHTLI8R7muY3C4NA4xodQRBunbWyoGeYL6eWclBfE6tlRN+OHUfLU10xPqVAA11idHHKC90oiVkpsUz7Gj1+beh/cF7jM+EZ1UQtKYYEjNbxLR+n2J6HtwXuMz4RnVQFh7a9/YVxwh1U43+5rt79g1puCy5d/KgdjKd/aV05tVyx+w60nup30DBxGR1+dSALhrN+tdA70HSSSSBiq/SH3pMeBi9RysCFWW+aSswD+xi08hyAZXCEcHN11YofVcibaI9hfWtMD6eSdaGNwbaw5rnw+q5Fa1fcIvg39UoBJ+D5+u/y399GU6s0GPwf30M7/AC/95GMDFmdWzlQRjlrhr/vQvSlRRdrzfMglXnPJXDX/AHoXfbc3zp4kRrBVxDQNpIA8ZQdtpTJdLCW3eZZ8qS1sQx3fAggPFeV5IaPGTyLFzd59ozhMORlcFTQFoMV3S6ga1AYZmOxgc5zg1o7YucGjlzKx1tXq2dLjDDe6YcNkIcXpe6jac2qxcC7i1Z5wfPTHBt10e4xHjmw20aNu0LXSl29nSUN0eK0xzDY57nRjVoDRiJDBRuzbVBhbXvbnZh3BysNsHEcLcIxxCTkKE5V7wXMzAtyzmiciRXuBoXgxOFDa6mxGE0bXe3VvXtulsvsufjzz2ANhmrG0AAfEJw02cVoPjCNU3JsiQ3QntDmPaWuB2gihQUuhOkjJ+VbGaMLwcMRla4XgAnPa0ggg7jvBWkQMu3iukLXjyDjxXlzAK63M4zCOUtJRtMSuTdfmQYe+SnqZE58OvlL0XRfmqD34nXK898TaWVE58PrhS3TtPqVAI1gxOnjlBo9K/eM3/DR/snID3d6cw7OhxWRIT3l7muBY5raYRShxa0c9KIoMlNDb2NHryexOQxuRsuBGhTBiwmRCHsAxtDqDDsqg9zb6pcfqkXy2J/x3y/ckXy2IgO0Yk9ktBrzGrj1vSWrsWFXdgagwLr65c/qkXL47Ezb6pcZ9iRa89iITdGJPbLQa8xqwl8Vjy8GQa+HBhsdw0MVY0NNKOqKhARLDtRk1Lw5iGCGxG4gDkRsIPKCCFYFZO7J1LKlfBnrvWrA3oHSTpIGJVZb4rKzB/cxafNuVmVXaQ+9JjwMX7NyAYXBmkOa58Px4XIq2r7hF8G/qlCq4QDg5uurFD6rkTrSPsMQHVgfTl4p1oBVcAyvZu72t/eRi7XI6th3IPfg+frv8t/fRlcBTNA6x2kV4MjKksfFxvGtkIY3V3E1DR0kLKXoaYRuFFmSZcXuwiI5nb1d2sJp2GmZO4jlXs0Uukl4bGxJ2saKaEsDiIbTrplQvO8k05EFDN3rTkw4w5CVw55Egxn0Oo0ADW/X31FD0Dti0CHTkcw2HOkR5cR3oTMqjlIRpkbPhQWhkKGyG0bGNDR9SeuwE0rrQYOwrqJGCQYodMOGsvOFlfiw25U5xK3MtKMgjDDY1jfgsaG08S9bQKZLpAwKw17to8FZkUNNDEcyFXnGrh5LXeNbFxoSG6tvJ3kMb+YwEnLwxqdGL/IY4f96DLXV6Y9hvEpHYGwozw8PpRzXvAaHE/pMNAORH5jgRUIMXgaLt9R5SYaOPLwobHEDN0NwAz5riD3i5be7m2XTVnwYhNXtBhP28aHkHHlLcJ6UGAvUHYlsS043IObDe473Q3ljv+GBGprcg5u6vfrmhNfzLAwZWIP0XvZXntDv+xEnRWaMWSloh1ugQnHvlja/XVBmL43VsqJz4XXClumdSyoAGsl/XKivkA9TInPh18pei6L81Qe/E65QXelMKkjNGufY0evL7G5D64L3GZ8IzqIjaV+8Zv+Gj/ZOQ1uHPsMxTXwjOqgLj3U5TsXPBba8bf9yULft2qZBGx9cjkUPL8Pzc3wzPM5EGMBr27EOr6j+ThXXw7PM5BfXZtrZUqduA9d61bSstdj+apXwZ67lqigdJMkgRCrdIHe1ZgH9jF6jlZqr0gFZWYOzgYv2bkAxuDbWHNc+H1XIq2sPYInMf1ShZcERgmudD6rkVbV9xicx/VKARfg/uAM73pf8AvIwudXP9EZ9+iDtwLK9mjZ7Wr/8AcjG3LinVsP3IAndhAE1bE1MROM5nCPFd7n4Qe+AjYDhyOrYUDNGJv1LtyNBinCyI5zMRyFHkPhuruzHjRzccWQ1bT6ECccWQ1bT6FJhFKbFG04cjq2FTIIe15vmTl1ch0lM41yHSUw4nN8yCRrABRCG/1tIcpuxRsvkw0YUH7/hVkpyOjDpLWU8yDbaRwQ+yorKV9qnopDqOlZO4SMTKzDNgjB3S5jQeqFotKZwQ7HixK5Olg0V+E9oY363BUdxEqWyUWIRTHHIHKGMaK+Nzh0IGv2he0oR/6hv1w4gWpu/iH1MlAMzwLR0Co+5ZW/mIOwoDa65gHoEN/pC1egMIss2UP7hhI5Hcb70FPfE2llRN+OHXy1NdMD6lQCN78t/HKjvjdWyohHw4XXClumdSyoG8mJTyygvtKYgMjNcstH+zch7cF7jM+EZ1EQNKIdJKbNc+xo9fm3of3Be4zPhGdVAWHt2jX503DCnLu5V099FHwZ7b9L/ckHbG7Tr8yHl94/J7fDM8zkQ2Or96Ht+A/JzfDM8zkFzdk4epUrzD13rVtWTuzbWy5U/EPXetaCgdJJJAxVfpD70mPAxeo5WBCrLfd7UmAdfAxeo5AMrg21hzVfhw+q5E60nEwYgJy4N/TxShhcI2sOaGzHD6rkVbWaOAieDf1SgEv4Pn67/Lf30ZHtBFCg3+D8RWd/l/7yMLjiyGrafuQYW8PQhtoMERha2YYC1jz2r26wx575NDsqVhrI0/n7MIlJ2C57WZNx1bEa0fBfqe3dr3VpQI7YBSmxeSblIcVvBxobIjTsiND2nocNaDK2LebZ0yA10XgXn9GKMOZ2Y+1+tauHHDgCx4c06ntIcKcjhkV89WdorDm7XmZMOMJjYszgwAHCIcQhjaH9GmSuo2gNsWeS+SjOe3WRCeWE86E44Xd7NAdWNAFAukD7Mvbm5d3BT0tiI18UwogHKxwoT4lvrHvIkJmjWxhCef0Y3Ez5HHinxoNU52HIHLzIbX6y3tGC8Z4ZgAnkfDfU+NoRMhYS0EEEHOozBrtrtWVvMswxrMmGAVLWiI3aQYbg8gd8Bw6UAr0s0r7KkpGz4BxuLIZihu2IAGsh+Mkn5KMmi1k9hSkGXGZazj893GefGShnchY8s8RJojHMQnhjQaUY1zateB8I0eKnVhKNDGU7+1AHL+pmjZWEDUuMSIegMa3zu8SK9hSvBS0CF+zhQ2eQxrfuQc0yInNIIMu3NkIw4Z1kcUmLE73bYT3kbi8ACme5Bhb42gWZE5Xw8vlL03RD8lQe+/rlea+JtLKiE6y+H11NdNUWXAI3vqPllBo9K/eM3/AA0f7NyGtw7qQZkj9ozLfxUSNKXAyM1yy0f7JyHVwQ9imfCM6iArwhXjHX5lMonNpmNe0b0/CClf9qg5iinGGR86HV9bq2cCf27Mt2TkRmsqanoG5Dy+9o9T2n98zzOQXt2P5qlPBnruWqIWUuxP5KleYeu9aob0DpJ0kCVXpBnKzB2CDF+zcrMqv0h96THgYvUcgGFwR9jmudD6rkVbV9xicx/VKFFwjawprnQ+q5FC03kwYg/dvry8U6kAouBZXs0fw395GOGacU9HKg9+D5+u/wAt/fRke2oQdqF5xcUdJXOI9rXp/wB2qVraCgQA/QbLSOa8JNjxRCjmgZoO2ukc2P3k59qUasZHFr0oBXf4RwMtv4R/VXbrqZSPLQYkN74MR8KG4kcdhc5gJq06szsK4v7bSBLeEf1USdHRWTlx+4hdRqANP0PtuzCXSkV0SGKmkFxcCN7pd2s80OK9khe5Hh1hT8rXItcWgw30ORqx3IjIXFvF17uTvrz2jY0CYbhjwmRB8doJ6DrCAB3faTwZK0XkOIlopLCXCmFpdWG5w2YSSCdxKOmkdvQpOWfMxHCgHEFRx3kcVrd5PmzWJt252ViVdLPdAdsB47K945joKzUtdNOvexk1Ms4FmTQ2I+IQ3LJjXtAaD/oKD13O2e+PMzFpRQSS5zWk7XvOJ5G8AUHSjC1pbnr38i89jWXDloLIMJoaxgo0Dxkk7STUk7aqwQYK+U1sqJz4fXCmuldSyoHffTyyvPfE2llxNxiQ8vlL0XRt/JcA8sTrlBdaUQyJKaOXvaPX5t6wFwXuMz4RnVRG0r94zf8ADR/snIbXDOpBmT+8Z1UBce6gqosB7bbu/wB2rqGK8Y9HIpkHDHVCHd+H5ub4ZnmciDEFOMOnlQ7vrdWzgf37MuhyC8uzb+SpU/EPXetaCsrdj+apXwZ67lqiEDpJkkCIVdpAfakx4GL1HKyVXpDnKzHJBi/ZuQDG4UEw5oauPDr3sLkVLVYOAickN/VKFtwPuc1zoXVciravuMTmP6pQCP8AB9Oc73pf+8jE41NB0lBq4JpPZoH/AE+e73ZGSFlxdR8/Kg64MUoma6mR17DvUqhimvFGvzIADYttQZO3ZuPHeWM4abbUNc41dFdTJuexEcXpWVSnDu+Zi/4r1Wjd3Z0eK6LFgnhHuLnFsR7AXHWcLXUqdqh/FRZX7B3z0X/JAPL2NLpSehQGS0Rzyx7nOqxzaAtoO2AqjNo+/wBqSwGvgIX2bVmTdbZQIpAcT4WJTp4y2UvDDAGAAAANbTUABQD6kErYYpnnXWmBw5HVsP3FTKKI7ZrJ2IHe6nKdiZrN+ZOtcNGE57dv3L0IIe15vmXTngDzJRHAD7lExuHM/wDpBib4gfUqITrxw+jjqe6ZxFlQDsq+vllR3zfmqJz4fXCkulcBZUGu9/XKDQ6Vkdgzf8NH+zchzcGBwMz4RnVRA0nYRIzR/wCmj5bvY3rAXBe4zPhGdVAVyKZjpC6xildicmmZXnwntqZa6fegkDcRqdWwfeh7fe0ep4O+ND8zkRg6oqEOr8Pzc3wzPM5Bd3Yn8lSvMPXetUDVZK7Rp9SpU/EPXetcCgdJJJAxXhtmCXy8Zg1uhRGjvuY4Dzr3EJgaoA1cJFBE1DBo4GE8coo9v+98IsT2J8OIxo4xY4dJaQEEZsvsO2HRKHseKXatsF5q4D4zHUIHIN6OEnHhxYbYkJ4cxwDmuaaggoPnzRiNa1mmKIEq+r8OPFCL/c8VKU5zlfHTa3+5f6d3pRuY6uvWme7YNfmQBP18W/3N/Tu9KYabW+NUr/Tu9KN3B5Uqa70mO2HX50AROm1vnXK/07vSn9fFv9zf07vSja9+wa0wh5UOvegCXr2t/uX+nd6Ujpvb51yv9O70o2NfnQ69h3rp7qd/YgCXr4t7L2t/Tu9Kb17W/r7Fz/h3elG1sPLPMn/ckzSQaHoKAJnTe3+5f6d3pS9fFvj9W/p3elG976LlrNp1n6kASOm1v1r2L/Tu9KR04t/uX+nd6UbAcOR1bD9xXbnACqD5+t+27ZnIDpeNKuwOLScMBzTVpqM0VrtLOiQbOgMisLXgOOF2sBziRUbDRaljScz0Dcm7Xm+ZB4tI4RfJzLBmXQIrR33Q3AIXXCzIEOaZtDobiPiuDm18bUYXUpnqQFdisK18RaexopOQ2wXEHIfCY6nQOVAd2jFmdWwfepl4pSaZEY2LCcHw3jEC01FDtC9eIUrsQRuGHMatoQ2vwmQJBg+FHaGjbxWvJPm8aI0V4oXPIa1oqSTQUGsk7AgXpVPm27ThysvUwIZLQ4aqVBixe9QADvDegKt3EItsuUB/ZB3Q8lw+pwWnooJSC2GxrGCjWtDWjcGigH1KYGqB0k6SBKNw3KRJBQ6TaNQJ+AYMZpFM2PHbMf8ACafONRQk9RbasZ5MsXRoFa0YOEY4fGhds08rfGjuRtTlADxfBONyiycPGNfurP8Aia08acXzzA1SUPy4noRt4Mbh4kxhN3DxBAFPx1TPcUPy3+hMb5pk59hM8qJ6EbODHwR4gkITdw8QQBJt80wP1NnlxPQuvx1TPcUPy3+hGswm7h4glwY+CPEEATdfPMnXJQ/Lf6EwvmmRn2GzyonoRtEJu4eIJGE3cPEEAU/HVM9xQ/Lf6ExvnmTrkmeU/wBCNgYPgjxBIQhuHiCAJC+WY19hMrz4noXX46pnuKH5b/QjWYbdw8QSEMbh4ggCn46Jk5dhM8t/oXIvlmO42GmrjxPQjaIQ3DxBPwbfgjxBAE/x1TPcUPy3+hL8dEyf1KH5T/QjWIY3DxBLghuHiCAJC+SY7jh5fHiehU+lV4Tp+CYMaSh5Zse178cN1O2aaZjeDkfEV9C8G3cPEEhDG4eIIPlvRzSudkT7BEcGVqYb244Z+SdXfaQVtIN8E4Rh7EhF/wAXhqV5lSeiqOHBjcPEEuDbuHiCAExW25bJwvaYMA6xhMGHTeQeO/pJCKGhWhsGzoRDOPFfThIjhmaamtH6LBu8fJqAKJEVQcYd2pSBOmQOkkkgSSSSBJkkkDpJJIGTpJIEmSSQOkkkgYp0kkCTFJJA6SSSBk6SSBJJJIEkkkgSSSSBJJJIEkkkg//Z;" vertex="1" parent="-ansJqmjGRNbWr8opuUd-55">
          <mxGeometry x="1032.5" y="62" width="225" height="225" as="geometry" />
        </mxCell>
        <mxCell id="-ansJqmjGRNbWr8opuUd-56" value="" style="swimlane;startSize=0;" vertex="1" parent="1">
          <mxGeometry x="290" y="-117" width="590" height="330" as="geometry" />
        </mxCell>
        <mxCell id="-ansJqmjGRNbWr8opuUd-61" value="" style="swimlane;startSize=0;" vertex="1" parent="1">
          <mxGeometry x="-100" y="-170" width="1580" height="1520" as="geometry" />
        </mxCell>
        <mxCell id="-ansJqmjGRNbWr8opuUd-60" value="" style="shape=image;verticalLabelPosition=bottom;labelBackgroundColor=default;verticalAlign=top;aspect=fixed;imageAspect=0;image=data:image/jpeg,/9j/4AAQSkZJRgABAQAAAQABAAD/2wCEAAkGBxAQEBUPDxAPEBAQEBcWEA8VFRAVEBAVFRYWGBYVFhUYHSggGBolHRUWITEhJSkrLi4uFyAzODMsNygtLi0BCgoKDg0OGhAQGi8lHSUtLS0rKy0rLS0tLS0tLS0tLS0tLS0tLy0tLS0tLS0tLS0tLS4tLS0tLS0tLS0tLS0tLf/AABEIAKgBLAMBEQACEQEDEQH/xAAbAAABBQEBAAAAAAAAAAAAAAABAAIDBAUGB//EAEkQAAIBAgMDBwYKCQMDBQAAAAECAAMRBBIhBTFBBhMiUWFxkTJSYoGh0RQjM1OCkpOxssEHFUJDVGNyotJzwvAWJOEXNERV8f/EABoBAAMBAQEBAAAAAAAAAAAAAAABAgMEBQb/xAA0EQACAQIDBQYFBQEBAQEAAAAAAQIDERIhMQRBUWGRBROBobHRFCIycfBCUsHh8SMzYxX/2gAMAwEAAhEDEQA/APHRPcMAwAUADAAiAgxgERAPvAQoAOEADAQYAEQAMAFAAwEKACgAoDFABQAMBCiAUABEAoACACiAEQAiAUQAiECACgAIgFABQGKAitNzUMAFGAYAOEQhRgOEADAQYAGADoAKAhwgAYgFABRgKABgAoAKACiAMBCiAUABAAQGKAhRACIARAKIQIgAYAKIAQGKACgAoAVpuaCgAYAEQAcICDAAiMAwEEQAMADABQAcIhBgAYAKACgAoAGACgIMAFEAIAKACgMUABEIUQAiAEQCiECAAiAUABEMUAFABQEVpuahjAUACIAGABgIcIAEQEEQAdABQuAoAOEBBiAUADGAoAKIAwAUAHKhO4QuJtIPNHsixInGhwoH/gMWNE94hGgeyGND7xDWpkbxHdFKSYyAwRANLiS5ItU5MaHvuBMh1EN07asJJ80xd4iMK4jecHaIu8iPAwg3lXuTa2oowFEIEBigAoAKAFabmgYAKABEADAAiADoCDAAiAh0ACICCIAGACgAbQAUAFAAwAUAJsNSzHrtOetXVOyMatTCXRh+vwnJKu2zldU9A5DchKeKp8/WchA1gq2zEjfv3DWdeKNOKyu2ceKpWk1F2S14/nM7dOQGzwLc257Sxv7IviZcF0H8LxnLqvYytr/ozw7qTh2ZHtorWKnsuNRGq8ZZTj0DuqsM4SvyfuvY8nxmANNyh3qSD6pz1m6c7GtLaMcVIz8Rg23gSI7XhlZ6HTTrrRmYwJ7uE1qV82kerBKK5ljZ+D5yoqHiZnTbnKzMtord3Tcj3PYf6NcJTpqa13YgE2sF1HXxmjrqOUUeFhrV0pzna+dlb1dzVq8g9nsLc0R2g/8AiL4me+3QXwnCpLqvY4flz+jenRotiKDXVfKU2BF/vlKUauVrMuFavs8lieKLdr6NHkjUSDpwnH3ri7HuKV0OQncZ10q2PLeRJLVDpsQKAAgAoDFACtOg0DAAxAKMAwAIgIdAAwAcIhBjAUAHCAgxAKABgAoAGACgIUAJ9n480aubKHQr00PEX3g8CNZ5230lO3HcY7Rs6rQtez3P83HT4OrhcT8jUAc/um0fw4+q88z/AKwyav8AY8SrGvQ/9I5cVodBsXaGKwZ+KawO9dCp7wZ2Uu0IWwzVzl71YsUJWf54HSU+XeIt0qNMnrs4/OdC2jZnvZqtsrcY9P7Ke0eWGMqqVQCkDvKghvEnT1SXtlCGcVd8yJ7RUmrSllyy935nKVMDveowUcSSB7TPOq7U5yvvCNe3ywVzD25t2hTQ08MOdqMLc4BdEvxB/aPslUtkrVGpSTsejsmw1ZyU62S4b37HObOxZX4urTYqL5WsbgdXaJ11dmquTcU+h7c1vTNXDIpIei4NvEd/VMVOpTzkmZzxONpLI7nYnL7F4dQjAVFUWAOtvznUtpo1M5anlPZZw/8AGdlwea/rwNlv0oVLaYdL/S+68u+z/uYsG1cY9H7nOco+WeKxiGmQEQ/sjQf+ZnPaaUF/z6lQ2WTkpVZXtu0X59zj2w1NOlVdV7zv9885ylJ5HpxbeSM3EY1Kj5aa2VR5R0LHu4CduyU3F3Zo4OMcxk7yBQAUABABQArTpNgiIQYAGACgA4QEG8ACDABwiEGMAwAN4CFeFwDeABEQhQAMAJFosdQptFiQB5h/NMMSCzIXUq1mFrr75x7S7tD0RXoDpG/A+6xmGe4ctCeltzGUtExFa3UzZ1HcHuJbvJfNn98/UwnsezTzlBenpYspyqx5054fZUP8IQoU27YV0X8GT7N2Rfo85e5sbPbaFYBnruqtqAFpqSOu4W4mq2bZ1nOK+xyzeyUMowTfNX9bmlT2AG1qu9Ru0lj4tczSNeMMqMEvA45doNfQkvC3ob2zeRTVRmp0CV84mwPrJ1mzq1f1zsYx2naaucLvyXUvv+jupb5GmewMt/vi73/6Mq+2rc+qMLafJBaZtUpPTPA6+zrilUqpXTugj2hXpys7p9DCxnJ6oNaVVx6z9xnHOdOf1x8Ud1LtZvKav+cdTnMfUxmHNna4O5iqkd2o0M5J0I3yPc2TaKNVfKl4pMz620a7b6jeqy/htFGlFbjplGL3LwSXoim5JNzcnrO+aWsKyLWzxqe6dFHVmFbQvWnQcwIDBABQAEYFYTc1DAAwAUADGI09oE03yIoAVVv0b3JAJuZlDNXY2WsClFkDVaxR7m65B0QNx3dK/ZJldPJDROmGw+t8UOz4rjccOrfJvLgFlxEtChc3xN9Da1O2oAtqRxv7IXlwCyHDD4e//utL2I5rUez2wvLgFlxDTw2H0zYodoFPUeyF5cAsuJkGu19N19OiJrZECFd+ofVEdkFyxgXLVUVlBVnAIyjcTJlZJtAtSrWUB2A3B2A7gTLTyJY2AhQA0MXSZhTIIA5ld7AdfCRFpXKaLNDEKqKjUKDWBzMWGZjrY3kNXd7safIytq1V51SqCmMoBCtcacbznrXG80Wtk8oQBkxVKniKY6K5xd0Hotow7gQJpSq4cpHBW2HNyoywt9H+cczcp1Nh1tW5/Dk8Okw/CfxTrUqcuBxv4+nuv9mv5sTUtkbHBDJjyCDpdKdvXdxLSgndW6/0ZS2ja2mnTfT2Zo7MxtKsmakwOXQjcRbTUdRtpPMqpxkzh2ijUpStNal5NDCnJRkmc8s1Y9F2Xymw7ooYikwAGUjo6dRHDvm7pN5xz9T06O30sKjP5Wungaf60w+/n6P1198jup8GdPxdD966nP8AKnbmHei1JCKjG1jbopY77nj3TSMXTzl0OHbNqp1IYIZ8+BwpE4mziM7bC4UqtPF1OaSowswALDLrcAkdVvXLopOWeh6HZka0qydPdrfJGLi6OxKW6pia54AZEB9dmncnSWqR7c47beya9TnNq7UoHMmGwtOkjb2a9SqfpN5P0QJyVqkG/lR0Udnq3Uqs22tyyXlr43I9h4GpWzGmpbJbMBa/SJA390mlJK9zoqq6NQbFrkX5qpY7j0Lff2zbGjnwMZidlVaac5UR1XMBrlvc7tL9kFNN2BxaV2UrL1nwEonIFl628BAeQLL1t7IBkP8AguH/AIsfY1Zril+3zNrIXwXD/wAWPsaseKX7fMLIXwXD/wAWPsasMUv2+YWQfguH/ih9jVhil+3zFZD6eEoEgfChqQLczV4xOUuHmFkO2riX5+oA7WDkD1aflCEVhQm8zW2ds/PRWoxxN2DarlO42BUcRod8ylO0rKxSWRYo7HB0zY3MTp0VAG+4PDgInU+wWGUtnIAcxxum4lQBfXQ27bQc3yCxWxeysSHPNLWyXAXMUDE6gjf1gy4zjbMlpmS1eoCQWYEGxF9xE0sibi+EP57eMdkK7D8Jfz28YWQXLOzK7mtTGZtai8e0SZpYWCeZLX2PiS7EUXsXYjyes9sSqRtqDi+BPszYVRqqjEI1Ojf4xyVGVQCd9+4RSqq2TzBRd8yBsZQuQMKtr6E1KlyI8MuPkK64Ddpurc2yqEBpCygk2sTxMIZXCT0NHY2U0dRT+V1zUmfSw8phuEip9X9lQ0MblAEFRRZQCguUVlHGxs3HfOepe43fcOwnJ9qyXwtWlW3FqZIpVVJ3gBzlb1Nf0RKjSxPJnFLbVTlatFx56p9M/K3MWJ5L4ylfnMPWXvVreO6bfDy3DW3UX+oqUNl1SwUgrc2ubgC/XLjQnfMqe1U1FtO5HQrVcPWJVmSpTJBt2EAgjcRcQcWrxZtKNOvTV1eLzOjw3LYqctaiG9OmbH6re8TGVGO48up2PF505W5P3NKlyywZ3tVTsZD/ALSZGCUdH6nHLsjaFpZ+PvYk/wCsMH8631Kvuicp8fUldk7T+3zRDW5Z4QbjUf8ApQj8VpFpSNodjV3q4rxfsZGN5cudKFEL6TnMfqiw9pgqXE6qXYsVnUlfksjn81fFOzsWqPluSbXABA0HAXO4dc07puNonr0lS2e0UrL+v6J6WwMVU0SjVc+ijH7hBbLUNJ7ZRjrJEWP2FWoAmvkpMLWpM6881/5YuVA62t2XOkynRlHUintlOrK1O752yXjv8Llvk3gKlUMaQZrEXCuE9fbqY6bSvc0qq6VjT/V2IItzWIsLC3OCwvYj8ppiRhhfAcNlYhxY0qxG+zVFse6+/fDEgwtlXG7NaiM1SkwGbLfOpsSLgadkalcTVikWp+a/1h7pWYshZqfmv9Ye6GYZB+EYX+Gqfbt/jNrT4+RtdC+EYX+Gqfbt/jHafHyC6HK+CbRkxFH01ZagHaVIBI7ovnXBiyI9pYBsPUyFlcMivTqL5Lo3ktbh3RxliVxNDdnJetTHXUX8Qjk/lYLUZiWzOzdbsfEmNaIR0+BNJaNPMMOzc0DZnddCbtcgHpcMoPGc0ruTLWgzH0s9hSrUKdrln+EVDmsSAAOEcXbVeQPkYBxdTcarkbvLa33zfCuBncPwqp85U19Jvf2wwrgFyKMQRAQYAWtmfL0v9VPxCTP6WC1GYgnO2p8tvvMa0QmR98YgxCLeK+Tpf0MPBzJWrG9EanJ8nmyAKp+PXyGCgXU79R1bzcTOrr4F09DF5S3Nax5zSkujlGcak710tr7ZhN5lXMzCOyjMhKsGFiCQRv4iEXZ3QqkVLKSyOo2dyqx1FLrXbuIX7xY+2dC2iW/M8up2ds8nkrfZtFpf0j4/cTSPer/5TVVeRD7Jp2+qXVexzGGKVqvxzlC3lVNPzIF/WJsnGp9WT48T0JqVKH/NXXA3avIas4DUGp1wRcBT0/qGzeAIjnQS/PxHJDtON7NGRi+SuLpmz0ai96sJl3EnodC7Qpb2UzsSv5jeBk/Dz4GnxtLiWMPyZxVTRaNRu5SYfDy3kvb6PEsY3klXooXrZKVhfK7AOfo7/Gwj+Gdr3Jh2hCclFJlTYe2amCq87hyM4BGc3tYixAsQbTCdRU42jnzO2NGNaSxrwz/hr1L+0+W2Orgh69QKd6gsF8LzL4uW4P8A82gnfCvP+WzmqtQsbkkmc8puTuzpUVFWRtcmcWaRZsiVBYjKxsLm2vsmkFdGFWTTRrDaa6/9vT1tpzjgCx37+7wl4eZjj5BpbWC//GpbvPa3ZpfsHhDDzGp8htXaaP5eFonfbpsAL7tL8IYeYYr6oi+G0r64TD92Yjr7e0eEdnxC64GdWXMxICoCbhQwsvYJSJKE6jUUAEd3qgI3eVmmIFP5rD0afdamCfxTKl9Nxy1KWx/l0Pm5m+qjH8pU/pYlqUxuliO0w1QinTAbEqGpIF/7cOGVVIYi3AFgBuPHUTkazfuaAr4pUU1KnP6EC/wemgzMGGtxroFPXqY1G7svUTZWO1qR1FchrkX+Dpe2Y2It2a27d8ru5cPMWJGZtnHc4Qq1OcppqrFAhud+g7h7ZpTjbMmTuZ00JHCAgxCLOzfl6X+sn4hFL6WNaoZX8tv62+8wWhL1GRiHAQEWq4+KpfTH91/zkrVg3kiTAY8Ugw5qnUz8W3jQjTx9kUo33jjOxlbVr5qmdVWnwCruE56izzNI2kszWwO0UcBMVh0rgAWqC6VlUaAZlIv9K47I4zX6jz6mzSg3KjNrk81/NvA2/gGy6i2GJq0L/suEcD6RyTrjGk9PY4+/2yD+aF/t/v8AAKPJnAKc42jQcLqUKjpAbxo5mihBPTzFPbq7i13bT+z9jjMRRClshzKW6J9G5t+UJQs8tNx7dObcVi13hw20K9H5N3XsBNvDdEpSjoRUoUqv1JM2sLy+x9MWFZrDhuHgIOrxS6HM+zKT0bXiy1/6lY7zx4axd9H9ol2ZH9z6lTGcvsfUBBrMAd4F/wA5PfW0SNo9nUlr6v3OdxeNqVTd2Zu8mZTqSlqdVKhCmrRVjT5L7Mw9dn+E11w626DnW7Ai/RuLi3bx4xKEXG8hudVVEqUb5O+aXm2jQx+A2VSGuJxNcjhTp0kB+mWa31TJnCio6/nQnvdtk7KCX3d/T3MDaGNosuShhlpKDfMzNUrNw1c2FuwKJyylHSKNaVGrGWKpNt8LJLpr1bDswdE/1S4aGe0fUW7S7mACIDGkRjARAYIwKk6TcQgInwtLPURPPdV+swH5xN2QLMv8pqufG4hhu55gPoHL/tk01aCHLUpYSvkbNa91ZSL2NmUqbHgbGNq4g/F9VTxT3QzEWfhzfOYnW1/jOq1uHYPCLDyQ7gfF5hlZ67L1FwRpfgR2nxjStwFciBp9VTxX3R5iD8X1VPFfdDMWQRzfVU8V90MwyHDm+qp4r7oZiyCOb6qnivuhmLIlw9VEZXCuSjBgCwtcG4vpu0iabVgukRMbkk8TfxjJuECAggQJJUqsBYMQOrh4RWQYmh3Pv5x9kVkPEzNxb5qnS1sBr1W/KYVVZ5GkW8NzcwuxajhWw7JX6ABQELVBtfyG3jtW8IwusmcEtthFuNVOL55rqv5sZ2LwVdSRVpVaZHB0dfvE6oUnuN41qb+mSfiQ0sI7sFUXYnQdZ6pXdyvoVKtCMbvQmwTtSIdQDbepFwbjX2H/APZrTk4lVYKorM6OljtmVgBiaDUGt5dM9E9uWxB9WUTVuL/v3XseZKltVN/K7r84+5J/03suprTx6rfg6gfhYyXBPd5+9hLbNoj9UX0f8XB/0Zg//sMNbuq/4yXSjw817lLtCs8sPlL2G1OTuy6QvUxwe3Cmlz/cw+6LBBbvP2uW9o2qWkfL3sYW2sXgFUphqLMfnKjG/qAsB3EHvkTnTSyVzp2entMniqSsuBiUUd7sAbLYEjct72HsPhOCsp1M0exszhGdnwJE2fXqG1OlVqE7gisx9gnO6U1qjatWpQV5SS+7sN2hsmrQtzwVGP7vMhqKOtkBuvrjdOUdTkpbVTrN93muNnbwe/wJ9mDofSMuOhz7R9ZaIlXMQEQGNIjAaRGUNtAZTnUbhtC4jT5M0s+Nw6ndz6Me5DmP4ZFR2gxx1KNerndn892b6xJ/OWlZWExogIMACIAGAgiMQ4QAIgIcBAQ4QESU1uQOsgeJiYixXKqzKKa2ViBc1CdCRrZhErsTaTLz7KqqcvM02YbwpqniBoSbNqw3E+EjGuJThLh6jhsit8zT3E2znWzBTbp9bCGNcRYJcPzqO/VNa9uZpg8Lva56Wg6foN4QxriLBLh+dQLsqsRcUaZBKgHPoc2XLbp8cy+MMa4iwS4fnU53aNw5UKi8Gykm9u0k+yOUL5msXkTUMSxfMvRNhYAn9kbu3STGFjGcE1aWZu4DlhjqQyirmXzWBt/aROuJ51Ts+hJ3Sa+z97lmvy8xRBVqeGN1Izc3qLi1wSTKxWZC7Lpv9T8vYwcOS7W6ILa8d57pqkp57/zQ9Ob7uOeaRY2lyfxIUPzTFCNHWzIfpLcROG4yhtlLiYr4SqvBplKEkdKq03vGc1V9KZtSLxUwjB1W4NJ7ubDvqUd47EbJroAz03VTuLCwPdfeO2S6MwjtNKTsmX+TnKGrgc3MCnmcdN2W5NtwGugGvjMKtZU0kup1UdkhtE26ibssldr0a8x21uVmOrjK+Iq5fMDMF8LzCW1SkrDXZezU3dQV+efqc61z2zJXbNWrGvs1bJ65toedXd5FoiBiAiMBpEYxpEYxloyiiJ0nQOEBFvZWNOHrJWChshN1vbMGUqwvwNmOvCTJXVhp2JGwVFvkcQgXglYPTqL2FgCjd4I7oYnvXQLIX6u/n4T7Ue6GLk+gWD+rv5+F+1Huhi5PoKwRs7+fhftR7o8XJ9AsH9Xfz8L9qPdDFyfQVg/q/wDnYX7Ue6GPk+grDhs/+dhftR7oY+T6CtzCNn/zsN9qPdDHyYsPMcNn/wA7Dfaj3Qxcn0Fbmhw2f/Ow32g90eLk+gsPNEtHAdIfHYfyh+8HX3ROWWjFhz1Q3FVBzj/Fp8o3znnH0o0siZPNln4INLHCHS/yjAa9V217ZN/uDX2HjAjzsH1fKt6Ppel7D1QxfcWH7dQrgweOD1/mPpu3m9uI9vUYX+5Nvt1HDAg3u2EFuGdzfyt3S9H2jrhi+41FcjJx1LK5UU6L2PlKapU9xzTWKb4lqajlkQqcuvMoPtf8paixOcXwJzXzHWnS7xnBP901irGMktzt+cxoyFhmTKt9SCdO23ZHaLehPzJfK8ygoKnfr1jjN4wOptM1dn8pMVQN6dVh6ze3VffbsvCSOapsVKe632yNYcvqv72hhqh62p0yT3llJ9syckv9ZzPszfGXkvYd/wBeJ/A4S/8AQn+MzdRc+pUezZ75eRWxPL6va1FKNHtRKasPpKAZDrcvVm0ey4fqb8v4Ry20tpVsQxarUZyTrc75z1KkpanfR2enSXyobh6dkznKczWC36Vhva3Vc29R6pyVqeKKbZ6Gx1lGco4b5LPcR1JnGlFGtSbY1VvumqVtDmkzZwlPoyDzarzLBSBjcYVgVcYRGMYRKGNIjKM4TpOksYSmCWLC4Sm7W11IFl3cMxWJsBvO+gng3vjsI1aexMQ2TLTotzi5lAJFh0fKLEAHpqJnjXEdmAbGxFgwp0SCE/bUWLhSF6TDWzr46Xjxx4hZgXZNc6ClRYm3kuh3lhfR910YfRhjXEVmDEbNrUwxelSGUEkZ0JsGCkgB9Rdl8Y1JPRg00UhU9BPBvfLsTccKnoJ4N74WFccKnop/d747CuOFT0U9vvhYm5LXQAIQLZqdyNbXzuul+xRBCYwCMklpDpDvH3wYr5k2KHxj/wCo34jEtEKWrOhwxq3Q3xRFTmebtTpkWUW1B08phlPpA66TFpcjW759BZXyiwxBuoAy4ekuoB001/bWx9LsELL8Ym3z6FfaNF2UWWqQuYm9FaYAFrno8JUbL/TKpdrf0sZuSao57kuEUBrmdEDGs20dPhGQixUHwnQjxKsZp5MtfAcO2+mngI8jDvq0dJMq7S2VhhRqMEW4ptbwhZG1Daq7qxTe9HnuCqBT0lDrxB/5/wA7JtTi7H1VVNrJ2Z0VDB7Nrj5V8M1tzWZL95It4tIkn+ZHBKrtNPVXXL+vYnbkOHHxWKwzj+p1/EoHtmMo33P19AXadvqX542Ih+j6rf5bDd/PU/yN5k6a59GaR7VT0XmiOvyPoUda+NoJ2LnZvVcAHxk91H8sX8fVeUYN+D9jm9pphUJFE1atj5TWVT9EbvE+qYT7uL4+h3UXXmrzsvU6X9Hez6FdKzV0RyGULcCwFjuhSSmm5HPt20VaLSpu2R09XZWEXdRp/VE6VCC3HjS2raZPOT6mDtbDUrdFFHcBIqRjY69nqVL/ADMyEpzzJ6na5BKTMm5GywKTIWWMtDCIxjCJRRWGzcR/D4j7Kr7p0YlxOuzJqeGqUqdR6lJ1BVUAdaihizq3ZwQxXTaSDQq86vzdPxq/5yhFqpgKi3vhRouY2FRrLr0jlc2Gh39RiUlxCzC+zqoJBwZuCQejWIuubNqGsfJbXsMMS4isxNgqguDhCLAk9CvoBe5PS4WN+6PEuPoKzJaezKx0GEtbfcVVtvH7TjdY90WNcQsyGqpS2akgzLmU5nIZbkXBDkEXBHqMpZ7xPIaKg+bTxq/5R2JHioPm08an+ULCHCoPm08an+UdibljF/u9APihoL21Zzx74R3iluIgJRDJKQ1HeICuT4kfGP8A6jfiMS0RMnmzZoZLL8j5AzNzxVicosSQL3vpa3C3acmn+I1xK27qOphGyi9BVH85tL2INyL6Zhu06JHAwaa/wjEnw6jndFXVaTXIJUVqpbpZrj7r9w640m/8IlOKW7qzOK9WnZ1dk1RzXH0aes6IGdSWRtYSlNkebVkaKU5RyuRDj0PNsOtTAui1jRwNPDAc5e/QAIAtxYL/ALhNadTC0mfVL5o3REU83pHv1+rvmzipaMV7alWqzA63HfOWpFo1iosjOJfrM5JNm0acSF6hnPKRsqaW4iIJmDzKsehcgsKVoMfOa/snVRVonkbbJOZtYqkeubo81tXMHGoZlUOmm0Uwk86epq2JkmQrkTpEWmQOsZaZAwlGiGEShmVedJ1lhdKJPnVVH1FY/wC8Q3huI6NMsyqBcswUDrJIAHtgI6HLmzEUcblzZMorEIWBsV6RJI+MA3nyt+sz8UWI4VnsPg+M6ZICvXst3Zbg31t07deovfWF+a6AUUx9GzaYoZgbAVja5NQgt16Mt+vp7ry7PkTcfT2hRB8jEavf5dwVGZySCN7EFLk33Nuvo8L/ABCxIFTE4ZjmNOuzcc1W43rYXtewGcb+I6tRKRLaGc5h7G1KqGt0emCoN2sSLX3ZPA7r6V83El2K4lEDwJRLLWJGq9lJPaoP5xRCTGqJRm2SoNR3x2JuWMQvxj/1t+IxLRCk82bYNQoutXKKSfuVa2ZVUWNhpdQAdb798ysr/wBml3Za6cCSjmGUs1awII+JW4C5Olc8QEXv9Zumvy5N3ldvp+cCOm2IH7Bulv3YJXI195HBvdHaJjjqcPLgR4hahsHUjLoOjl7LbtfJ9hlxtuMpylvXkMoprOqBzTZr4UTZHn1C+kZzsixnkkdkaLpfUjmaWyWc1MtulTPsZW/2yslb7nvU9qjFWfApVuTmIG5M3cRLeFlw7RoveUaux8QP3VT/AJ3TGSe5nTHbKD/UiudlV/mqn1TOeUGzojtdP9y6iGxMQf3NQ+qZd0D22itZoI2NWXVqZUdtonSaJ+MpS0lc7zkzTyUrSlkcVb5ncuYsy0zjcTDxYuZlUeRpDIqZJ58zS4GSYiuQusC0ytUWNGqZXcRmiI7SizGnUdZPnUoqXIIZmOmhzBBw/p9sQDQo88eDe6MBza76l7775zeAgj+vebnytT198AEFHnDwb3RiHBR5w8G90LiHBR5w8GjEPCDzh4NGSSKg84eBjJZIqDzh4GUSS1GDG4vYKo19FQv5RpESY5RKsQ2SoI7EXLNRQzFgwszE2Ia4ub62BiSyFJpsmps3CodN2tTTd2eiPAdUHHkQ5c/UnVm+dPjU90nDyIcn+71JgSd9QnvL9d+rr1ityM3J8fUkIJ3uTrfUudevd2nxjS5EOTer9R9KkOsf3e6bxMZtcTTw6DrH93um6Zxztx9fYuKo6x7fdGc7S4+vsQ4pRbePb7ozSmlfX19jOw7hCTe+hFhfiCOPfLw3R3ZW8H6F2ji4OJwyolkYsSGjPuWH4UvUJI1SkQVsYIjWNFmPja+bSRJnoUKeE09liyzBnc2S4mMwbMfEprMpsLlfJOGYXGMsxY0yGosC0yrUWBtFlWoI0axISJRZiTqOwUACIwCDAQRABwjEOECRwjEyQRkkiykQyZRKRLZKolmbZMqx2IbJlWVYhslVYWIbJkWFiGydFktGbZYRZNjNsmVIIhsmppNYmUmXqCzZM5pllZRiyHEbpSLgUFp6zZHU3kWUpiSzFyY/mhM2LEwGkJBSkQ1qQkm0ZMzqtLWRI66cjVwWgmRq5D60Rg2UKqzGbGpEBWccx3I2WYspMr1FiNEVaiwNolSoJSNoldhGaIwZ1HYGABjAUBBEAHCMQ4RiHiMlkixkslSWiGToJSM2ToJaRm2TostIzbJ1WOxDZMqR2IbJkWKxDZOixNGbZOiyGjNsmVYENk9NZSMpFqmJomYSJhLTM7ENaXE0iisFnQjVsmQRMzY+ZMQDM2WkQVpLNolJhrMpM6Yl7DnSZNjbHvJbMmyu6zCbGmQMs5ZMtELiZMtFeoIjRFWqIG0SpUEZtErMJRoc9Os7RQAMADAQRAAiMQ4RiHiMlkqykSyZJaM2WKYlozZZprNEYtlpFlpGTZOiSrENkypHYhsmVIrENkyLJaIbJ0WTYhsmVZNjNkyCMhkySkzNkl5SZFiKpNYspDFWdCZTJAImSw2mTENYTNlohqCQ2axKpXWZSZvFlmlMWwbHmZuRBEwmMmNELic8jRELiQy0V6gkmqKlUQNYlSqIzeJWYR3ND//Z;" vertex="1" parent="-ansJqmjGRNbWr8opuUd-61">
          <mxGeometry x="559" y="1210" width="300" height="168" as="geometry" />
        </mxCell>
        <mxCell id="-ansJqmjGRNbWr8opuUd-53" value="Large database can be maintained for previously asked questions, and this data can again be used to train another large scale AI model that can solve almost all queries instantly" style="text;html=1;strokeColor=none;fillColor=none;align=center;verticalAlign=middle;whiteSpace=wrap;rounded=0;" vertex="1" parent="-ansJqmjGRNbWr8opuUd-61">
          <mxGeometry x="551" y="1390" width="316" height="60" as="geometry" />
        </mxCell>
        <mxCell id="-ansJqmjGRNbWr8opuUd-65" value="Verified Individuals" style="text;html=1;strokeColor=none;fillColor=none;align=center;verticalAlign=middle;whiteSpace=wrap;rounded=0;" vertex="1" parent="-ansJqmjGRNbWr8opuUd-61">
          <mxGeometry x="1070" y="560" width="160" height="30" as="geometry" />
        </mxCell>
        <mxCell id="-ansJqmjGRNbWr8opuUd-63" value="Text" style="text;html=1;strokeColor=none;fillColor=none;align=center;verticalAlign=middle;whiteSpace=wrap;rounded=0;" vertex="1" parent="1">
          <mxGeometry x="450" y="770" width="60" height="30" as="geometry" />
        </mxCell>
      </root>
    </mxGraphModel>
  </diagram>
</mxfile>
